<?xml version="1.0" encoding="UTF-8"?>
<svg xmlns="http://www.w3.org/2000/svg" width="29.89cm" height="53.73cm" version="1.1" viewBox="0 0 847.35 1523.17">
  <!-- Generator: Adobe Illustrator 29.3.0, SVG Export Plug-In . SVG Version: 2.1.0 Build 146)  -->
  <defs>
    <style>
      .st0 {
        font-size: 24.78px;
      }

      .st0, .st1, .st2, .st3, .st4, .st5, .st6, .st7, .st8, .st9, .st10, .st11, .st12, .st13, .st14, .st15, .st16, .st17 {
        font-family: Calibri, Calibri;
      }

      .st1 {
        font-size: 27.39px;
      }

      .st18, .st19 {
        fill: #e73f2b;
      }

      .st2 {
        font-size: 25.45px;
      }

      .st3, .st20 {
        font-size: 20.4px;
      }

      .st4 {
        font-size: 14.62px;
      }

      .st21, .st22 {
        fill: none;
      }

      .st21, .st22, .st19, .st23 {
        stroke-miterlimit: 10;
      }

      .st21, .st19 {
        stroke: #e73f2b;
        stroke-width: 6px;
      }

      .st5 {
        font-size: 14.67px;
      }

      .st6 {
        font-size: 14.9px;
      }

      .st22, .st23 {
        stroke: #1d1d1b;
      }

      .st7, .st24 {
        font-size: 16.7px;
      }

      .st8 {
        font-size: 15.82px;
      }

      .st9 {
        font-size: 33.44px;
      }

      .st11 {
        font-size: 18.19px;
      }

      .st25 {
        font-size: 11px;
      }

      .st12 {
        font-size: 19.65px;
      }

      .st13 {
        font-size: 18.89px;
      }

      .st14 {
        font-size: 25.21px;
      }

      .st15 {
        font-size: 18.31px;
      }

      .st16 {
        font-size: 23.64px;
      }

      .st20 {
        fill: #fff;
        font-family: Calibri-Bold, Calibri;
        font-weight: 700;
      }

      .st23 {
        fill: #ccc;
      }

      .st17 {
        font-size: 15.56px;
      }
    </style>
  </defs>
  <g id="Capa_1">
    <text class="st14" transform="translate(605.01 59.02)"><tspan x="0" y="0">Salida de </tspan><tspan x="-11.11" y="30.25">Emergencia</tspan></text>
    <text class="st14" transform="translate(133.39 59.02)"><tspan x="0" y="0">Salida de </tspan><tspan x="-11.11" y="30.25">Emergencia</tspan></text>
    <text class="st9" transform="translate(385.52 1448.41)"><tspan x="0" y="0">Acceso </tspan><tspan x="-7.36" y="40.12">Principal</tspan></text>
  </g>
  <g id="Capa_2">
    <g>
      <text class="st15" transform="translate(74.82 65.14) rotate(90)"><tspan x="0" y="0">Sanitarios</tspan><tspan x="-2.16" y="21.97">Caballeros</tspan></text>
      <rect class="st22" x="28.94" y="24.8" width="79" height="154"/>
    </g>
    <rect class="st23" x="28.94" y="178.8" width="79" height="116.8"/>
    <text class="st8" transform="translate(73.95 337.32) rotate(90)"><tspan x="0" y="0">Acceso </tspan><tspan x="2.19" y="18.98">Lateral</tspan></text>
    <g>
      <text class="st8" transform="translate(64.46 448.78) rotate(90)"><tspan x="0" y="0">Sinaloa</tspan></text>
      <rect class="st22" x="28.94" y="427.55" width="79" height="88.81"/>
    </g>
    <g>
      <text class="st11" transform="translate(63.86 531.73) rotate(90)"><tspan x="0" y="0">Sonora</tspan></text>
      <rect class="st22" x="28.94" y="516.36" width="79" height="82.89"/>
    </g>
    <g>
      <text class="st3" transform="translate(63.3 690.67) rotate(90)"><tspan x="0" y="0">Tlaxcala</tspan></text>
      <rect class="st22" x="28.94" y="682.13" width="79" height="83.16"/>
    </g>
    <g>
      <text class="st3" transform="translate(63.3 771.52) rotate(90)"><tspan x="0" y="0">Veracruz</tspan></text>
      <rect class="st22" x="28.94" y="765.3" width="79" height="85.58"/>
    </g>
    <g>
      <text class="st6" transform="translate(64.69 864.61) rotate(90)"><tspan x="0" y="0">Zacatecas</tspan></text>
      <rect class="st22" x="28.94" y="850.87" width="79" height="86.7"/>
    </g>
    <rect class="st23" x="28.94" y="937.57" width="79" height="83.31"/>
    <rect class="st23" x="28.94" y="1020.88" width="79" height="84.85"/>
    <rect class="st23" x="28.94" y="1105.73" width="79" height="82.97"/>
    <g>
      <text class="st10" transform="translate(76.55 1207.48) rotate(90)"><tspan class="st24"><tspan x="0" y="0">CEMM</tspan></tspan><tspan class="st25"><tspan x="-5.74" y="26.4">Exposiciones</tspan></tspan></text>
      <rect class="st22" x="28.94" y="1188.13" width="79" height="84.31"/>
    </g>
    <g>
      <text class="st8" transform="translate(776.39 212.98) rotate(90)"><tspan x="0" y="0">Enfermería</tspan></text>
      <rect class="st22" x="740.87" y="188.71" width="79" height="120"/>
    </g>
    <g>
      <text class="st15" transform="translate(786.74 70.14) rotate(90)"><tspan x="0" y="0">Sanitarios</tspan><tspan x="11.36" y="21.97">Damas</tspan></text>
      <rect class="st22" x="740.87" y="24.8" width="79" height="163.98"/>
    </g>
    <rect class="st23" x="740.87" y="308.71" width="79" height="118"/>
    <g>
      <text class="st8" transform="translate(709.89 457.75) rotate(90)"><tspan x="0" y="0">Guerrero</tspan></text>
      <rect class="st22" x="686.87" y="426.71" width="54" height="121"/>
    </g>
    <g>
      <text class="st8" transform="translate(709.89 649.98) rotate(90)"><tspan x="0" y="0">Chihuaha</tspan></text>
      <rect class="st22" x="686.87" y="619.71" width="54" height="121"/>
    </g>
    <g>
      <text class="st13" transform="translate(130.06 638.47) rotate(90)"><tspan x="0" y="0">Tamaulipas</tspan></text>
      <rect class="st22" x="107.94" y="621.63" width="53.74" height="121"/>
    </g>
    <g>
      <text class="st13" transform="translate(130.06 820.15) rotate(90)"><tspan x="0" y="0">Yucatán</tspan></text>
      <rect class="st22" x="107.94" y="790.37" width="53.74" height="121"/>
    </g>
    <g>
      <text class="st13" transform="translate(141.39 487.93) rotate(90)"><tspan x="0" y="0">San Luis</tspan><tspan x="6.89" y="22.66">Potosí</tspan></text>
      <rect class="st22" x="107.94" y="463.49" width="53.74" height="110.38"/>
    </g>
    <g>
      <text class="st12" transform="translate(279.1 306.44) rotate(90)"><tspan x="0" y="0">Nuevo León</tspan></text>
      <rect class="st22" x="258.98" y="285.02" width="50.13" height="138.03"/>
    </g>
    <g>
      <text class="st16" transform="translate(328.54 318.94) rotate(90)"><tspan x="0" y="0">Nayarit</tspan></text>
      <rect class="st22" x="309.11" y="285.02" width="50.76" height="138.03"/>
    </g>
    <g>
      <text class="st16" transform="translate(379.7 314.13) rotate(90)"><tspan x="0" y="0">Morelos</tspan></text>
      <rect class="st22" x="359.87" y="285.02" width="51.56" height="138.03"/>
    </g>
    <g>
      <text class="st16" transform="translate(431.18 301.25) rotate(90)"><tspan x="0" y="0">Michoacán</tspan></text>
      <rect class="st22" x="411.43" y="285.02" width="51.39" height="138.03"/>
    </g>
    <g>
      <text class="st16" transform="translate(481.99 323.33) rotate(90)"><tspan x="0" y="0">Jalisco</tspan></text>
      <rect class="st22" x="462.82" y="285.02" width="50.24" height="138.03"/>
    </g>
    <g>
      <text class="st16" transform="translate(532.52 317.58) rotate(90)"><tspan x="0" y="0">Hidalgo</tspan></text>
      <rect class="st22" x="513.06" y="285.02" width="50.82" height="138.03"/>
    </g>
    <g>
      <text class="st8" transform="translate(709.89 816.31) rotate(90)"><tspan x="0" y="0">Coahuila</tspan></text>
      <rect class="st22" x="686.87" y="783.71" width="54" height="121"/>
    </g>
    <g>
      <text class="st8" transform="translate(709.89 974.36) rotate(90)"><tspan x="0" y="0">Baja California</tspan></text>
      <rect class="st22" x="686.87" y="960.15" width="54" height="121"/>
    </g>
    <g>
      <text class="st8" transform="translate(776.39 434.13) rotate(90)"><tspan x="0" y="0">Guanajuato</tspan></text>
      <rect class="st22" x="740.87" y="426.71" width="79" height="89.89"/>
    </g>
    <g>
      <text class="st11" transform="translate(775.79 527.01) rotate(90)"><tspan x="0" y="0">Durango</tspan></text>
      <rect class="st22" x="740.87" y="516.82" width="79" height="83.89"/>
    </g>
    <g>
      <text class="st3" transform="translate(775.23 625.35) rotate(90)"><tspan x="0" y="0">D.F.</tspan></text>
      <rect class="st22" x="740.87" y="600.71" width="79" height="81.5"/>
    </g>
    <g>
      <text class="st3" transform="translate(775.23 692.2) rotate(90)"><tspan x="0" y="0">Chiapas</tspan></text>
      <rect class="st22" x="740.87" y="682.21" width="79" height="84.5"/>
    </g>
    <g>
      <text class="st3" transform="translate(775.23 780.18) rotate(90)"><tspan x="0" y="0">Colima</tspan></text>
      <rect class="st22" x="740.87" y="766.71" width="79" height="84"/>
    </g>
    <g>
      <text class="st6" transform="translate(776.62 859.82) rotate(90)"><tspan x="0" y="0">Campeche</tspan></text>
      <rect class="st22" x="740.87" y="850.71" width="79" height="82"/>
    </g>
    <g>
      <text class="st7" transform="translate(796.2 960.18) rotate(90)"><tspan x="0" y="0">Baja</tspan><tspan x="-17.91" y="20.03">California</tspan><tspan x="3.4" y="40.07">Sur</tspan></text>
      <rect class="st22" x="740.87" y="932.71" width="79" height="84"/>
    </g>
    <g>
      <text class="st17" transform="translate(785.79 1041.73) rotate(90)"><tspan x="0" y="0">Aguas</tspan><tspan x="-9.04" y="18.67">calientes</tspan></text>
      <rect class="st22" x="740.87" y="1016.77" width="79" height="87.94"/>
    </g>
    <rect class="st23" x="740.87" y="1104.71" width="79" height="225"/>
    <g>
      <text class="st1" transform="translate(523.22 87.21) rotate(90)"><tspan x="0" y="0">Oaxaca</tspan></text>
      <rect class="st22" x="490.37" y="34.71" width="79.5" height="185.93"/>
    </g>
    <g>
      <text class="st1" transform="translate(443.47 89.69) rotate(90)"><tspan x="0" y="0">Puebla</tspan></text>
      <rect class="st22" x="410.37" y="34.71" width="80" height="185.93"/>
    </g>
    <g>
      <text class="st1" transform="translate(362.72 69.72) rotate(90)"><tspan x="0" y="0">Querétaro</tspan></text>
      <rect class="st22" x="328.87" y="34.71" width="81.5" height="185.93"/>
    </g>
    <g>
      <text class="st0" transform="translate(283.47 58.36) rotate(90)"><tspan x="0" y="0">Quintana Roo</tspan></text>
      <rect class="st22" x="250.87" y="34.71" width="77.67" height="185.93"/>
    </g>
    <g>
      <text class="st5" transform="translate(63.28 1425.47) rotate(90)"><tspan x="0" y="0">Sanitarios</tspan><tspan x="9.1" y="17.61">Damas</tspan></text>
      <rect class="st22" x="28.94" y="1412.04" width="58.46" height="85.59"/>
    </g>
    <g>
      <text class="st5" transform="translate(120.98 1425.47) rotate(90)"><tspan x="0" y="0">Sanitarios</tspan><tspan x="-1.73" y="17.61">Caballeros</tspan></text>
      <rect class="st22" x="87.23" y="1412.04" width="57.29" height="85.59"/>
    </g>
    <rect class="st23" x="144.52" y="1412.04" width="58.75" height="85.59"/>
    <rect class="st23" x="203.27" y="1412.04" width="56.83" height="85.59"/>
    <rect class="st23" x="660.12" y="1412.04" width="56.83" height="85.59"/>
    <g>
      <text class="st4" transform="translate(750.83 1428.44) rotate(90)"><tspan x="0" y="0">Sanitario</tspan><tspan x="-4.59" y="17.54">Caballeros</tspan></text>
      <rect class="st22" x="717.32" y="1412.04" width="56.83" height="85.59"/>
    </g>
    <g>
      <text class="st4" transform="translate(802.29 1405.92) rotate(90)"><tspan x="0" y="0">Sanitario</tspan><tspan x="6.21" y="17.54">Damas</tspan></text>
      <rect class="st22" x="774.52" y="1367" width="45.34" height="130.64"/>
    </g>
    <g>
      <rect class="st22" x="340.55" y="1028.97" width="152.78" height="306.29" transform="translate(1599.06 765.18) rotate(90)"/>
      <text class="st2" transform="translate(295.73 1157.98)"><tspan x="0" y="0">Secretaría de Extensión</tspan><tspan x="-15.91" y="30.54">Universitaria y Vinculación</tspan><tspan x="57.59" y="61.08">Institucional</tspan></text>
    </g>
    <g>
      <polyline class="st21" points="431.57 1412.04 431.57 1329.71 214.32 1329.71 214.32 607.95 184.07 607.95"/>
      <path class="st18" d="M147.86,607.95c17.04-6.32,38.18-17.11,51.28-28.54l-10.32,28.54,10.32,28.53c-13.1-11.43-34.25-22.21-51.28-28.53Z"/>
    </g>
    <g>
      <rect class="st19" x="28.94" y="599.25" width="79" height="82.89"/>
      <text class="st20" transform="translate(63.3 606.28) rotate(90)"><tspan x="0" y="0">Tabasco</tspan></text>
    </g>
  </g>
  <metadata>
    <sfw xmlns="http://ns.adobe.com/SaveForWeb/1.0/">
      <slices/>
      <sliceSourceBounds x="-98.77" y="-325.82" width="794.43" height="1474.69" bottomLeftOrigin="true"/>
    </sfw>
  </metadata>
</svg>