<?xml version="1.0" encoding="UTF-8"?>
<svg id="Capa_1" xmlns="http://www.w3.org/2000/svg" width="762" height="1000" version="1.1" viewBox="0 0 762 1000">
  <!-- Generator: Adobe Illustrator 29.3.0, SVG Export Plug-In . SVG Version: 2.1.0 Build 146)  -->
  <defs>
    <style>
      .st0 {
        fill: #fff;
      }
    </style>
  </defs>
  <g id="Capa_2">
    <g>
      <g>
        <path class="st0" d="M252.91,59.04v-.02.02h0Z"/>
        <path class="st0" d="M253.98,56c-.17.49-.34.99-.52,1.5.18-.5.35-1,.52-1.5Z"/>
        <path class="st0" d="M255.01,52.92c-.23.72-.47,1.45-.73,2.2.26-.75.49-1.48.73-2.2Z"/>
        <path class="st0" d="M236.28,76.74h0c.06-.86.11-1.7.17-2.54-.06.83-.1,1.68-.17,2.54Z"/>
        <path class="st0" d="M236.63,71.34c.04-.65.08-1.3.11-1.93-.04.63-.08,1.28-.11,1.93Z"/>
        <polygon class="st0" points="385.76 393.84 385.76 393.84 385.76 393.84 385.76 393.84"/>
        <path class="st0" d="M236.46,73.87c.05-.72.09-1.42.13-2.11-.04.69-.09,1.39-.13,2.11Z"/>
        <path class="st0" d="M236.89,66.78c-.04.7-.09,1.43-.12,2.16.05-.73.09-1.46.12-2.16Z"/>
        <path class="st0" d="M255.66,50.79c-.16.55-.33,1.1-.51,1.67.18-.57.35-1.12.51-1.67Z"/>
        <path class="st0" d="M257.09,44.35c-.06.56-.15,1.16-.27,1.76.11-.61.21-1.19.27-1.76Z"/>
        <path class="st0" d="M254.5,198.61c1.11-.27,2.18-.6,3.21-1-1.03.41-2.1.74-3.21,1Z"/>
        <path class="st0" d="M256.7,46.71c-.09.43-.18.85-.28,1.29.1-.45.2-.87.28-1.29Z"/>
        <path class="st0" d="M257.71,197.61c1.03-.41,2.04-.9,3-1.48-.97.58-1.97,1.07-3,1.48Z"/>
        <path class="st0" d="M249.45,199.41c1.77-.16,3.45-.41,5.06-.8-1.6.39-3.29.63-5.06.8Z"/>
        <path class="st0" d="M256.24,48.73c-.11.44-.24.88-.36,1.34.13-.45.26-.9.36-1.34Z"/>
        <path class="st0" d="M243.43,199.66h0c2,0,3.88-.07,5.69-.22-1.8.15-3.69.21-5.69.22Z"/>
        <path class="st0" d="M680.01,582.38c-.5-3.9-1-7.8-1.52-11.71-2.55,6.25-6.79,12.52-14.74,18.82-18.16,14.38-21.57,20.94-29.6,18.59-25.49-7.48-47.24.31-64.81-19.31-3.16-3.54-2.81-6.79.48-10.16,12.22-12.49,8.38-18.56,18.55-18.38,17.34.3,39.63,2.62,45.22-23.29,7.6-35.16-2.16-41.5,17.52-46.34,8.5-2.09,14.64-5.29,19.64-9.11-.55-2.11-1.24-4.22-2.09-6.35-1.56-3.9-3.08-7.82-4.58-11.75-3,2.56-6.02,4.69-8.64,6.07-5.28,2.8-11.05,4.7-16.57,7.07-8.78,3.77-16.54-4.33-16.75-12.69-.28-11.54,21.28-7.73,31.8-9.5,2.46-.42,4.36-1.57,5.58-3.13-1.68-4.53-3.34-9.05-5-13.58-6.33-3.38-13.51.04-22.48,1.73-18.36,3.48-19.99-2.77-62.02-35.81-11.42-8.98-18.18-10.82-17.9-18.78.05-7.15,6.41-11.42,12.77-7.75,9.94,5.75,14.17,18.09,39.7,36.66,18.31,13.32,25.7,7.76,45.18,11-.22-.59-.43-1.17-.64-1.76-1.68-4.54-3.87-9.01-5.05-13.63-14.86-1.04-29.36-2.54-57.77-33.45-26.25-28.57-42.67-21.31-47.2-4.04-1.77,6.77-2.2,11.88-8.5,16.02-14.9,9.81-5.75,21.91-23.2,24.07-14.99,1.86-11.67,2.78-56.19,8.05-14.75,1.74-11.49-12.86-38.23-24.8-11.19-5-12.8-14.74-24.41-43.17-3.41-8.35,1.15-10.89,10.82-32.58,9.43-21.17,24.86-12.71,48.23-29.33,11.04-7.86,19.24-1.01,40.48,14.15,11.59,8.28-3.76,37.86-26.21,42.23-8.51,1.66-11.63.72-15.28,1.26-14.98,2.2-10.72,19.83,1,20.79,4.44.36,5.78,0,26.04-5.29,16.83-4.39,29.34-23.68,32.79-38.53,3.13-13.45,1.98-10.48,49.17-18.76,16.73-2.94,17.74,9.32,56.99,31.53-2.95-7.31-5.5-14.79-7.62-22.46-26.57-17.8-28.11-18.79-24.25-24.26,3.05-4.33,7.42-6.46,11.77-6.31-3.02-4.04-5.62-8.27-7.91-12.62-7.89,3.48-13.88,3.12-18.16,9.65-8.46,12.89-19.19,9.47-54.78,15.24-22.87,3.7-43.79-41.4-71.8-23.15-29.4,19.17-47.11,9.11-56.92,36.24-7.18,19.83-10.41,26.78-23.69,26.29-29.26-1.09-34.48,11.73-26.53,24.78,3.21,5.27,16.1,18.63.35,20.24-16.15,1.65-20.26-20.42-21.07-36.62-.53-10.57,18.66-20.31,31.12-20.19,12.57.13,22.63-4.79,23.7-17.31.92-10.61,11.83-28.88,22.3-30.76,16.41-2.96,31.26-10.21,46.43-16.53,7.96-3.31,12.99-9.3,14.27-18.01,1.55-10.6,2.92-21.07-.57-31.75-2.88-8.82.62-12.54,9.9-11.98,9.17.55,10.4,4.06,10.6,8.41.67,14.53,2.33,21.1-1.42,28.33-6.68,12.85-6.71,21.35,5.77,29.38,28.37,18.27,49.46,25.52,83.24,5.99,7.58-4.38,15.47-8.36,20.95-12.19-1.97-5.1-3.72-10.31-5.38-15.59-.48-1.54-1.04-3.09-1.67-4.62-7.66-3.95-15.45-7.7-24.32-8.79-7.71-.95-12.74-5.47-15.05-13.25-3.41-11.51-9.94-15.14-13.54-20.46-5.85-8.66,4.02-16.56,11.37-14.54-4.34-5.49-8.68-10.97-13.15-16.34-16.91,4.31-13.44,25.35-32.62,23.82-43.79-6.43-35.25,2.46-51.38-4.48-39.31-16.91-49.51-25.06-77.26-20.98-27.3,4.02-27.36,23.21-51.63,24.1-26.03.96-18.97,17.6-32.14,20.32-6.54,1.35-12.86,2.1-18.73,2.77-2.35.27-4.63.52-6.82.81-1.1.14-2.17.28-3.23.44-11.79-4.97.69-11.35.69-11.35h0c2,0,3.88-.07,5.69-.22.1,0,.22-.02.32-.03,1.77-.16,3.45-.41,5.06-.8,1.11-.27,2.18-.6,3.21-1s2.04-.9,3-1.48c2.91-1.74,5.52-4.31,7.94-8.08,9.98-15.6,25.76-3.22,55.45-24.61,10.74-7.74,14.34-13.61,26.03-13.55,28.16.14,28.65-2.01,44.21,4.05,37.25,14.52,43.3,21.9,79.17,19.94,12.41-.68,22.63-12.34,31.73-22.54-.59-.63-1.16-1.27-1.75-1.89-3.9-4.1-7.87-8.14-11.88-12.14-11.09,16.67-19.59,33.1-72,10.94-11.38-4.81-29.26-10.24-33.54-12.71-12.31-7.13,7.82-18.59,19.4-10.79,7.29,4.92,19.17,17.47,45.54,20.66,18.27,2.22,24.51-8.41,29.12-19.4-4.33-4.19-8.68-8.35-13.06-12.5-2.47,9.43-12.86,18.26-26.57,14.05-8.35-2.57-28.15-11.92-28.62-24.52,13.69-43.7,17.72,22.27,36.76,12.84,4.69-2.32,6.85-11.27-2.92-21.92-.67-.74-1.29-1.44-1.85-2.13-3.69-2.99-7.94-5.47-12.2-7.53-9.06-4.38-18.25-8.81-27.84-11.72-1.76-.54-3.48-1.14-5.17-1.78,1.49,7.99,2.47,13.53-3.27,29.2-2.61,7.14-18.54,10.76-26.12,10.02-13.07-1.27-17.04-19.88-3.94-18.93,4.72.34,19.43,5.05,20.39-9.6.36-5.57.57-11.23.26-16.72-5.34-3.09-10.37-6.71-15.19-10.76-9.38-7.88-18.7-15.82-28.13-23.64-2.44-2.03-5.05-5.1-7.77-5.31-2.86-.22-5.71-.47-8.57-.65-2.2-.21-4.4-.3-6.61-.3-6.5,0-12.97.81-19.35,3.7-10.09,4.56-20.48,8.92-31.2,11.52-4.57,1.11-8.54,2.75-12.08,4.98-.06.56-.15,1.16-.27,1.76-.04.2-.09.41-.12.61-.09.43-.18.85-.28,1.29-.06.24-.12.48-.18.73-.11.44-.24.89-.36,1.34-.07.24-.13.47-.21.72-.16.54-.33,1.1-.51,1.67-.05.15-.09.3-.14.46-.23.72-.47,1.45-.73,2.2-.09.29-.2.6-.3.89-.17.49-.34.99-.52,1.5-.17.5-.35,1.01-.53,1.52v.02h0c-2.89,8.25-6.19,17.57-6.25,25.88-.21,31.33-2.85,43.17,10.16,56.88,17.86,18.83,52.96,2.39,45.99-13.93-10.99-25.69-20.55-34.22-8.43-49.82,14.39-18.52,7.2-29.54,16.91-44.39,8.37-12.79,19.28,2.26,15,13.19-5.34,13.63-15.37,16.16-20.3,42.29-5.05,26.81,26.77,44.83,12.81,56.54-14.36,12.05-25.82,16.04-40.7,18.87-12.65,2.41-15.63-3.29-33.65-16.19-9.71-6.95-9.03-19.09-11-41.73,1.41-11.73,2.23-21.61,2.78-29.92h0c.06-.86.11-1.7.17-2.54,0-.11,0-.22.02-.33.05-.72.09-1.42.13-2.11,0-.14.02-.28.03-.43.04-.65.08-1.3.11-1.93,0-.15.02-.3.03-.45.05-.73.09-1.46.12-2.16-4.51,5.66-9.09,11.27-13.69,16.85-.42.5-.81,1.01-1.2,1.53-3.14,4.18-5.37,8.68-7.04,13.75-1.46,4.46-3.56,9.2-6.61,12.67-.31.35-.63.71-.96,1.03-6.35,6.24-9.41,14.12-13.21,21.65-.66,1.31-1.27,2.64-1.87,3.99-2.42,5.45-4.42,11.1-7.07,16.43-.59,1.19-1.17,2.38-1.75,3.57-3.18,6.53-6.21,13.1-8.81,19.79-2.17,5.6-4.02,11.29-5.38,17.13-1.61,6.94-2.55,14.08-2.45,21.54.02,1.57-.39,3.17-.76,4.73-2.05,8.49-4.06,16.98-6.11,25.48-.98,4.1-1.98,8.2-2.98,12.3-1.46,5.97-2.95,11.93-4.48,17.89l-2.95,10.69c-1.96,6.63-4.14,13.21-6.46,19.72-.02.04-.03.09-.05.13-1.81,5.07-3.68,10.11-5.39,15.18-3.01,8.96-5.5,18.05-6.22,27.7-.38,5.13-2.64,10.25-4.65,15.12-2.23,5.4-4.79,10.71-7.83,15.68-3.31,5.39-4.72,11.18-2.47,16.77,3.26,8.13,1.8,15.59-.82,23.27-.65,1.91-1.28,3.83-1.91,5.74-3.21,9.69-6.28,19.42-9.88,28.95-.46,1.21-.93,2.43-1.4,3.65-2.93,7.6-5.94,15.18-8.65,22.86l-.04.06-.09.3c-.19.53-.38,1.05-.56,1.57-1.75,5.07-3.31,10.2-4.63,15.42-.24.93-.49,1.85-.7,2.78-1.21,5.27-2.27,10.53-2.96,15.79-.25,1.89-.45,3.79-.59,5.68v11.53c.44,5.37,1.53,10.75,3.56,16.12v.03l2.71,7.48c1.05,3.97,1.58,8.17,2.1,12.25.42,3.26.9,6.51,1.42,9.74,2.5,15.67,6.14,31.07,10.77,46.29.07.21.1.42.17.63l1.44,6.17c1.01,5.69,1.24,11.5,1.11,17.42,0,.33,0,.65-.02.98-.33,11.59-.51,23.19-.52,34.79,0,6.01.05,12.04.14,18.05.05,3.14.09,6.3.17,9.44.09,3.07.53,5.88,1.31,8.44,1.87,6.14,5.66,10.75,10.97,13.66,3.93,2.15,8.68,3.39,14.12,3.57.57.02,1.13.03,1.7.04,3.69.08,7.4,0,11.1,0h429c-1.82-2.19-1.88-4.97,1.15-8.18,12.13-12.9,26.49-4.79,27.7,4.35,2.1-1.43,4.05-3.25,5.86-5.49,1.82-2.24,3.67-4.47,5.51-6.7-.47-.63-.97-1.27-1.5-1.93-6.39-7.97-2.75-12.18,5.7-12.86,2.92.03,5.15.59,6.93,1.52,5.4-6.36,10.81-12.73,16.08-19.2.02-.03.04-.05.06-.08-4.81,2.71-9.42,5.42-17.55,3.03-11.72-3.45-23.29-2.81-30.18,7.26-9.02,13.16-22.99,7.71-33.81,21.28-10.77,13.51-43.13,8.45-61.61,5.72-17.83-2.64-11.52-21.14-36.96-25.98-7.54-1.43-17.82,1.25-25.02-8.29-20.5-27.13-21.61-28.15-23.37-33.32-3.97-11.61,12.55-11.35,19.32-.03,4.88,8.15,7.76,23.3,30.02,29.89,16.67,4.93,25.68,3.41,30.97,14.08,8.09,16.35,24.59,15.52,44.53,12.91,18.08-2.37,22.85-16.14,40.35-24.91,10.38-5.2,12.16-15.29,23.77-14.17,36,3.47,48.83-2.08,52.15-35.5-1.91-15.29-4.02-20.35,3.24-26.14,9.92-7.91,17.27-14.46,22.79-20.12-.48-5.2-.94-10.4-1.61-15.57h-.05ZM486.7,239.85c2.74-5.14,9.11-12.31,3.95-25.13-2.88-7.16-4.78-13.28,2.11-15.36,7.73-2.33,11.68,2.71,15.14,9.82,13.74,28.22,9.96,21.61-2.59,31.2-13.07,9.98,9.3,23.48,19.81,9.57,5.77-7.62,6.71-14.94,29.51-4.68,15.53,6.99-22.56,20.1-36.58,21.67-17.83-1.32-40.37-10.16-31.36-27.09h0ZM289.41,54.58c-4.73,10.66-15.7,15.63-16.2,35.57-.53,21.08,7.57,23.19,9.77,33.27,2.82,12.91-15.62,11.98-19.06-.13-8.65-30.38,2.65-59.37,6.6-74.27,3.43-12.9,25.17-8.63,18.89,5.56ZM347.99,38.42c42.71,20.83,18.25,59.12-7.85,14.49-3.35-5.72-1.13-15.14,7.85-14.49ZM327.96,76.72c7.38-11.01,17.56,4.02,14.34,12.33-11.68,30.14,11.93,26.51,23.35,37.49,9.93,9.57-20.48,16.63-28.36.95-5.7-11.33-23.45-29.69-9.31-50.78h0ZM550.08,406.63c14.63,16.03,50.66,40.29,51.12,40.64,13.56,10.38,5.58,19.91-1.82,19.75-12.24-.1-7.33-15.17-56.36-42.51-19.68-10.98-2.86-28.74,7.06-17.87ZM399.76,438.44c8.83-1.77,9.67-10.45,4.59-15.84-17.12-18.19-.54-17.48,4-13.9,18.73,14.81,25.81,18.69,17.17,27.9-30.01,32-63.72,15.59-48.76,7.85,5.15-2.67,17.42-4.88,23-6h0ZM367.4,432.75c-3.62-1.28-7.35-2.07-10.52-3.87-11.58-6.55,11.76-23.34,23.94-12.17,4.28,3.92,4,9.48-1.18,12.14-3.64,1.88-7.89,2.57-12.24,3.9ZM324.49,406.35c5.21-18.61,24.43-13.55,32.45-16.1,28.76-9.17-27.93-40.26,5.53-40.52,8.92-.08,10.47,7.67,12.15,12.12,6.84,17.99,11.01,27.2,11.13,31.99h0c.16,6.39-6.89,4.94-24.48,5.93-31.06,1.74-18.96,29.36-46.68,30.97-4.19-2.51-4.56-7.7-3.6-12.82,6.25-.76,11.24-3.54,13.5-11.56h0ZM328.91,309.52c-11.41-4.71-3.76-19.76,8.44-18.76,21.88,0,9.95,26.35-8.44,18.76ZM301.65,202.79c5.42-4.45,14-5.05,18.31.16,9.88,11.92,23.31,19.35,34.82,29.15,15.19,12.92,29.95,16.81,49.12,6.34,16.03-8.76,12.56-31.68-2.52-38.36-28.65-12.69-34.68-14.53-43.44-10.96-6.03,2.46-5.2,9.46-.9,11.44,5.22,2.42,20.32,5.95,28.41,8.94,17.21,6.38,5,28.71-15.6,13.38-35.58-26.49-41.34-28.5-26.99-38.26,15.16-10.32,26.75-12.44,45.92-4.17,46.55,20.11,38.45,10.94,43.13,47.75-.1,8.92-3.55,15.91-12.06,19.16-61.2,23.39-33.79,16.33-110.95-31.52-3.8-2.36-15.61-6.22-7.27-13.06h0ZM254.98,223.87c24.05-4.36,27.77-5.3,36.37-.63,30.74,16.7,29.59,28.75,59.11,40.61,16.78,6.74,12.36,16.22,1.74,16.81-8.48.1-29.92-15.45-37.54-20.81-8.51-5.99-13.44-20.5-34.03-26.73-14.8-4.47-21.39,4.8-28.92,8.04-20.48,8.82-23.96-12.37,3.29-17.3h0ZM287.1,265.04c-10.71,8.83-28.27,4.7-28.22-7.43.03-8.44,14.45-8.64,12.5-8.49,11.63-.46,22.54,10.29,15.72,15.92h0ZM250.6,172.19c6.45,8.1-6.41,11.1-9.69,12.46-28.58-.63-13.08-41.05,9.69-12.46ZM246.23,290.31c-9.39-9.1-23.07-12.43-27.87-21.14-5.19-9.42-1.66-13.89,8.93-15.77,18.86,2.45,6.23,28.87,40.77,30.68,30.85,1.63,30.4-17.47,44.42-7.96,9.76,6.64-4.1,16.03-13.63,16.12-25.61.25-33.95,16.15-52.62-1.95h0ZM283.75,319.15c-3.82-9.97,5.28-10.74,13.42-13.1,35.23,3.97-5.21,34.58-13.42,13.1ZM328.94,484.79c-3.87,7.41-19.47,7.83-21.75-6.01-1.9-11.58-11.2-15.46-14.71-18.97-11.76-11.79,14.96-24.04,19.53-7.58,5.97,21.51,21.3,24.18,16.92,32.56h0ZM338.21,437.96c26.56-4.66,3.8,28.88,31.97,29.79,78.64,2.53,63.95-29.26,85.3-31.12,96.89-8.41,45.59-16.8,95.31,11.16,11.43,6.42,20.62,15.63,29.62,24.94,17.14,17.73-15.43,58.14,10.3,59.71,21.29,1.3,1.12-51.53,18.45-52.43,9-.46,15.04,8.76,12.75,14.24-8.53,20.48,2,44.84-18.33,49.23-12.78,2.76-23.42,5.24-28.66-4.53-14.12-26.36-15.4-29.32-9.83-37.16,6.09-8.59,6.74-17.08-.6-24.75-31.09-32.41-54.44-31.47-93.3-26.07-20.2,2.8-25.04,20.55-52.22,25.6-32.97,6.12-35.46,2.59-56.55,2.31-15.78-.22-19.1-8.46-30.32-28.17-4.06-7.13-1.95-11.33,6.1-12.75h0ZM505.94,512.61c-22.52-1.88-20.4,14.19-41.82,11.9-14.17-1.52-29.85,4.84-44.88,5.14-9.9.2-14.66-9.91-7.02-12.01,19.81-5.46,28.26-.02,49.98-6.83,24.26-7.61,31.73-20.43,58.72-9.03,38.39,16.21,18.57,11.31,39.9,42.67,5.22,7.67,1.98,20.12-6.07,25.13-6.64,4.14-19.99-4.17-14.28-12.66,12.15-18.09-12.25-42.43-34.52-44.28v-.02ZM494.87,541.17c-11.77-14.43,26.06-19.16,29.79,2.49,2.82,16.39-18.73,11.07-29.79-2.49ZM547.81,696.62c-21.33,24.73-63.38-4.76-12.61-11.23,7.19,2.24,18.87,3.98,12.61,11.23ZM553.99,676.97c-13.14-10.26-32.4-5.33-44.45,1.86-13.8,8.22-24.52,4.93-39.49-.88-11.49-4.46-13.7-11.49-19.64-21.74-17.39-30.06-37.33-9.89-54.99-21.02-22.45-14.17-30.72-32.54-37.02-56.62-8.32-31.8-23.13-24.12-23.78-65.95-.64-41.31,80.62-2.98,122.45-34.53,20.12-15.17,56.78-19.3,86.17-.29,13.23,8.55,11.12,26.9-10.13,12.93-39.71-26.09-64.63,4.5-87.67,8.7-52.17,9.54-62.79,1.08-84.33,4.94-18.84,3.38-11.12,31.22.89,46.12,4.14,5.14,14.29,11.58,12.09,26.75-.58,3.99,7.16,25.49,18.73,37.79,14.13,15.01,32.16,7.6,52.57,16.16,14.08,5.91,16.28,14.66,25.34,28.26,10.04,15.06,33.96,11.66,45.11,3.52,14.08-10.28,26.24-4.89,50.18,2.87,20.5,6.64,3.95,23.63-12.04,11.15h0ZM402.13,567.18c21.82,1.28-1.19,23.32,28.24,32.01,19.56,5.78,40.3,6.38,59.99,26.36,21.78,22.1,28.87,21.73,6.43,30.04-20.95-1.88-5.6-28.84-56.49-41.18-18.08-4.38-31.38-1.88-38.51-16.75-7.25-15.14-15.92-31.42.33-30.48h0ZM608.68,663.94c0,.45-14.98,1.52-23.3-4.01-30.41-20.21-46.86-7.89-61.67-25.48-48.63-57.75-82.45-33.53-91.84-58.81-4.23-11.39,14.49-15.32,22.1-5.28,16.44,21.69,44.3,10.4,70.44,42.05,16.73,20.26,32.83,23.73,75,35.7,35.55,10.09,29.78-14.03,13.97-16.3-9.69-1.39-4.63,7-54.69-12.17-10.8-4.13-15.44-14.81-33.53-29.43-22.33-18.03-42.11-11.28-57.16-31.19-10.17-13.45-24.79-7.15-39.74-4.91-13.84,2.08-18.41.48-33.34.06-18.77-.54-39.15-46.07-9.72-37.09,15.1,4.6-5.35,21.36,16.49,24.79,34.45,5.43,66.28-14.09,77.1,5.42,9.99,18,31.13,18.65,34.52,19.97,50.76,19.92,33.7,39.94,71.8,47.95,41.73,8.77,53.31,3.22,53.18,21.17-.2,28.23-10.83,27.55-29.61,27.55h0Z"/>
        <path class="st0" d="M625.01,572.87c-10.07,3.53-12.52,1.73-31.79,1.13-5.81-.18-9.94,6.17-5.21,11.9,5.71,6.92,9.75,5.51,24.45,5.51,5.86-.28,12.06.25,17.84-1.03,19.4-4.26,37.3-24.22,38.62-54.31.27-6.29,1.39-10.95,3-14.31-.2-1.41-.39-2.83-.6-4.24-.82-5.74-1.34-11.36-.63-17.06-35.8,4.62-3.18,57.49-45.7,72.41h0Z"/>
        <path class="st0" d="M577.75,330.82c-16.39-10.67-26.55-10.11-43.18-5.7-23.98,6.36-20.95,46.04-51.45,54.22-18.89,5.07-29.14,8.79-40.79,2.02-22.11-12.85-27.37-39.48-3.95-47.85,11.88-4.24,28.78-8.47,33.01-10.57,9.42-4.7,4.74-19.01-4.25-19.78-10.17-.88-7.16,4.76-29.73,10.87-29.03,7.85-37.32,31.22-28.5,51.12,24.43,55.03,89.57,38.64,105.03,16.31,8.86-12.8,15.7-27.33,15.96-27.81,16.15-30.28,46.8-9.99,69.97,15.32,17.74,19.39,27.67,23.6,40.92,25.8-1.97-6.28-4.71-12.23-8.02-18.01-17.19-6.91-15.53-20.22-55.01-45.92h0Z"/>
      </g>
      <g>
        <g>
          <path class="st0" d="M37.32,822.17h25.12c3.47,0,8.46.53,12.06,3.93,1.14,1.14,3.53,4.06,3.53,9.59,0,4.26-1.47,6.93-3.13,8.73-1.14,1.14-2.66,2.2-4.59,2.79v.27c2.33.6,3.73,1.8,4.73,3.07,1.93,2.46,1.87,4.93,1.93,7.79l.13,3.93c0,2.26.07,4.13,1.8,6.53h-12.93c-1.4-1.93-1.47-3.33-1.67-5.4l-.2-3.86c-.07-1.87,0-4.13-1.6-5.73-1.34-1.34-3.8-1.67-5.66-1.67h-6.72v16.66h-12.79v-46.63h0ZM50.1,843.02h8.93c1.67,0,3.4-.4,4.66-1.47.8-.73,1.73-2.06,1.73-4.2s-.93-3.2-1.67-3.8c-1.27-.99-3.13-1.06-4.74-1.06h-8.93v10.53h0Z"/>
          <path class="st0" d="M117.86,840.22v9.79h-21.78v8.06h25.65v10.73h-38.37v-46.63h37.78v10.66h-25.05v7.4h21.78Z"/>
          <path class="st0" d="M168.69,851.94c-.73,7.26-4.59,11.59-5.4,12.39-4.59,4.79-11.06,5.8-16.38,5.8-5.6,0-11.99-1-16.99-6.13-2-2.2-6.53-7.66-6.53-18.72,0-8.86,3.07-14.79,6.33-18.19,5.07-5.2,11.79-6.19,16.73-6.19,8.73,0,13.66,2.93,16.53,5.6,2.74,2.73,4.93,6.93,5.27,11.99h-12.46c-.27-1.67-.94-3.4-1.93-4.46-1.8-2.06-4.39-2.4-6.46-2.4-2.33,0-4.79.33-6.87,2.46-3.4,3.4-3.47,9.93-3.47,11.53,0,5.6,1.6,9.26,3.8,11.33,1.93,1.8,4.2,2.4,6.8,2.4s4.59-.8,5.86-1.93c1.53-1.34,2.4-3.4,2.59-5.46h12.6,0Z"/>
          <path class="st0" d="M214.12,851.28c0,4.53-.66,8.67-3.8,12.46-4,4.79-10.19,6.39-17.12,6.39-5.53,0-12.6-1.34-16.53-5.4-4.06-4.06-4.33-10.19-4.33-13.46v-29.11h12.79v27.85c0,2,.07,5.33,2,7.46,1.07,1.14,2.86,2.2,6.06,2.2s5-1.07,6.06-2.2c1.87-2.06,2.06-5,2.06-7.46v-27.85h12.79v29.11h0Z"/>
          <path class="st0" d="M220.79,822.17h25.12c3.47,0,8.46.53,12.06,3.93,1.14,1.14,3.53,4.06,3.53,9.59,0,4.26-1.47,6.93-3.13,8.73-1.14,1.14-2.66,2.2-4.59,2.79v.27c2.33.6,3.73,1.8,4.73,3.07,1.93,2.46,1.87,4.93,1.93,7.79l.13,3.93c0,2.26.07,4.13,1.8,6.53h-12.93c-1.4-1.93-1.47-3.33-1.67-5.4l-.2-3.86c-.07-1.87,0-4.13-1.6-5.73-1.34-1.34-3.8-1.67-5.66-1.67h-6.72v16.66h-12.79v-46.63h0ZM233.58,843.02h8.93c1.67,0,3.4-.4,4.66-1.47.8-.73,1.73-2.06,1.73-4.2s-.93-3.2-1.67-3.8c-1.27-.99-3.13-1.06-4.74-1.06h-8.93v10.53h0Z"/>
          <path class="st0" d="M277.02,853.54c-.07,1.6.46,3.86,1.6,5.13,1.27,1.4,3.6,2,6.26,2,.53,0,3.53-.13,5.33-1.2,1.27-.73,2.2-2.13,2.2-3.93,0-1.27-.46-2.46-2.06-3.47-.99-.66-4.33-1.4-5-1.6l-4.79-1.06c-3.8-.94-8.52-1.73-11.53-4.59-2.06-1.87-3.73-5.07-3.73-9.13,0-2.59.73-7.2,5.33-10.73,4.26-3.4,9.46-4.06,13.92-4.06,2.66,0,9,.13,13.26,3.33,2.4,1.87,5.13,5.53,5.46,11h-12.06c-.07-2.13-1.27-3.27-1.73-3.6-1.53-1.2-4.06-1.27-5-1.27-1.27,0-3.27.2-4.79,1.27-1.14.8-1.67,1.87-1.67,2.73,0,.99.4,2.2,1.27,2.93.86.8,2.46,1.07,7.2,2.13l5.27,1.2c2.79.73,6.8,2.13,9.26,4.2,2.33,2.06,4,5,4,9.53,0,5.33-2.06,8.59-4.53,10.93-4.87,4.46-11.99,4.93-15.99,4.93-4.79,0-11.33-.87-15.59-4.93-2.59-2.59-4.73-6.59-4.73-11.72h12.86-.03Z"/>
          <path class="st0" d="M348.9,827.23c2.74,2.74,6.53,8.46,6.53,18.52,0,8.86-3.07,14.59-6.8,18.26-5.13,4.93-11.66,6.13-17.26,6.13-5.2,0-11.72-.73-17.19-6.06-3.8-3.67-6.93-9.66-6.93-18.72s3.27-14.79,6.46-17.98c5.46-5.6,12.86-6.53,17.52-6.53,9.26,0,14.59,3.33,17.65,6.39h.02ZM324.18,834.35c-3.07,3.27-3.27,8.8-3.27,11.19,0,3.47.4,8.19,3.27,11.06,2.06,2.33,4.66,2.8,7.13,2.8,2.06,0,4.79-.46,7.13-2.8,2.59-2.73,3.33-7.46,3.33-11.26,0-4.79-.99-8.73-3.33-11.06-2.06-2.13-4.53-2.73-7.13-2.73s-5.2.73-7.13,2.79Z"/>
          <path class="st0" d="M370.02,853.54c-.07,1.6.46,3.86,1.6,5.13,1.27,1.4,3.6,2,6.26,2,.53,0,3.53-.13,5.33-1.2,1.27-.73,2.2-2.13,2.2-3.93,0-1.27-.46-2.46-2.06-3.47-.99-.66-4.33-1.4-5-1.6l-4.79-1.06c-3.8-.94-8.52-1.73-11.53-4.59-2.06-1.87-3.73-5.07-3.73-9.13,0-2.59.73-7.2,5.33-10.73,4.26-3.4,9.46-4.06,13.92-4.06,2.66,0,9,.13,13.26,3.33,2.4,1.87,5.13,5.53,5.46,11h-12.06c-.07-2.13-1.27-3.27-1.73-3.6-1.53-1.2-4.06-1.27-5-1.27-1.27,0-3.27.2-4.79,1.27-1.14.8-1.67,1.87-1.67,2.73,0,.99.4,2.2,1.27,2.93.86.8,2.46,1.07,7.2,2.13l5.27,1.2c2.79.73,6.8,2.13,9.26,4.2,2.33,2.06,4,5,4,9.53,0,5.33-2.06,8.59-4.53,10.93-4.87,4.46-11.99,4.93-15.99,4.93-4.79,0-11.33-.87-15.59-4.93-2.59-2.59-4.73-6.59-4.73-11.72h12.86-.03Z"/>
          <path class="st0" d="M426.98,868.8h-12.79v-46.63h12.79v16.79h14.99v-16.79h12.79v46.63h-12.79v-19.19h-14.99v19.19Z"/>
          <path class="st0" d="M474.2,822.17v46.63h-12.79v-46.63h12.79ZM478.27,809.84l-7.26,8.8h-8.86l4.53-8.8h11.6Z"/>
          <path class="st0" d="M502.59,822.17c4.59,0,11.13.6,16.12,5.4,4.26,4.06,6.19,10.6,6.19,17.79,0,8.26-2.66,14.4-6.39,17.92-5.13,4.93-11.66,5.53-16.92,5.53h-20.72v-46.63h21.73ZM493.59,858.01h6.13c2.06,0,5.73-.2,8.26-2.73,3.07-2.94,3.2-7.73,3.2-9.93s-.2-7.2-3.07-10.06c-2.46-2.46-5.86-2.46-8.13-2.46h-6.39v25.18h0Z"/>
          <path class="st0" d="M529.57,822.17h25.12c3.47,0,8.46.53,12.06,3.93,1.14,1.14,3.53,4.06,3.53,9.59,0,4.26-1.47,6.93-3.13,8.73-1.14,1.14-2.66,2.2-4.59,2.79v.27c2.33.6,3.73,1.8,4.73,3.07,1.93,2.46,1.87,4.93,1.93,7.79l.13,3.93c0,2.26.07,4.13,1.8,6.53h-12.93c-1.4-1.93-1.47-3.33-1.67-5.4l-.2-3.86c-.07-1.87,0-4.13-1.6-5.73-1.34-1.34-3.8-1.67-5.66-1.67h-6.72v16.66h-12.79v-46.63h0ZM542.36,843.02h8.93c1.67,0,3.4-.4,4.66-1.47.8-.73,1.73-2.06,1.73-4.2s-.94-3.2-1.67-3.8c-1.27-.99-3.13-1.06-4.73-1.06h-8.93v10.53h0Z"/>
          <path class="st0" d="M588.39,822.17v46.63h-12.79v-46.63h12.79Z"/>
          <path class="st0" d="M638.36,851.94c-.73,7.26-4.59,11.59-5.4,12.39-4.59,4.79-11.06,5.8-16.39,5.8-5.6,0-11.99-1-16.99-6.13-2-2.2-6.53-7.66-6.53-18.72,0-8.86,3.07-14.79,6.33-18.19,5.07-5.2,11.79-6.19,16.73-6.19,8.73,0,13.66,2.93,16.53,5.6,2.73,2.73,4.93,6.93,5.27,11.99h-12.45c-.27-1.67-.94-3.4-1.93-4.46-1.8-2.06-4.39-2.4-6.46-2.4-2.33,0-4.8.33-6.87,2.46-3.4,3.4-3.47,9.93-3.47,11.53,0,5.6,1.6,9.26,3.8,11.33,1.93,1.8,4.2,2.4,6.8,2.4s4.59-.8,5.86-1.93c1.53-1.34,2.4-3.4,2.59-5.46h12.6,0Z"/>
          <path class="st0" d="M681.93,827.23c2.73,2.74,6.53,8.46,6.53,18.52,0,8.86-3.07,14.59-6.8,18.26-5.13,4.93-11.66,6.13-17.26,6.13-5.2,0-11.72-.73-17.19-6.06-3.8-3.67-6.93-9.66-6.93-18.72s3.27-14.79,6.46-17.98c5.46-5.6,12.86-6.53,17.52-6.53,9.26,0,14.59,3.33,17.65,6.39h.02ZM657.21,834.35c-3.07,3.27-3.27,8.8-3.27,11.19,0,3.47.4,8.19,3.27,11.06,2.06,2.33,4.67,2.8,7.13,2.8,2.06,0,4.79-.46,7.13-2.8,2.59-2.73,3.33-7.46,3.33-11.26,0-4.79-1-8.73-3.33-11.06-2.06-2.13-4.53-2.73-7.13-2.73s-5.2.73-7.13,2.79Z"/>
          <path class="st0" d="M703.04,853.54c-.07,1.6.46,3.86,1.6,5.13,1.27,1.4,3.6,2,6.26,2,.53,0,3.53-.13,5.33-1.2,1.27-.73,2.2-2.13,2.2-3.93,0-1.27-.46-2.46-2.06-3.47-.99-.66-4.33-1.4-5-1.6l-4.79-1.06c-3.8-.94-8.52-1.73-11.53-4.59-2.06-1.87-3.73-5.07-3.73-9.13,0-2.59.73-7.2,5.33-10.73,4.26-3.4,9.46-4.06,13.92-4.06,2.66,0,9,.13,13.26,3.33,2.4,1.87,5.13,5.53,5.46,11h-12.06c-.07-2.13-1.27-3.27-1.73-3.6-1.53-1.2-4.06-1.27-5-1.27-1.27,0-3.27.2-4.8,1.27-1.14.8-1.67,1.87-1.67,2.73,0,.99.4,2.2,1.27,2.93.87.8,2.46,1.07,7.2,2.13l5.27,1.2c2.79.73,6.8,2.13,9.26,4.2,2.33,2.06,4,5,4,9.53,0,5.33-2.06,8.59-4.53,10.93-4.87,4.46-11.99,4.93-15.99,4.93-4.8,0-11.33-.87-15.59-4.93-2.59-2.59-4.73-6.59-4.73-11.72h12.86-.02Z"/>
          <path class="st0" d="M62.76,885.1h13.79l-16.26,29.64v16.99h-12.79v-16.99l-16.53-29.64h14.05l8.86,19.52,8.86-19.52h0Z"/>
          <path class="st0" d="M132.38,914.88c-.73,7.26-4.59,11.59-5.4,12.39-4.59,4.79-11.06,5.8-16.38,5.8-5.6,0-11.99-1-16.99-6.13-2-2.2-6.53-7.66-6.53-18.72,0-8.86,3.07-14.79,6.33-18.19,5.07-5.2,11.79-6.19,16.73-6.19,8.73,0,13.66,2.93,16.53,5.6,2.74,2.73,4.93,6.93,5.27,11.99h-12.46c-.27-1.67-.94-3.4-1.93-4.46-1.8-2.06-4.39-2.4-6.46-2.4-2.33,0-4.79.33-6.87,2.46-3.4,3.4-3.47,9.93-3.47,11.53,0,5.6,1.6,9.26,3.8,11.33,1.93,1.8,4.2,2.4,6.8,2.4s4.59-.8,5.86-1.93c1.53-1.34,2.4-3.4,2.59-5.46h12.6,0Z"/>
          <path class="st0" d="M177.82,914.22c0,4.53-.66,8.67-3.8,12.46-4,4.79-10.19,6.39-17.12,6.39-5.53,0-12.6-1.34-16.53-5.4-4.06-4.06-4.33-10.19-4.33-13.46v-29.11h12.79v27.85c0,2,.07,5.33,2,7.46,1.07,1.14,2.86,2.2,6.06,2.2s5-1.07,6.06-2.2c1.87-2.06,2.06-5,2.06-7.46v-27.85h12.79v29.11h0Z"/>
          <path class="st0" d="M218.99,903.16v9.79h-21.78v8.06h25.65v10.73h-38.37v-46.63h37.78v10.66h-25.05v7.4h21.78Z"/>
          <path class="st0" d="M239.31,904.36v27.38h-12.79v-46.63h12.86l16.19,27.25h.2v-27.25h12.79v46.63h-12.86l-16.19-27.38h-.2Z"/>
          <path class="st0" d="M318.52,914.88c-.73,7.26-4.59,11.59-5.4,12.39-4.59,4.79-11.06,5.8-16.38,5.8-5.6,0-11.99-1-16.99-6.13-2-2.2-6.53-7.66-6.53-18.72,0-8.86,3.07-14.79,6.33-18.19,5.07-5.2,11.79-6.19,16.73-6.19,8.73,0,13.66,2.93,16.53,5.6,2.74,2.73,4.93,6.93,5.27,11.99h-12.46c-.27-1.67-.94-3.4-1.93-4.46-1.8-2.06-4.39-2.4-6.46-2.4-2.33,0-4.79.33-6.87,2.46-3.4,3.4-3.47,9.93-3.47,11.53,0,5.6,1.6,9.26,3.8,11.33,1.93,1.8,4.2,2.4,6.8,2.4s4.59-.8,5.86-1.93c1.53-1.34,2.4-3.4,2.59-5.46h12.6,0Z"/>
          <path class="st0" d="M329.84,931.74h-13.33l17.32-46.63h12.73l17.39,46.63h-13.33l-2.59-7.66h-15.65l-2.53,7.66h0ZM345.43,915.28l-5.2-15.85-5.27,15.85h10.47Z"/>
          <path class="st0" d="M375.14,916.48c-.07,1.6.46,3.86,1.6,5.13,1.27,1.4,3.6,2,6.26,2,.53,0,3.53-.13,5.33-1.2,1.27-.73,2.2-2.13,2.2-3.93,0-1.27-.46-2.46-2.06-3.47-.99-.66-4.33-1.4-5-1.6l-4.79-1.06c-3.8-.94-8.52-1.73-11.53-4.59-2.06-1.87-3.73-5.07-3.73-9.13,0-2.59.73-7.2,5.33-10.73,4.26-3.4,9.46-4.06,13.92-4.06,2.66,0,9,.13,13.26,3.33,2.4,1.87,5.13,5.53,5.46,11h-12.06c-.07-2.13-1.27-3.27-1.73-3.6-1.53-1.2-4.06-1.27-5-1.27-1.27,0-3.27.2-4.79,1.27-1.14.8-1.67,1.87-1.67,2.73,0,.99.4,2.2,1.27,2.93.86.8,2.46,1.07,7.2,2.13l5.27,1.2c2.79.73,6.8,2.13,9.26,4.2,2.33,2.06,4,5,4,9.53,0,5.33-2.06,8.59-4.53,10.93-4.87,4.46-11.99,4.93-15.99,4.93-4.79,0-11.33-.87-15.59-4.93-2.59-2.59-4.73-6.59-4.73-11.72h12.86-.03Z"/>
        </g>
        <g>
          <path class="st0" d="M37.88,809.3c-.18,0-.33-.06-.44-.16-.11-.1-.17-.25-.17-.43s.06-.32.17-.41c.11-.09.26-.13.44-.13h2.92v-12.63h.73l-3.04,2.07c-.14.09-.27.14-.4.13-.12,0-.23-.06-.31-.13s-.14-.18-.18-.29-.03-.23,0-.36c.04-.12.13-.23.27-.31l2.9-2.02c.14-.09.27-.15.38-.19.11-.04.24-.07.38-.07.15,0,.28.05.39.13.1.09.16.24.16.45v13.19h2.71c.2,0,.35.05.45.13.1.09.16.23.16.41,0,.2-.06.34-.16.44-.1.09-.26.15-.45.15h-6.9v.02Z"/>
          <path class="st0" d="M52.9,802.4c-.62,0-1.14-.12-1.58-.37-.44-.25-.78-.6-1.01-1.05s-.35-.99-.35-1.63.12-1.16.35-1.62c.24-.46.57-.82.98-1.08s.9-.39,1.45-.39c.4,0,.75.07,1.06.2s.57.32.79.58.38.55.49.91c.11.35.17.76.17,1.2,0,.11-.03.2-.09.26-.06.06-.14.09-.26.09h-4.41v-.55h4.29l-.2.16c0-.47-.07-.87-.21-1.2-.14-.33-.34-.59-.62-.77s-.61-.27-1.01-.27c-.45,0-.82.1-1.14.31-.31.21-.54.49-.7.85-.15.36-.24.79-.24,1.25v.06c0,.79.19,1.38.58,1.8.38.42.92.63,1.61.63.3,0,.6-.04.87-.12.28-.09.56-.22.82-.42.09-.06.16-.09.24-.09s.14.02.2.06c.06.04.09.09.11.15s.02.12,0,.2c-.03.07-.09.13-.16.19-.27.21-.58.37-.94.48-.37.11-.73.17-1.1.17h0Z"/>
          <path class="st0" d="M58.36,802.38c-.12,0-.22-.03-.28-.09-.07-.07-.09-.16-.09-.28v-5.32c0-.13.03-.23.09-.29s.16-.09.28-.09c.11,0,.2.03.27.09.06.07.09.16.09.29v1.09h-.12c.14-.48.41-.85.79-1.11.38-.27.83-.4,1.36-.41.09,0,.18,0,.25.06s.09.12.09.24-.02.2-.08.27-.15.09-.28.11h-.17c-.58.07-1.03.27-1.34.59s-.47.77-.47,1.32v3.17c0,.12-.03.22-.09.28-.06.07-.16.09-.28.09h0Z"/>
          <path class="st0" d="M77.89,809.46c-1.41,0-2.62-.3-3.63-.91-1-.61-1.78-1.48-2.32-2.61s-.8-2.48-.8-4.05c0-1.17.15-2.23.45-3.15.3-.93.74-1.72,1.33-2.37s1.3-1.15,2.14-1.5,1.79-.52,2.84-.52c.93,0,1.78.13,2.58.4s1.49.65,2.06,1.17c.14.12.23.26.27.4.04.14.05.27,0,.39s-.1.22-.2.29-.21.11-.35.1-.27-.08-.43-.2c-.53-.46-1.12-.8-1.77-1.02-.65-.23-1.36-.34-2.15-.34-1.16,0-2.14.25-2.95.75-.8.49-1.41,1.22-1.83,2.17-.42.96-.62,2.1-.62,3.44s.21,2.51.62,3.47,1.02,1.68,1.83,2.17c.8.49,1.79.75,2.95.75.77,0,1.48-.11,2.14-.35.65-.23,1.26-.58,1.8-1.04.15-.12.29-.19.43-.19s.25.04.34.11c.09.08.16.17.2.29s.05.24,0,.37-.11.25-.24.36c-.61.55-1.3.96-2.08,1.23s-1.66.41-2.61.41h0Z"/>
          <path class="st0" d="M93.46,809.46c-1.34,0-2.51-.31-3.5-.93-.99-.62-1.76-1.49-2.3-2.62s-.8-2.47-.8-4.03c0-1.17.15-2.23.45-3.15.3-.93.74-1.72,1.31-2.37.58-.65,1.27-1.15,2.09-1.5.81-.35,1.73-.52,2.76-.52,1.37,0,2.55.3,3.54.91.99.61,1.75,1.48,2.28,2.6s.8,2.46.8,4.02c0,1.17-.15,2.24-.46,3.17-.31.94-.75,1.73-1.33,2.4s-1.27,1.16-2.08,1.51c-.81.35-1.74.52-2.76.52h0ZM93.46,808.28c1.12,0,2.07-.26,2.85-.76.79-.5,1.38-1.23,1.79-2.18s.62-2.1.62-3.47c0-2.03-.45-3.6-1.37-4.71-.92-1.11-2.22-1.67-3.89-1.67-1.11,0-2.05.26-2.83.76-.79.5-1.38,1.23-1.79,2.18-.42.96-.62,2.1-.62,3.44,0,2.02.46,3.58,1.38,4.71.92,1.13,2.21,1.69,3.86,1.69h0Z"/>
          <path class="st0" d="M106.06,809.42c-.2,0-.35-.06-.45-.17s-.16-.27-.16-.48v-13.72c0-.23.05-.39.15-.5.09-.11.23-.17.4-.17.18,0,.31.03.4.09s.17.16.27.31l9.65,12.98h-.48v-12.76c0-.21.06-.37.16-.47s.26-.16.45-.16c.18,0,.32.06.43.16s.16.27.16.47v13.76c0,.21-.05.37-.13.48-.09.11-.22.17-.39.17-.15,0-.28-.03-.38-.09-.09-.07-.2-.16-.31-.3l-9.63-12.98h.46v12.74c0,.21-.06.37-.16.48s-.25.17-.43.17h0Z"/>
          <path class="st0" d="M129.56,809.46c-1.55,0-2.86-.29-3.92-.89s-1.87-1.46-2.42-2.59-.81-2.5-.81-4.09c0-1.17.15-2.23.46-3.15.31-.93.75-1.72,1.34-2.37.58-.65,1.3-1.15,2.14-1.5s1.81-.52,2.89-.52c.94,0,1.83.13,2.66.4s1.56.68,2.18,1.26c.12.11.2.23.23.35s.02.24-.02.36-.1.22-.2.29-.2.12-.31.12c-.12,0-.25-.04-.39-.13-.58-.52-1.2-.89-1.9-1.11-.69-.23-1.45-.34-2.27-.34-1.16,0-2.15.25-2.95.75-.81.49-1.43,1.22-1.85,2.17-.42.96-.63,2.1-.63,3.44,0,2.08.48,3.67,1.45,4.76s2.42,1.64,4.37,1.64c.73,0,1.43-.07,2.1-.21.67-.14,1.3-.33,1.88-.59l-.31.88v-5.56h-3.31c-.2,0-.35-.06-.45-.16s-.16-.24-.16-.41.06-.29.16-.39.26-.13.45-.13h3.88c.2,0,.34.06.45.16.09.1.14.25.14.43v5.64c0,.17-.03.31-.08.42-.05.11-.13.2-.27.26-.56.24-1.26.44-2.08.6-.83.16-1.64.24-2.42.24l-.02-.02Z"/>
          <path class="st0" d="M140.87,809.42c-.2,0-.35-.06-.46-.18-.11-.12-.17-.28-.17-.49v-13.57c0-.23.06-.39.18-.5.12-.11.27-.17.47-.17h4.93c1.56,0,2.77.36,3.61,1.09s1.26,1.76,1.26,3.11c0,.87-.19,1.61-.57,2.24s-.94,1.09-1.67,1.41c-.74.32-1.61.48-2.63.48l.23-.27h.29c.53,0,.99.14,1.39.42.4.28.76.74,1.08,1.36l2.23,4.13c.09.15.14.3.13.45,0,.14-.06.27-.16.36-.09.09-.23.13-.38.13-.18,0-.33-.04-.45-.12-.12-.09-.22-.2-.3-.36l-2.35-4.38c-.36-.67-.77-1.12-1.22-1.34-.45-.22-1.05-.32-1.81-.32h-3v5.85c0,.21-.06.38-.16.49s-.27.18-.49.18h.03ZM141.52,801.8h4.13c1.24,0,2.18-.27,2.8-.79s.94-1.3.94-2.32-.31-1.77-.94-2.3c-.63-.52-1.55-.79-2.8-.79h-4.13v6.18h0Z"/>
          <path class="st0" d="M156.92,809.3c-.23,0-.4-.07-.52-.19s-.19-.31-.19-.55v-13.33c0-.24.07-.42.19-.55.12-.12.3-.19.52-.19h7.93c.2,0,.34.05.45.15.09.09.14.23.14.4,0,.2-.05.34-.14.43-.09.09-.25.13-.45.13h-7.39v5.63h6.97c.2,0,.34.05.44.13.09.09.15.23.15.41s-.05.32-.15.42c-.09.09-.25.15-.44.15h-6.97v5.83h7.39c.2,0,.34.05.45.13.09.09.14.23.14.41s-.05.32-.14.42-.25.15-.45.15h-7.93v.02Z"/>
          <path class="st0" d="M174.79,809.46c-.67,0-1.33-.06-1.95-.17-.63-.11-1.21-.28-1.75-.51s-1.02-.51-1.46-.85c-.14-.09-.24-.21-.28-.35s-.06-.26-.02-.38.09-.22.19-.3c.09-.09.2-.13.32-.13s.26.04.4.13c.64.47,1.33.82,2.05,1.05.72.23,1.55.34,2.51.34,1.33,0,2.33-.26,2.99-.78s.99-1.19.99-2.04c0-.7-.24-1.24-.72-1.64-.48-.39-1.28-.7-2.39-.92l-2.12-.45c-1.33-.27-2.31-.71-2.95-1.34-.64-.63-.97-1.47-.97-2.52,0-.64.12-1.23.38-1.75.26-.52.61-.98,1.07-1.35.46-.38,1.01-.67,1.65-.87.63-.2,1.34-.3,2.11-.3.91,0,1.74.12,2.51.38.76.26,1.46.65,2.08,1.19.12.09.21.22.26.35.04.13.04.26,0,.38s-.1.22-.19.28-.19.1-.31.11c-.12,0-.26-.05-.4-.16-.59-.47-1.2-.82-1.84-1.04s-1.34-.32-2.11-.32-1.47.12-2.05.38-1.03.61-1.35,1.07-.48,1-.48,1.64c0,.73.23,1.31.67,1.74s1.16.75,2.16.95l2.14.44c1.41.29,2.46.73,3.14,1.31s1.02,1.37,1.02,2.39c0,.61-.12,1.15-.37,1.65-.25.49-.6.93-1.06,1.29-.46.36-1.01.64-1.67.82-.65.19-1.39.28-2.22.28h0Z"/>
          <path class="st0" d="M191.02,809.46c-1.34,0-2.51-.31-3.5-.93-.99-.62-1.76-1.49-2.3-2.62-.54-1.14-.81-2.47-.81-4.03,0-1.17.15-2.23.45-3.15.3-.93.74-1.72,1.31-2.37.58-.65,1.27-1.15,2.08-1.5s1.74-.52,2.76-.52c1.37,0,2.55.3,3.54.91s1.75,1.48,2.28,2.6.8,2.46.8,4.02c0,1.17-.15,2.24-.46,3.17s-.75,1.73-1.32,2.4c-.58.65-1.27,1.16-2.09,1.51-.81.35-1.74.52-2.76.52h.02ZM191.02,808.28c1.12,0,2.07-.26,2.85-.76.79-.5,1.38-1.23,1.79-2.18s.62-2.1.62-3.47c0-2.03-.45-3.6-1.37-4.71s-2.22-1.67-3.89-1.67c-1.11,0-2.05.26-2.83.76-.79.5-1.38,1.23-1.79,2.18-.42.96-.62,2.1-.62,3.44,0,2.02.46,3.58,1.38,4.71.93,1.13,2.21,1.69,3.86,1.69h0Z"/>
          <path class="st0" d="M211.06,809.3c-.2,0-.35-.06-.47-.18s-.18-.28-.18-.49v-13.55c0-.23.06-.39.17-.5s.27-.17.46-.17.37.06.48.17.17.28.17.5v13.07h7.22c.21,0,.37.05.47.15.1.09.16.24.16.42,0,.2-.06.34-.16.44-.1.09-.27.15-.47.15h-7.85Z"/>
          <path class="st0" d="M222.72,809.42c-.18,0-.32-.04-.43-.11s-.16-.19-.17-.32c0-.14.03-.29.09-.46l5.89-13.55c.09-.21.22-.36.36-.45.14-.09.28-.13.42-.13.17,0,.32.05.45.13.13.09.24.24.32.45l5.9,13.55c.09.17.12.32.11.46,0,.14-.06.25-.14.32-.09.08-.23.11-.41.11-.2,0-.35-.06-.47-.16s-.22-.25-.3-.43l-1.62-3.8.69.31h-9.08l.71-.31-1.62,3.8c-.09.21-.19.36-.3.45-.12.09-.26.13-.41.13ZM228.88,796.09l-3.57,8.39-.48-.26h8.12l-.44.26-3.59-8.39h-.04Z"/>
          <path class="st0" d="M243.2,809.42c-.21,0-.37-.06-.48-.18s-.17-.28-.17-.49v-13.09h-5.01c-.2,0-.35-.06-.46-.17-.11-.11-.17-.26-.17-.42,0-.18.06-.32.17-.42s.27-.15.46-.15h11.35c.2,0,.35.05.45.15s.16.24.16.42-.06.32-.16.43-.26.16-.45.16h-5.04v13.09c0,.21-.06.38-.16.49-.1.12-.27.18-.49.18h0Z"/>
          <path class="st0" d="M254.09,809.42c-.2,0-.35-.06-.46-.18-.11-.12-.17-.28-.17-.49v-13.69c0-.23.06-.39.17-.5.11-.11.27-.17.46-.17s.37.06.48.17.17.28.17.5v13.69c0,.21-.06.38-.16.49s-.27.18-.49.18h0Z"/>
          <path class="st0" d="M261.31,809.42c-.2,0-.35-.06-.45-.17s-.16-.27-.16-.48v-13.72c0-.23.05-.39.15-.5.09-.11.23-.17.4-.17.18,0,.31.03.4.09s.17.16.27.31l9.65,12.98h-.48v-12.76c0-.21.06-.37.16-.47s.26-.16.45-.16c.18,0,.32.06.43.16s.16.27.16.47v13.76c0,.21-.05.37-.13.48-.09.11-.22.17-.39.17-.15,0-.28-.03-.38-.09-.09-.07-.2-.16-.31-.3l-9.63-12.98h.46v12.74c0,.21-.06.37-.16.48s-.25.17-.43.17h0Z"/>
          <path class="st0" d="M284.25,809.46c-1.34,0-2.51-.31-3.5-.93-.99-.62-1.76-1.49-2.3-2.62s-.81-2.47-.81-4.03c0-1.17.15-2.23.45-3.15.3-.93.74-1.72,1.31-2.37.58-.65,1.27-1.15,2.08-1.5.81-.35,1.74-.52,2.76-.52,1.37,0,2.55.3,3.54.91s1.75,1.48,2.28,2.6.8,2.46.8,4.02c0,1.17-.15,2.24-.46,3.17s-.75,1.73-1.32,2.4c-.58.65-1.27,1.16-2.09,1.51-.81.35-1.74.52-2.76.52h.02ZM284.25,808.28c1.12,0,2.07-.26,2.85-.76.79-.5,1.38-1.23,1.79-2.18s.62-2.1.62-3.47c0-2.03-.45-3.6-1.37-4.71s-2.22-1.67-3.89-1.67c-1.11,0-2.05.26-2.83.76-.79.5-1.38,1.23-1.79,2.18-.42.96-.62,2.1-.62,3.44,0,2.02.46,3.58,1.38,4.71.93,1.13,2.21,1.69,3.86,1.69h0Z"/>
          <path class="st0" d="M295.5,809.42c-.18,0-.32-.04-.43-.11-.1-.08-.16-.19-.17-.32,0-.14.03-.29.09-.46l5.89-13.55c.09-.21.22-.36.36-.45s.28-.13.42-.13c.17,0,.32.05.45.13.13.09.24.24.32.45l5.9,13.55c.09.17.12.32.11.46,0,.14-.06.25-.14.32-.09.08-.23.11-.41.11-.2,0-.35-.06-.47-.16s-.22-.25-.3-.43l-1.62-3.8.69.31h-9.08l.71-.31-1.62,3.8c-.09.21-.19.36-.3.45-.12.09-.26.13-.41.13h0ZM301.65,796.09l-3.57,8.39-.48-.26h8.12l-.44.26-3.59-8.39h-.04Z"/>
          <path class="st0" d="M313.9,809.42c-.18,0-.32-.06-.43-.17-.1-.11-.16-.27-.16-.46v-13.78c0-.21.06-.37.16-.47s.24-.16.41-.16c.18,0,.32.04.42.1s.19.18.27.34l6,11.39h-.59l5.96-11.39c.09-.15.19-.27.28-.34s.23-.1.41-.1c.17,0,.3.06.41.16s.16.27.16.47v13.78c0,.2-.05.35-.15.46-.09.11-.25.17-.44.17s-.35-.06-.45-.17c-.1-.11-.16-.27-.16-.46v-12.74h.5l-5.63,10.65c-.07.14-.14.25-.23.31s-.2.1-.36.1c-.17,0-.29-.04-.39-.11s-.17-.18-.24-.3l-5.68-10.68h.5v12.76c0,.2-.05.35-.15.46-.09.11-.25.17-.44.17h0Z"/>
          <path class="st0" d="M333.9,809.3c-.23,0-.4-.07-.52-.19-.12-.12-.19-.31-.19-.55v-13.33c0-.24.07-.42.19-.55.12-.12.3-.19.52-.19h7.93c.2,0,.34.05.45.15.09.09.14.23.14.4,0,.2-.05.34-.14.43-.09.09-.25.13-.45.13h-7.39v5.63h6.97c.2,0,.34.05.44.13.09.09.15.23.15.41s-.05.32-.15.42c-.09.09-.25.15-.44.15h-6.97v5.83h7.39c.2,0,.34.05.45.13.09.09.14.23.14.41s-.05.32-.14.42-.25.15-.45.15h-7.93v.02Z"/>
          <path class="st0" d="M347.99,809.42c-.2,0-.35-.06-.46-.18s-.17-.28-.17-.49v-13.57c0-.23.06-.39.18-.5.11-.11.27-.17.47-.17h4.93c1.56,0,2.77.36,3.61,1.09.84.73,1.26,1.76,1.26,3.11,0,.87-.19,1.61-.57,2.24s-.94,1.09-1.67,1.41-1.61.48-2.63.48l.23-.27h.29c.53,0,.99.14,1.39.42.4.28.76.74,1.08,1.36l2.23,4.13c.09.15.14.3.13.45,0,.14-.06.27-.16.36-.09.09-.23.13-.38.13-.18,0-.33-.04-.45-.12s-.22-.2-.3-.36l-2.35-4.38c-.36-.67-.77-1.12-1.22-1.34-.45-.22-1.05-.32-1.8-.32h-3v5.85c0,.21-.06.38-.16.49-.1.12-.27.18-.49.18h.02ZM348.64,801.8h4.13c1.25,0,2.18-.27,2.8-.79s.94-1.3.94-2.32-.31-1.77-.94-2.3c-.63-.52-1.55-.79-2.8-.79h-4.13v6.18h0Z"/>
          <path class="st0" d="M363.96,809.42c-.2,0-.35-.06-.46-.18s-.17-.28-.17-.49v-13.69c0-.23.06-.39.17-.5.11-.11.27-.17.46-.17s.37.06.48.17.17.28.17.5v13.69c0,.21-.06.38-.16.49s-.27.18-.49.18Z"/>
          <path class="st0" d="M376.73,809.46c-1.41,0-2.62-.3-3.63-.91s-1.78-1.48-2.32-2.61-.81-2.48-.81-4.05c0-1.17.15-2.23.45-3.15.3-.93.74-1.72,1.33-2.37s1.3-1.15,2.14-1.5,1.79-.52,2.84-.52c.93,0,1.78.13,2.58.4s1.49.65,2.06,1.17c.14.12.23.26.27.4.04.14.05.27,0,.39s-.1.22-.2.29-.21.11-.35.1-.27-.08-.43-.2c-.53-.46-1.12-.8-1.77-1.02-.65-.23-1.36-.34-2.15-.34-1.16,0-2.14.25-2.95.75-.81.49-1.41,1.22-1.83,2.17-.42.96-.62,2.1-.62,3.44s.21,2.51.62,3.47,1.02,1.68,1.83,2.17c.81.49,1.79.75,2.95.75.77,0,1.48-.11,2.14-.35.65-.23,1.26-.58,1.8-1.04.15-.12.29-.19.43-.19s.25.04.34.11c.09.08.16.17.2.29.04.12.05.24,0,.37s-.11.25-.24.36c-.61.55-1.3.96-2.08,1.23s-1.66.41-2.61.41h0Z"/>
          <path class="st0" d="M385.8,809.42c-.18,0-.32-.04-.44-.11-.1-.08-.16-.19-.17-.32,0-.14.03-.29.09-.46l5.89-13.55c.09-.21.22-.36.36-.45s.28-.13.42-.13c.17,0,.32.05.45.13.13.09.24.24.32.45l5.89,13.55c.09.17.12.32.11.46,0,.14-.06.25-.15.32s-.23.11-.41.11c-.2,0-.35-.06-.47-.16s-.22-.25-.3-.43l-1.62-3.8.69.31h-9.08l.71-.31-1.62,3.8c-.09.21-.19.36-.3.45-.12.09-.26.13-.41.13h.03ZM391.94,796.09l-3.57,8.39-.48-.26h8.12l-.45.26-3.59-8.39h-.04,0Z"/>
          <path class="st0" d="M404.17,809.42c-.2,0-.35-.06-.45-.17-.1-.11-.16-.27-.16-.48v-13.72c0-.23.05-.39.15-.5.09-.11.23-.17.4-.17.18,0,.31.03.4.09s.17.16.27.31l9.65,12.98h-.48v-12.76c0-.21.06-.37.16-.47s.26-.16.45-.16c.18,0,.32.06.43.16s.16.27.16.47v13.76c0,.21-.05.37-.13.48-.09.11-.22.17-.39.17-.15,0-.28-.03-.38-.09-.09-.07-.2-.16-.31-.3l-9.63-12.98h.46v12.74c0,.21-.06.37-.16.48-.1.11-.25.17-.43.17h0Z"/>
          <path class="st0" d="M427.13,809.46c-1.34,0-2.51-.31-3.5-.93-.99-.62-1.76-1.49-2.3-2.62s-.81-2.47-.81-4.03c0-1.17.15-2.23.45-3.15.3-.93.74-1.72,1.31-2.37s1.27-1.15,2.08-1.5c.81-.35,1.74-.52,2.76-.52,1.37,0,2.55.3,3.54.91s1.75,1.48,2.28,2.6.8,2.46.8,4.02c0,1.17-.15,2.24-.46,3.17s-.75,1.73-1.33,2.4c-.58.65-1.27,1.16-2.08,1.51-.81.35-1.74.52-2.76.52h.02ZM427.13,808.28c1.12,0,2.07-.26,2.85-.76.79-.5,1.38-1.23,1.79-2.18s.62-2.1.62-3.47c0-2.03-.45-3.6-1.37-4.71s-2.22-1.67-3.89-1.67c-1.11,0-2.05.26-2.83.76s-1.38,1.23-1.79,2.18c-.42.96-.62,2.1-.62,3.44,0,2.02.46,3.58,1.38,4.71.93,1.13,2.21,1.69,3.86,1.69h0Z"/>
        </g>
        <g>
          <path class="st0" d="M39.68,970.31c-.33,0-.59-.09-.77-.27-.19-.18-.27-.45-.27-.77v-19.79c0-.35.09-.62.27-.8s.45-.27.77-.27h11.37c.27,0,.47.08.63.22s.23.34.23.59c0,.28-.08.5-.23.63-.15.13-.37.2-.63.2h-10.54v8.29h9.93c.27,0,.47.07.63.2s.23.33.23.6-.08.47-.23.62-.36.22-.63.22h-9.93v9.31c0,.7-.27,1.05-.83,1.05h0Z"/>
          <path class="st0" d="M58.98,970.37c-1,0-1.9-.2-2.7-.59s-1.42-.93-1.88-1.6c-.46-.68-.69-1.44-.69-2.28,0-1.11.27-1.98.83-2.62.56-.63,1.49-1.08,2.8-1.34,1.32-.26,3.13-.39,5.43-.39h1.33v1.39h-1.3c-1.85,0-3.3.08-4.33.23-1.04.15-1.76.44-2.17.84s-.62.98-.62,1.72c0,.93.32,1.68.96,2.25s1.5.86,2.59.86c.88,0,1.66-.21,2.33-.63.66-.42,1.19-1,1.59-1.74.39-.74.59-1.58.59-2.53v-3.51c0-1.37-.27-2.38-.83-3s-1.44-.94-2.65-.94c-.78,0-1.53.1-2.26.31s-1.51.53-2.33.98c-.23.12-.43.16-.6.12-.18-.04-.31-.12-.4-.25-.09-.12-.15-.27-.18-.45s0-.34.08-.51c.09-.16.23-.29.44-.4.86-.47,1.74-.82,2.63-1.06s1.76-.35,2.6-.35c1.21,0,2.22.21,3,.62s1.37,1.02,1.76,1.85c.38.82.57,1.88.57,3.17v8.82c0,.31-.08.55-.22.71-.14.16-.36.25-.64.25s-.51-.09-.68-.25c-.16-.16-.25-.4-.25-.71v-2.83h.31c-.19.8-.51,1.49-.98,2.06s-1.06,1.01-1.75,1.33c-.7.31-1.48.46-2.34.46h-.04Z"/>
          <path class="st0" d="M76.54,970.37c-1.46,0-2.71-.32-3.76-.98s-1.86-1.56-2.42-2.75c-.57-1.18-.84-2.55-.84-4.11,0-1.19.16-2.25.47-3.19.32-.94.78-1.73,1.39-2.39.61-.65,1.34-1.16,2.22-1.52.87-.36,1.86-.54,2.95-.54.76,0,1.54.13,2.34.39.8.26,1.53.68,2.19,1.28.14.12.24.27.27.44.04.16.03.32-.03.47-.06.15-.15.27-.27.37-.12.09-.27.14-.45.15-.17,0-.35-.07-.54-.23-.58-.47-1.16-.8-1.74-.97s-1.16-.27-1.71-.27c-.84,0-1.58.13-2.22.4-.63.27-1.17.65-1.62,1.17-.45.51-.78,1.15-1,1.89s-.34,1.61-.34,2.58c0,1.93.45,3.45,1.34,4.55.89,1.1,2.17,1.65,3.84,1.65.56,0,1.13-.09,1.71-.27.59-.17,1.16-.5,1.74-.98.18-.16.36-.24.54-.23.17,0,.32.07.45.15.12.09.21.22.27.37.05.15.06.31.02.47s-.13.31-.27.44c-.63.6-1.35,1.01-2.16,1.26s-1.58.37-2.34.37h0Z"/>
          <path class="st0" d="M89.86,970.37c-1.19,0-2.19-.22-2.97-.64-.8-.44-1.38-1.08-1.77-1.94s-.59-1.93-.59-3.21v-8.63c0-.33.09-.58.25-.74s.4-.25.71-.25c.28,0,.51.09.68.25.16.16.25.41.25.74v8.54c0,1.44.29,2.51.89,3.22.6.71,1.53,1.06,2.8,1.06,1.4,0,2.53-.46,3.39-1.4s1.3-2.16,1.3-3.68v-7.74c0-.33.09-.58.25-.74.16-.16.4-.25.71-.25.28,0,.51.09.68.25.16.16.25.41.25.74v13.41c0,.63-.29.96-.89.96-.28,0-.51-.09-.68-.25s-.25-.4-.25-.71v-3.05l.37.22c-.39,1.25-1.07,2.21-2.04,2.87-.97.66-2.07.98-3.32.98h0Z"/>
          <path class="st0" d="M105.95,970.37c-1.37,0-2.44-.44-3.19-1.3s-1.13-2.08-1.13-3.67v-16.24c0-.33.09-.57.25-.73.16-.15.4-.23.71-.23.28,0,.51.08.68.23.16.15.25.4.25.73v16.02c0,1.19.24,2.08.71,2.67s1.16.88,2.06.88c.21,0,.38,0,.52-.03s.28-.03.44-.03c.19-.02.32.02.42.1s.14.28.14.57-.08.5-.22.64-.38.25-.71.31c-.14.02-.29.04-.45.05s-.31.02-.47.02h0Z"/>
          <path class="st0" d="M115.85,970.37c-1.11,0-2.04-.21-2.77-.62-.74-.41-1.3-1-1.67-1.77s-.56-1.72-.56-2.85v-8.45h-2.28c-.27,0-.48-.07-.64-.2s-.25-.32-.25-.57c0-.23.09-.41.25-.54.16-.13.38-.2.64-.2h2.28v-3.85c0-.33.09-.57.25-.73.16-.15.4-.23.71-.23.28,0,.51.08.68.23s.25.4.25.73v3.85h4.16c.28,0,.5.07.64.2s.22.31.22.54c0,.25-.08.44-.22.57-.14.13-.36.2-.64.2h-4.16v8.2c0,1.25.26,2.21.77,2.87.51.65,1.36.98,2.56.98.41,0,.76-.05,1.03-.14.27-.09.51-.14.69-.14.14,0,.27.07.39.19s.17.32.17.59c0,.16-.04.33-.1.49s-.2.27-.39.31c-.23.09-.53.16-.93.23-.39.08-.75.1-1.08.1h0Z"/>
          <path class="st0" d="M125.16,970.37c-1,0-1.9-.2-2.7-.59s-1.42-.93-1.88-1.6c-.46-.68-.69-1.44-.69-2.28,0-1.11.27-1.98.83-2.62.56-.63,1.49-1.08,2.8-1.34,1.32-.26,3.13-.39,5.43-.39h1.33v1.39h-1.3c-1.85,0-3.3.08-4.33.23-1.04.15-1.76.44-2.17.84s-.62.98-.62,1.72c0,.93.32,1.68.96,2.25s1.5.86,2.59.86c.88,0,1.66-.21,2.33-.63.67-.42,1.19-1,1.59-1.74s.59-1.58.59-2.53v-3.51c0-1.37-.27-2.38-.83-3s-1.44-.94-2.65-.94c-.79,0-1.53.1-2.26.31-.73.21-1.51.53-2.33.98-.23.12-.43.16-.61.12-.17-.04-.31-.12-.4-.25s-.15-.27-.18-.45,0-.34.08-.51c.09-.16.23-.29.44-.4.86-.47,1.74-.82,2.63-1.06s1.76-.35,2.6-.35c1.21,0,2.22.21,3,.62.79.41,1.37,1.02,1.75,1.85s.57,1.88.57,3.17v8.82c0,.31-.08.55-.22.71s-.36.25-.64.25-.51-.09-.68-.25-.25-.4-.25-.71v-2.83h.31c-.18.8-.51,1.49-.98,2.06s-1.06,1.01-1.76,1.33-1.48.46-2.34.46h0Z"/>
          <path class="st0" d="M142.33,970.37c-1.34,0-2.5-.31-3.49-.94s-1.77-1.52-2.31-2.68c-.55-1.16-.81-2.53-.81-4.12s.27-2.95.8-4.1c.53-1.15,1.3-2.05,2.29-2.68.99-.63,2.17-.96,3.53-.96s2.59.36,3.57,1.08c.98.72,1.65,1.69,1.97,2.9h-.34v-9.71c0-.33.09-.57.25-.73.16-.15.39-.23.68-.23.31,0,.54.08.71.23.16.15.25.4.25.73v20.19c0,.31-.09.55-.25.71s-.39.25-.68.25c-.31,0-.55-.09-.71-.25s-.25-.4-.25-.71v-3.17l.34.22c-.33,1.21-.98,2.18-1.97,2.9s-2.18,1.08-3.57,1.08h0ZM142.57,968.8c1.02,0,1.91-.24,2.67-.73.75-.48,1.33-1.18,1.72-2.11s.61-2.04.61-3.33c0-1.95-.45-3.47-1.34-4.53-.89-1.07-2.11-1.6-3.66-1.6-1,0-1.88.25-2.63.73s-1.33,1.18-1.72,2.09c-.4.92-.61,2.02-.61,3.31,0,1.97.45,3.49,1.35,4.56s2.1,1.6,3.61,1.6h0Z"/>
          <path class="st0" d="M177.24,970.37c-1.34,0-2.5-.31-3.49-.94s-1.77-1.52-2.31-2.68c-.55-1.16-.81-2.53-.81-4.12s.27-2.95.81-4.1c.53-1.15,1.3-2.05,2.29-2.68.99-.63,2.17-.96,3.53-.96s2.59.36,3.57,1.08c.98.72,1.65,1.69,1.97,2.9h-.34v-9.71c0-.33.09-.57.25-.73.16-.15.39-.23.68-.23.31,0,.54.08.71.23.16.15.25.4.25.73v20.19c0,.31-.09.55-.25.71s-.39.25-.68.25c-.31,0-.55-.09-.71-.25s-.25-.4-.25-.71v-3.17l.34.22c-.33,1.21-.98,2.18-1.97,2.9s-2.18,1.08-3.57,1.08h0ZM177.48,968.8c1.02,0,1.91-.24,2.67-.73.75-.48,1.33-1.18,1.72-2.11s.61-2.04.61-3.33c0-1.95-.45-3.47-1.34-4.53-.89-1.07-2.11-1.6-3.66-1.6-1,0-1.88.25-2.63.73s-1.33,1.18-1.72,2.09c-.4.92-.61,2.02-.61,3.31,0,1.97.45,3.49,1.35,4.56s2.1,1.6,3.61,1.6Z"/>
          <path class="st0" d="M195.76,970.37c-1.54,0-2.87-.31-3.98-.93-1.11-.62-1.96-1.5-2.56-2.65-.6-1.15-.89-2.52-.89-4.1s.29-2.93.89-4.08c.6-1.16,1.42-2.07,2.48-2.73,1.06-.66,2.27-.98,3.66-.98,1,0,1.89.17,2.66.51s1.43.82,1.97,1.45.96,1.39,1.25,2.28c.28.89.44,1.9.44,3.04,0,.28-.08.5-.23.64-.15.14-.36.22-.63.22h-11.13v-1.39h10.82l-.49.4c0-1.19-.17-2.21-.52-3.04-.35-.83-.87-1.48-1.55-1.92s-1.53-.68-2.54-.68c-1.13,0-2.08.27-2.87.79s-1.36,1.24-1.76,2.16c-.39.92-.59,1.97-.59,3.16v.15c0,1.97.48,3.49,1.45,4.55s2.32,1.59,4.07,1.59c.76,0,1.5-.1,2.21-.31.71-.21,1.4-.56,2.08-1.05.21-.14.41-.22.61-.22s.36.05.49.15.23.23.27.39c.05.15.04.32-.03.49s-.21.33-.42.47c-.65.53-1.45.94-2.38,1.22s-1.85.42-2.77.42h0Z"/>
          <path class="st0" d="M224.11,970.13c-.33,0-.59-.09-.77-.27-.18-.19-.27-.45-.27-.8v-19.58c0-.35.09-.62.27-.8.19-.18.45-.27.77-.27h11.65c.28,0,.5.08.64.22.14.14.22.34.22.59,0,.28-.08.5-.22.63-.14.13-.36.2-.64.2h-10.85v8.26h10.24c.28,0,.5.07.64.2s.22.33.22.6-.08.47-.22.62-.36.22-.64.22h-10.24v8.57h10.85c.28,0,.5.07.64.2s.22.33.22.61-.08.47-.22.62-.36.22-.64.22h-11.65Z"/>
          <path class="st0" d="M245.04,970.37c-.93,0-1.85-.12-2.76-.37-.92-.25-1.78-.66-2.6-1.26-.16-.1-.27-.23-.32-.39-.05-.15-.06-.31-.03-.47s.1-.3.22-.42.26-.18.42-.2.34.03.52.15c.81.53,1.58.91,2.34,1.11.76.21,1.52.31,2.28.31,1.25,0,2.21-.24,2.87-.71.65-.47.98-1.11.98-1.91,0-.65-.21-1.16-.63-1.52-.42-.36-1.11-.65-2.05-.88l-2.68-.62c-1.3-.28-2.25-.76-2.87-1.4s-.93-1.49-.93-2.51c0-.88.23-1.66.69-2.31.46-.65,1.12-1.16,1.97-1.52.85-.36,1.84-.54,2.95-.54.9,0,1.77.13,2.59.4.82.27,1.54.68,2.16,1.23.16.12.27.27.32.44s.05.32,0,.47-.14.28-.27.39-.27.15-.44.15-.34-.07-.52-.19c-.6-.45-1.22-.79-1.88-1-.66-.22-1.33-.32-2.01-.32-1.19,0-2.11.25-2.76.74s-.98,1.16-.98,2.01c0,.63.2,1.16.61,1.54.4.39,1.03.69,1.89.89l2.68.62c1.34.31,2.33.77,2.99,1.37.65.61.98,1.42.98,2.45,0,1.32-.52,2.36-1.55,3.13-1.04.77-2.44,1.16-4.2,1.16h0Z"/>
          <path class="st0" d="M260.38,970.37c-1.11,0-2.04-.21-2.77-.62-.74-.41-1.3-1-1.67-1.77s-.56-1.72-.56-2.85v-8.45h-2.28c-.27,0-.48-.07-.64-.2s-.25-.32-.25-.57c0-.23.09-.41.25-.54s.38-.2.64-.2h2.28v-3.85c0-.33.09-.57.25-.73.16-.15.4-.23.71-.23.28,0,.51.08.68.23s.25.4.25.73v3.85h4.16c.28,0,.5.07.64.2s.22.31.22.54c0,.25-.08.44-.22.57-.14.13-.36.2-.64.2h-4.16v8.2c0,1.25.26,2.21.77,2.87.51.65,1.36.98,2.56.98.41,0,.76-.05,1.03-.14.27-.09.51-.14.69-.14.14,0,.27.07.39.19.11.12.17.32.17.59,0,.16-.04.33-.1.49s-.2.27-.39.31c-.23.09-.53.16-.93.23-.39.08-.75.1-1.08.1h0Z"/>
          <path class="st0" d="M270.34,970.37c-1.19,0-2.19-.22-2.97-.64s-1.38-1.08-1.77-1.94-.59-1.93-.59-3.21v-8.63c0-.33.09-.58.25-.74.16-.16.4-.25.71-.25.28,0,.51.09.68.25.16.16.25.41.25.74v8.54c0,1.44.29,2.51.89,3.22s1.53,1.06,2.8,1.06c1.4,0,2.53-.46,3.39-1.4.86-.94,1.3-2.16,1.3-3.68v-7.74c0-.33.09-.58.25-.74s.4-.25.71-.25c.28,0,.51.09.68.25.16.16.25.41.25.74v13.41c0,.63-.3.96-.89.96-.28,0-.51-.09-.68-.25-.16-.16-.25-.4-.25-.71v-3.05l.37.22c-.39,1.25-1.07,2.21-2.04,2.87s-2.07.98-3.33.98h0Z"/>
          <path class="st0" d="M287.81,970.37c-1.34,0-2.5-.31-3.49-.94s-1.77-1.52-2.31-2.68c-.55-1.16-.81-2.53-.81-4.12s.27-2.95.81-4.1c.53-1.15,1.3-2.05,2.29-2.68.99-.63,2.17-.96,3.53-.96s2.59.36,3.57,1.08c.98.72,1.65,1.69,1.97,2.9h-.34v-9.71c0-.33.09-.57.25-.73.16-.15.39-.23.68-.23.31,0,.54.08.71.23.16.15.25.4.25.73v20.19c0,.31-.09.55-.25.71s-.39.25-.68.25c-.31,0-.55-.09-.71-.25s-.25-.4-.25-.71v-3.17l.34.22c-.33,1.21-.98,2.18-1.97,2.9s-2.18,1.08-3.57,1.08h0ZM288.06,968.8c1.02,0,1.91-.24,2.67-.73.75-.48,1.33-1.18,1.72-2.11s.61-2.04.61-3.33c0-1.95-.45-3.47-1.34-4.53-.89-1.07-2.11-1.6-3.66-1.6-1,0-1.88.25-2.63.73s-1.33,1.18-1.72,2.09c-.4.92-.61,2.02-.61,3.31,0,1.97.45,3.49,1.35,4.56.9,1.07,2.1,1.6,3.61,1.6Z"/>
          <path class="st0" d="M300.79,951.32c-.44,0-.77-.11-1-.34s-.35-.55-.35-.96.11-.73.35-.94c.24-.22.57-.32,1-.32s.77.1,1,.32c.24.22.35.53.35.94s-.11.73-.35.96-.57.34-1,.34ZM300.79,970.25c-.31,0-.55-.09-.71-.27-.16-.19-.25-.44-.25-.74v-13.19c0-.33.09-.58.25-.74s.4-.25.71-.25c.28,0,.51.09.68.25.16.16.25.41.25.74v13.19c0,.31-.08.56-.23.74s-.39.27-.69.27h0Z"/>
          <path class="st0" d="M312.63,970.37c-1.4,0-2.6-.32-3.64-.96-1.02-.63-1.82-1.53-2.39-2.68s-.84-2.52-.84-4.1c0-1.17.16-2.23.47-3.17s.78-1.76,1.39-2.45c.61-.69,1.34-1.21,2.19-1.57.85-.36,1.79-.54,2.82-.54,1.42,0,2.64.32,3.67.96s1.82,1.53,2.39,2.7c.57,1.16.84,2.52.84,4.08,0,1.19-.16,2.26-.47,3.21-.32.95-.79,1.76-1.39,2.43s-1.34,1.19-2.17,1.55-1.8.54-2.87.54ZM312.63,968.8c1.02,0,1.91-.24,2.67-.73.75-.48,1.33-1.18,1.72-2.11s.61-2.04.61-3.33c0-1.95-.45-3.47-1.34-4.53-.89-1.07-2.11-1.6-3.66-1.6-1,0-1.88.25-2.63.73s-1.33,1.18-1.72,2.09c-.4.92-.61,2.02-.61,3.31,0,1.97.45,3.49,1.35,4.56.9,1.07,2.1,1.6,3.61,1.6Z"/>
          <path class="st0" d="M328.41,970.37c-.93,0-1.85-.12-2.76-.37s-1.78-.66-2.6-1.26c-.16-.1-.27-.23-.32-.39-.05-.15-.07-.31-.03-.47.03-.16.1-.3.22-.42s.26-.18.42-.2.34.03.52.15c.81.53,1.58.91,2.34,1.11.76.21,1.52.31,2.28.31,1.25,0,2.21-.24,2.87-.71.65-.47.98-1.11.98-1.91,0-.65-.21-1.16-.63-1.52-.42-.36-1.11-.65-2.05-.88l-2.68-.62c-1.3-.28-2.25-.76-2.87-1.4s-.93-1.49-.93-2.51c0-.88.23-1.66.69-2.31.46-.65,1.12-1.16,1.97-1.52s1.84-.54,2.95-.54c.91,0,1.77.13,2.59.4.82.27,1.54.68,2.16,1.23.16.12.27.27.32.44s.05.32,0,.47-.14.28-.27.39-.27.15-.44.15-.34-.07-.52-.19c-.6-.45-1.22-.79-1.88-1-.66-.22-1.33-.32-2.01-.32-1.19,0-2.11.25-2.76.74s-.97,1.16-.97,2.01c0,.63.2,1.16.6,1.54.4.39,1.03.69,1.89.89l2.68.62c1.34.31,2.33.77,2.99,1.37s.98,1.42.98,2.45c0,1.32-.52,2.36-1.55,3.13-1.04.77-2.44,1.16-4.2,1.16h0Z"/>
          <path class="st0" d="M362.61,970.37c-.98,0-1.94-.09-2.87-.25s-1.78-.42-2.58-.76-1.51-.76-2.14-1.25c-.21-.14-.34-.31-.42-.51-.08-.2-.09-.38-.03-.56.05-.17.14-.32.27-.45.13-.12.29-.19.47-.2.19,0,.38.06.59.2.95.7,1.95,1.21,3,1.54,1.06.33,2.28.49,3.68.49,1.95,0,3.42-.38,4.39-1.14.98-.76,1.47-1.76,1.47-2.99,0-1.02-.35-1.83-1.06-2.41s-1.88-1.02-3.49-1.35l-3.12-.64c-1.95-.39-3.4-1.05-4.35-1.97-.95-.93-1.42-2.16-1.42-3.7,0-.95.18-1.8.56-2.58s.89-1.43,1.57-1.99c.68-.56,1.49-.98,2.42-1.28s1.97-.45,3.1-.45c1.34,0,2.57.19,3.68.56,1.12.37,2.14.96,3.07,1.76.18.14.31.31.37.51.07.2.07.38,0,.56-.06.17-.15.31-.27.42s-.27.16-.46.17c-.19,0-.38-.07-.59-.23-.86-.7-1.76-1.2-2.7-1.52-.94-.32-1.97-.47-3.1-.47s-2.15.19-3,.56c-.85.37-1.52.89-1.99,1.57s-.71,1.48-.71,2.41c0,1.07.33,1.92.98,2.56.66.63,1.71,1.1,3.17,1.39l3.14.64c2.07.44,3.62,1.07,4.62,1.92s1.52,2.02,1.52,3.49c0,.88-.18,1.7-.54,2.42s-.88,1.36-1.55,1.89c-.68.53-1.5.94-2.45,1.22s-2.04.42-3.25.42v-.03Z"/>
          <path class="st0" d="M379.44,970.37c-1.19,0-2.19-.22-2.97-.64s-1.38-1.08-1.77-1.94-.59-1.93-.59-3.21v-8.63c0-.33.09-.58.25-.74.16-.16.4-.25.71-.25.28,0,.51.09.68.25.16.16.25.41.25.74v8.54c0,1.44.29,2.51.89,3.22s1.53,1.06,2.8,1.06c1.4,0,2.53-.46,3.39-1.4.86-.94,1.3-2.16,1.3-3.68v-7.74c0-.33.09-.58.25-.74.16-.16.4-.25.71-.25.28,0,.51.09.68.25.16.16.25.41.25.74v13.41c0,.63-.29.96-.89.96-.28,0-.51-.09-.68-.25-.16-.16-.25-.4-.25-.71v-3.05l.37.22c-.39,1.25-1.07,2.21-2.04,2.87s-2.07.98-3.33.98h0Z"/>
          <path class="st0" d="M392.17,975.86c-.31,0-.55-.09-.71-.25s-.25-.4-.25-.71v-18.96c0-.33.09-.58.25-.74s.4-.25.71-.25c.28,0,.51.09.68.25.16.16.25.41.25.74v3.14l-.34-.18c.35-1.23,1.01-2.21,2.01-2.93.98-.72,2.18-1.08,3.58-1.08s2.5.32,3.49.96,1.76,1.53,2.31,2.68.81,2.52.81,4.1-.27,2.95-.81,4.12c-.55,1.16-1.31,2.06-2.29,2.68-.98.63-2.16.94-3.51.94s-2.59-.36-3.58-1.08c-.98-.72-1.66-1.68-2.01-2.87h.34v8.48c0,.31-.09.54-.25.71-.16.16-.39.25-.68.25h0ZM398.06,968.8c1,0,1.88-.24,2.63-.73.75-.48,1.33-1.18,1.74-2.11s.62-2.04.62-3.33c0-1.95-.45-3.47-1.35-4.53-.9-1.07-2.12-1.6-3.64-1.6-1,0-1.88.25-2.63.73s-1.34,1.18-1.74,2.09c-.41.92-.62,2.02-.62,3.31,0,1.97.45,3.49,1.35,4.56.9,1.07,2.11,1.6,3.64,1.6Z"/>
          <path class="st0" d="M415.44,970.37c-1.54,0-2.87-.31-3.98-.93-1.11-.62-1.96-1.5-2.56-2.65-.6-1.15-.89-2.52-.89-4.1s.29-2.93.89-4.08c.6-1.16,1.42-2.07,2.48-2.73,1.06-.66,2.27-.98,3.66-.98,1,0,1.89.17,2.66.51s1.43.82,1.97,1.45c.54.63.96,1.39,1.25,2.28.28.89.44,1.9.44,3.04,0,.28-.08.5-.23.64-.15.14-.37.22-.63.22h-11.13v-1.39h10.82l-.49.4c0-1.19-.18-2.21-.52-3.04-.35-.83-.87-1.48-1.55-1.92-.69-.45-1.53-.68-2.55-.68-1.13,0-2.08.27-2.87.79s-1.36,1.24-1.75,2.16c-.39.92-.59,1.97-.59,3.16v.15c0,1.97.48,3.49,1.45,4.55s2.32,1.59,4.07,1.59c.76,0,1.5-.1,2.21-.31.71-.21,1.4-.56,2.08-1.05.21-.14.41-.22.61-.22s.36.05.49.15c.13.1.23.23.27.39s.04.32-.03.49c-.08.17-.21.33-.42.47-.65.53-1.45.94-2.38,1.22s-1.85.42-2.77.42h0Z"/>
          <path class="st0" d="M426.14,970.31c-.31,0-.55-.09-.71-.25s-.25-.4-.25-.71v-13.41c0-.33.09-.58.25-.74s.4-.25.71-.25c.28,0,.51.09.66.25s.23.41.23.74v2.75h-.31c.37-1.21,1.03-2.15,1.99-2.8.96-.66,2.1-.99,3.44-1.01.25-.02.45.03.62.15s.25.32.25.59c.02.28-.04.51-.18.66-.14.15-.38.26-.71.29l-.44.03c-1.46.14-2.59.63-3.39,1.45s-1.2,1.93-1.2,3.33v7.98c0,.31-.08.55-.23.71s-.4.25-.73.25h0Z"/>
          <path class="st0" d="M436.68,951.32c-.44,0-.77-.11-1-.34s-.35-.55-.35-.96.11-.73.35-.94c.24-.22.57-.32,1-.32s.77.1,1,.32c.24.22.35.53.35.94s-.12.73-.35.96c-.24.23-.57.34-1,.34ZM436.68,970.25c-.31,0-.55-.09-.71-.27-.16-.19-.25-.44-.25-.74v-13.19c0-.33.09-.58.25-.74s.4-.25.71-.25c.28,0,.51.09.68.25.16.16.25.41.25.74v13.19c0,.31-.08.56-.23.74s-.39.27-.69.27h0Z"/>
          <path class="st0" d="M448.52,970.37c-1.4,0-2.61-.32-3.64-.96-1.03-.63-1.83-1.53-2.39-2.68s-.84-2.52-.84-4.1c0-1.17.16-2.23.47-3.17.32-.95.78-1.76,1.38-2.45.61-.69,1.34-1.21,2.19-1.57.85-.36,1.79-.54,2.82-.54,1.42,0,2.64.32,3.67.96s1.82,1.53,2.39,2.7c.57,1.16.85,2.52.85,4.08,0,1.19-.16,2.26-.47,3.21s-.79,1.76-1.39,2.43-1.34,1.19-2.17,1.55c-.84.36-1.8.54-2.87.54h0ZM448.52,968.8c1.02,0,1.91-.24,2.66-.73.75-.48,1.33-1.18,1.72-2.11s.61-2.04.61-3.33c0-1.95-.45-3.47-1.34-4.53s-2.11-1.6-3.66-1.6c-1,0-1.88.25-2.63.73s-1.33,1.18-1.72,2.09c-.4.92-.6,2.02-.6,3.31,0,1.97.45,3.49,1.35,4.56.9,1.07,2.1,1.6,3.61,1.6Z"/>
          <path class="st0" d="M460.38,970.31c-.31,0-.55-.09-.71-.25s-.25-.4-.25-.71v-13.41c0-.33.09-.58.25-.74s.4-.25.71-.25c.28,0,.51.09.66.25s.23.41.23.74v2.75h-.31c.37-1.21,1.03-2.15,1.99-2.8.96-.66,2.1-.99,3.44-1.01.25-.02.45.03.62.15s.25.32.25.59c.02.28-.04.51-.18.66-.14.15-.38.26-.71.29l-.44.03c-1.46.14-2.59.63-3.39,1.45s-1.2,1.93-1.2,3.33v7.98c0,.31-.08.55-.23.71s-.4.25-.73.25h0Z"/>
          <path class="st0" d="M476.29,970.37c-1.54,0-2.87-.31-3.98-.93-1.11-.62-1.96-1.5-2.56-2.65-.6-1.15-.89-2.52-.89-4.1s.29-2.93.89-4.08c.6-1.16,1.42-2.07,2.48-2.73,1.06-.66,2.27-.98,3.66-.98,1,0,1.89.17,2.66.51s1.43.82,1.97,1.45c.54.63.96,1.39,1.25,2.28.28.89.44,1.9.44,3.04,0,.28-.08.5-.23.64-.15.14-.37.22-.63.22h-11.13v-1.39h10.82l-.49.4c0-1.19-.18-2.21-.52-3.04-.35-.83-.87-1.48-1.55-1.92-.69-.45-1.53-.68-2.55-.68-1.13,0-2.08.27-2.87.79s-1.36,1.24-1.75,2.16c-.39.92-.59,1.97-.59,3.16v.15c0,1.97.48,3.49,1.45,4.55s2.32,1.59,4.07,1.59c.76,0,1.5-.1,2.21-.31.71-.21,1.4-.56,2.08-1.05.21-.14.41-.22.61-.22s.36.05.49.15c.13.1.23.23.27.39s.04.32-.03.49c-.08.17-.21.33-.42.47-.65.53-1.45.94-2.38,1.22s-1.85.42-2.77.42h0Z"/>
          <path class="st0" d="M490.9,970.37c-.93,0-1.85-.12-2.76-.37s-1.78-.66-2.6-1.26c-.16-.1-.27-.23-.32-.39-.06-.15-.07-.31-.03-.47.03-.16.1-.3.22-.42.11-.11.26-.18.42-.2s.34.03.52.15c.81.53,1.58.91,2.34,1.11.76.21,1.52.31,2.28.31,1.25,0,2.21-.24,2.87-.71.65-.47.98-1.11.98-1.91,0-.65-.21-1.16-.63-1.52-.42-.36-1.11-.65-2.05-.88l-2.68-.62c-1.3-.28-2.25-.76-2.87-1.4s-.93-1.49-.93-2.51c0-.88.23-1.66.69-2.31.46-.65,1.12-1.16,1.97-1.52s1.84-.54,2.95-.54c.9,0,1.77.13,2.59.4.82.27,1.54.68,2.16,1.23.16.12.27.27.32.44s.05.32,0,.47-.14.28-.27.39-.27.15-.44.15-.34-.07-.52-.19c-.6-.45-1.22-.79-1.88-1-.65-.22-1.33-.32-2.01-.32-1.19,0-2.11.25-2.76.74s-.98,1.16-.98,2.01c0,.63.2,1.16.61,1.54.4.39,1.03.69,1.89.89l2.68.62c1.34.31,2.33.77,2.99,1.37.65.61.98,1.42.98,2.45,0,1.32-.52,2.36-1.55,3.13-1.04.77-2.44,1.16-4.2,1.16h0Z"/>
          <path class="st0" d="M517.55,970.31c-.27,0-.47-.06-.63-.17s-.24-.27-.25-.47c0-.21.04-.44.14-.68l8.67-19.92c.14-.31.32-.53.52-.66.21-.13.41-.2.62-.2.25,0,.46.07.66.2s.35.35.47.66l8.67,19.92c.12.25.18.47.17.68s-.09.37-.22.47c-.13.11-.33.17-.6.17-.28,0-.52-.08-.69-.23-.18-.15-.32-.36-.45-.63l-2.38-5.58,1.01.46h-13.34l1.05-.46-2.38,5.58c-.12.31-.27.53-.45.66s-.38.2-.6.2h0ZM526.58,950.74l-5.24,12.33-.71-.37h11.93l-.64.37-5.28-12.33h-.07,0Z"/>
          <path class="st0" d="M546.15,970.37c-1.46,0-2.71-.32-3.76-.98s-1.86-1.56-2.42-2.75-.84-2.55-.84-4.11c0-1.19.16-2.25.47-3.19.32-.94.78-1.73,1.38-2.39s1.34-1.16,2.22-1.52c.87-.36,1.86-.54,2.95-.54.76,0,1.54.13,2.34.39.8.26,1.53.68,2.19,1.28.14.12.24.27.27.44.04.16.03.32-.03.47-.07.15-.15.27-.27.37-.12.09-.27.14-.45.15s-.35-.07-.54-.23c-.58-.47-1.16-.8-1.74-.97-.59-.17-1.16-.27-1.71-.27-.84,0-1.58.13-2.22.4-.63.27-1.17.65-1.62,1.17-.45.51-.78,1.15-1,1.89s-.34,1.61-.34,2.58c0,1.93.45,3.45,1.34,4.55s2.17,1.65,3.84,1.65c.56,0,1.13-.09,1.71-.27.59-.17,1.16-.5,1.74-.98.18-.16.36-.24.54-.23.17,0,.32.07.45.15.12.09.21.22.27.37.05.15.06.31.02.47s-.13.31-.27.44c-.63.6-1.35,1.01-2.16,1.26s-1.58.37-2.34.37h0Z"/>
          <path class="st0" d="M558.66,970.37c-1,0-1.9-.2-2.7-.59-.8-.39-1.42-.93-1.88-1.6-.46-.68-.69-1.44-.69-2.28,0-1.11.27-1.98.83-2.62.56-.63,1.49-1.08,2.8-1.34,1.32-.26,3.13-.39,5.43-.39h1.33v1.39h-1.3c-1.85,0-3.3.08-4.33.23-1.04.15-1.76.44-2.17.84s-.62.98-.62,1.72c0,.93.32,1.68.96,2.25s1.5.86,2.59.86c.88,0,1.66-.21,2.33-.63.67-.42,1.19-1,1.59-1.74.39-.74.59-1.58.59-2.53v-3.51c0-1.37-.27-2.38-.83-3s-1.44-.94-2.65-.94c-.78,0-1.53.1-2.26.31-.73.21-1.51.53-2.33.98-.23.12-.43.16-.61.12-.17-.04-.31-.12-.4-.25s-.15-.27-.18-.45,0-.34.08-.51c.09-.16.23-.29.44-.4.86-.47,1.74-.82,2.63-1.06s1.76-.35,2.6-.35c1.21,0,2.22.21,3,.62s1.37,1.02,1.76,1.85c.38.82.57,1.88.57,3.17v8.82c0,.31-.08.55-.22.71-.14.16-.36.25-.64.25s-.51-.09-.68-.25c-.16-.16-.25-.4-.25-.71v-2.83h.31c-.19.8-.51,1.49-.98,2.06s-1.06,1.01-1.76,1.33-1.48.46-2.34.46h0Z"/>
          <path class="st0" d="M575.78,970.37c-1.11,0-2.04-.21-2.77-.62-.74-.41-1.3-1-1.67-1.77s-.56-1.72-.56-2.85v-8.45h-2.28c-.27,0-.48-.07-.64-.2s-.25-.32-.25-.57c0-.23.09-.41.25-.54s.38-.2.64-.2h2.28v-3.85c0-.33.09-.57.25-.73.16-.15.4-.23.71-.23.28,0,.51.08.68.23.16.15.25.4.25.73v3.85h4.16c.28,0,.5.07.64.2.14.13.22.31.22.54,0,.25-.08.44-.22.57-.14.13-.36.2-.64.2h-4.16v8.2c0,1.25.26,2.21.77,2.87.51.65,1.36.98,2.56.98.41,0,.76-.05,1.03-.14.27-.09.51-.14.69-.14.14,0,.27.07.39.19s.17.32.17.59c0,.16-.04.33-.1.49-.08.16-.2.27-.39.31-.23.09-.53.16-.93.23-.39.08-.75.1-1.08.1h0Z"/>
          <path class="st0" d="M584.87,970.37c-1.37,0-2.44-.44-3.19-1.3s-1.13-2.08-1.13-3.67v-16.24c0-.33.09-.57.25-.73.16-.15.4-.23.71-.23.28,0,.51.08.68.23.16.15.25.4.25.73v16.02c0,1.19.24,2.08.71,2.67s1.16.88,2.06.88c.21,0,.38,0,.52-.03.14-.02.28-.03.44-.03.18-.02.32.02.42.1.09.09.14.28.14.57s-.08.5-.22.64-.38.25-.71.31c-.14.02-.29.04-.45.05s-.31.02-.47.02h0Z"/>
          <path class="st0" d="M593.96,970.37c-1,0-1.9-.2-2.7-.59-.8-.39-1.42-.93-1.88-1.6-.46-.68-.69-1.44-.69-2.28,0-1.11.27-1.98.83-2.62.56-.63,1.49-1.08,2.8-1.34,1.32-.26,3.13-.39,5.43-.39h1.33v1.39h-1.3c-1.85,0-3.3.08-4.33.23-1.04.15-1.76.44-2.17.84s-.62.98-.62,1.72c0,.93.32,1.68.96,2.25s1.5.86,2.59.86c.88,0,1.66-.21,2.33-.63.67-.42,1.19-1,1.59-1.74.39-.74.59-1.58.59-2.53v-3.51c0-1.37-.27-2.38-.83-3s-1.44-.94-2.65-.94c-.78,0-1.53.1-2.26.31-.73.21-1.51.53-2.33.98-.23.12-.43.16-.61.12-.17-.04-.31-.12-.4-.25s-.15-.27-.18-.45,0-.34.08-.51c.09-.16.23-.29.44-.4.86-.47,1.74-.82,2.63-1.06s1.76-.35,2.6-.35c1.21,0,2.22.21,3,.62s1.37,1.02,1.76,1.85c.38.82.57,1.88.57,3.17v8.82c0,.31-.08.55-.22.71-.14.16-.36.25-.64.25s-.51-.09-.68-.25c-.16-.16-.25-.4-.25-.71v-2.83h.31c-.19.8-.51,1.49-.98,2.06s-1.06,1.01-1.76,1.33-1.48.46-2.34.46h0ZM595.93,953.05c-.1.16-.24.27-.4.29-.16.03-.32,0-.47-.06s-.27-.19-.32-.34-.04-.33.07-.54l2.71-5.21c.12-.25.27-.41.46-.47.19-.08.37-.09.56-.05.18.04.34.13.47.27s.22.29.25.47c.03.19-.02.38-.14.59l-3.17,5.06h0Z"/>
          <path class="st0" d="M606.39,970.31c-.31,0-.55-.09-.71-.25s-.25-.4-.25-.71v-13.41c0-.33.09-.58.25-.74s.4-.25.71-.25c.28,0,.51.09.66.25.15.16.23.41.23.74v2.9l-.34-.18c.41-1.23,1.12-2.17,2.11-2.8.99-.63,2.14-.96,3.44-.96,1.19,0,2.19.21,2.97.63s1.38,1.06,1.77,1.92c.39.86.59,1.94.59,3.24v8.67c0,.31-.09.55-.25.71s-.39.25-.68.25c-.31,0-.55-.09-.71-.25s-.25-.4-.25-.71v-8.5c0-1.5-.29-2.59-.89-3.29s-1.54-1.03-2.83-1.03c-1.48,0-2.66.45-3.56,1.37-.89.92-1.34,2.14-1.34,3.68v7.77c0,.63-.31.96-.93.96h0Z"/>
          <path class="st0" d="M648.57,970.37c-1.37,0-2.6-.19-3.67-.56-1.07-.37-1.96-.93-2.67-1.67s-1.24-1.66-1.6-2.75-.54-2.34-.54-3.76v-12.48c0-.33.09-.57.25-.73.16-.15.39-.23.68-.23.31,0,.54.08.71.23.16.15.25.4.25.73v12.33c0,2.41.56,4.2,1.68,5.38s2.76,1.77,4.92,1.77,3.83-.59,4.93-1.77c1.11-1.18,1.67-2.97,1.67-5.38v-12.33c0-.33.09-.57.25-.73.16-.15.4-.23.71-.23.28,0,.51.08.68.23.16.15.25.4.25.73v12.48c0,1.89-.32,3.49-.96,4.79s-1.59,2.28-2.85,2.95-2.82.98-4.67.98h0Z"/>
          <path class="st0" d="M663.46,970.31c-.28,0-.51-.09-.66-.25-.15-.16-.23-.4-.23-.71v-20.16c0-.33.08-.58.22-.74.14-.16.34-.25.59-.25.27,0,.46.04.59.12s.26.24.4.46l14.18,19.08h-.71v-18.74c0-.31.08-.54.23-.69s.38-.23.66-.23c.27,0,.47.08.63.23.15.15.23.39.23.69v20.22c0,.31-.07.55-.2.71s-.32.25-.57.25c-.23,0-.41-.05-.56-.14-.14-.09-.29-.24-.46-.45l-14.15-19.08h.68v18.71c0,.31-.08.55-.23.71s-.37.25-.63.25h0Z"/>
          <path class="st0" d="M684.48,970.31c-.27,0-.47-.06-.63-.17s-.24-.27-.25-.47c0-.21.04-.44.14-.68l8.67-19.92c.14-.31.32-.53.52-.66.21-.13.41-.2.62-.2.25,0,.46.07.66.2s.35.35.47.66l8.67,19.92c.12.25.18.47.17.68s-.09.37-.22.47c-.13.11-.33.17-.6.17-.28,0-.52-.08-.69-.23-.18-.15-.32-.36-.45-.63l-2.38-5.58,1.01.46h-13.34l1.05-.46-2.38,5.58c-.12.31-.27.53-.45.66s-.38.2-.6.2h0ZM693.51,950.74l-5.24,12.33-.71-.37h11.93l-.64.37-5.28-12.33h-.07,0Z"/>
          <path class="st0" d="M708.42,970.31c-.27,0-.47-.09-.63-.25-.15-.16-.23-.39-.23-.68v-20.25c0-.31.08-.54.23-.69s.35-.23.61-.23.47.05.62.15.27.27.4.49l8.82,16.73h-.86l8.75-16.73c.14-.23.28-.39.42-.49.13-.1.33-.15.61-.15.25,0,.45.08.6.23.15.15.23.39.23.69v20.25c0,.28-.08.51-.22.68-.14.16-.36.25-.64.25s-.51-.09-.66-.25c-.15-.16-.23-.39-.23-.68v-18.71h.74l-8.26,15.65c-.1.21-.22.36-.34.46s-.29.15-.52.15c-.25,0-.44-.06-.57-.17-.13-.11-.26-.27-.35-.45l-8.35-15.69h.74v18.74c0,.28-.08.51-.22.68-.14.16-.36.25-.64.25h0Z"/>
        </g>
      </g>
    </g>
  </g>
  <metadata>
    <sfw xmlns="http://ns.adobe.com/SaveForWeb/1.0/">
      <slices/>
      <sliceSourceBounds x="30.97" y="24.14" width="700.06" height="951.71" bottomLeftOrigin="true"/>
      <optimizationSettings>
        <targetSettings fileFormat="JPEGFormat" targetSettingsID="0">
          <JPEGFormat blurAmount="0" embedICCProfile="false" matteColor="#FFFFFF" noMatteColor="false" optimized="true" progressive="false" quality="60"/>
        </targetSettings>
      </optimizationSettings>
    </sfw>
  </metadata>
</svg>