<?xml version="1.0" encoding="UTF-8"?>
<svg xmlns="http://www.w3.org/2000/svg" width="1280" height="278.77" version="1.1" viewBox="0 0 1280 278.77">
  <!-- Generator: Adobe Illustrator 29.8.2, SVG Export Plug-In . SVG Version: 2.1.1 Build 3)  -->
  <defs>
    <style>
      .st0 {
        fill: #1e6dff;
      }

      .st1 {
        fill: #1a1a1a;
      }
    </style>
  </defs>
  <g id="Capa_1">
    <path class="st0" d="M525.41-255.09s0-.01,0-.02c0,0,0,.01,0,.02h0Z"/>
    <path class="st0" d="M526.36-257.81c-.15.44-.3.89-.46,1.34.16-.45.31-.9.46-1.34Z"/>
    <path class="st0" d="M527.28-260.57c-.21.64-.43,1.3-.65,1.97.23-.67.44-1.32.65-1.97Z"/>
    <path class="st0" d="M510.53-239.26h0c.05-.77.1-1.53.15-2.27-.05.74-.1,1.5-.15,2.27Z"/>
    <path class="st0" d="M510.84-244.09c.04-.59.07-1.16.1-1.73-.03.57-.07,1.14-.1,1.73Z"/>
    <path class="st0" d="M510.7-241.82c.04-.64.08-1.27.12-1.89-.04.62-.08,1.25-.12,1.89Z"/>
    <path class="st0" d="M511.08-248.16c-.04.63-.07,1.28-.11,1.93.04-.66.08-1.3.11-1.93Z"/>
    <path class="st0" d="M527.87-262.47c-.14.49-.3.99-.46,1.49.16-.5.31-1,.46-1.49Z"/>
    <path class="st0" d="M529.15-268.24c-.05.5-.14,1.03-.24,1.57.1-.54.18-1.07.24-1.57Z"/>
    <path class="st0" d="M526.83-130.23c.99-.24,1.95-.54,2.87-.9-.93.37-1.88.66-2.87.9Z"/>
    <path class="st0" d="M528.8-266.12c-.08.38-.16.76-.26,1.16.1-.39.18-.78.26-1.16Z"/>
    <path class="st0" d="M529.7-131.13c.93-.37,1.82-.8,2.69-1.32-.87.52-1.76.96-2.69,1.32Z"/>
    <path class="st0" d="M522.31-129.52c1.58-.14,3.09-.37,4.52-.71-1.43.35-2.94.57-4.52.71Z"/>
    <path class="st0" d="M528.38-264.32c-.1.39-.21.79-.33,1.2.12-.41.22-.81.33-1.2Z"/>
    <path class="st0" d="M516.93-129.29h0c1.78,0,3.48-.06,5.09-.2-1.61.13-3.3.19-5.09.2Z"/>
  </g>
  <g id="Capa_4">
    <g>
      <path class="st0" d="M1216.93,121.13c-.12,2.87.84,6.92,2.87,9.19,2.27,2.51,6.45,3.58,11.22,3.58.95,0,6.32-.24,9.55-2.15,2.27-1.31,3.94-3.82,3.94-7.04,0-2.27-.84-4.42-3.7-6.21-1.79-1.19-7.76-2.51-8.95-2.87l-8.59-1.91c-6.8-1.67-15.28-3.1-20.65-8.24-3.7-3.34-6.68-9.07-6.68-16.35,0-4.65,1.31-12.89,9.55-19.22,7.64-6.09,16.95-7.28,24.95-7.28,4.77,0,16.11.24,23.75,5.97,4.3,3.34,9.19,9.91,9.79,19.69h-21.6c-.12-3.82-2.27-5.85-3.1-6.44-2.75-2.15-7.28-2.27-8.95-2.27-2.27,0-5.85.36-8.6,2.27-2.03,1.43-2.98,3.34-2.98,4.89,0,1.79.72,3.94,2.27,5.25,1.55,1.43,4.42,1.91,12.89,3.82l9.43,2.15c5.01,1.31,12.17,3.82,16.59,7.52,4.18,3.7,7.16,8.95,7.16,17.07,0,9.55-3.7,15.4-8.12,19.57-8.71,8-21.48,8.83-28.64,8.83-8.6,0-20.29-1.55-27.93-8.83-4.65-4.65-8.47-11.82-8.47-21.01h23.04Z"/>
      <g>
        <path class="st1" d="M25.28,41.85c-.33,0-.59-.09-.79-.28s-.3-.44-.3-.77.1-.57.3-.73c.2-.16.46-.24.79-.24h5.22v-22.63h1.32l-5.45,3.72c-.25.17-.49.26-.71.24-.22-.01-.41-.09-.56-.24s-.26-.33-.32-.53c-.06-.2-.06-.41.02-.64.08-.22.24-.41.49-.56l5.19-3.61c.25-.15.48-.26.68-.34.2-.08.43-.11.68-.11.28,0,.51.08.7.24.19.16.28.43.28.81v23.64h4.85c.35,0,.62.08.81.24.19.16.28.41.28.73,0,.35-.09.61-.28.79-.19.18-.46.26-.81.26h-12.36Z"/>
        <path class="st1" d="M52.18,29.51c-1.1,0-2.04-.22-2.83-.66-.79-.44-1.4-1.07-1.82-1.89s-.64-1.79-.64-2.91.21-2.08.64-2.9,1.01-1.47,1.76-1.94c.75-.47,1.62-.7,2.6-.7.72,0,1.35.12,1.9.36.55.24,1.01.58,1.4,1.03.39.45.68.99.89,1.62s.31,1.36.31,2.16c0,.21-.05.36-.16.46-.11.1-.26.15-.45.15h-7.91v-.99h7.69l-.35.29c0-.85-.12-1.57-.37-2.16-.25-.59-.62-1.05-1.11-1.37-.49-.32-1.09-.48-1.81-.48-.8,0-1.48.19-2.04.56-.56.37-.97.88-1.25,1.53-.28.65-.42,1.4-.42,2.25v.11c0,1.4.34,2.48,1.03,3.23.69.75,1.65,1.13,2.89,1.13.54,0,1.06-.07,1.57-.22.5-.14,1-.39,1.48-.75.15-.1.29-.15.43-.15s.26.04.35.11.16.16.2.27c.04.11.03.23-.02.35-.05.13-.15.24-.3.34-.47.38-1.03.67-1.69.86-.66.2-1.31.3-1.97.3Z"/>
        <path class="st1" d="M61.98,29.46c-.22,0-.39-.06-.5-.17-.12-.12-.18-.29-.18-.5v-9.53c0-.23.06-.41.18-.53.12-.12.28-.17.5-.17.2,0,.36.06.47.17.11.12.16.29.16.53v1.95h-.22c.26-.86.73-1.53,1.41-1.99.68-.47,1.49-.71,2.44-.72.18-.01.32.02.44.11.12.09.18.23.18.42.01.21-.03.36-.13.47-.1.11-.27.18-.5.21l-.31.02c-1.04.1-1.84.45-2.41,1.03-.57.58-.85,1.37-.85,2.37v5.68c0,.22-.05.39-.16.5-.11.12-.28.17-.52.17Z"/>
        <path class="st1" d="M96.97,42.15c-2.53,0-4.7-.55-6.5-1.63-1.8-1.09-3.19-2.65-4.15-4.68-.97-2.03-1.45-4.45-1.45-7.25,0-2.1.27-3.99.81-5.66s1.33-3.08,2.37-4.25c1.04-1.17,2.32-2.06,3.83-2.69,1.52-.63,3.21-.94,5.09-.94,1.65,0,3.19.24,4.62.71,1.43.48,2.65,1.18,3.68,2.1.25.22.41.46.49.71s.08.48.02.7-.18.39-.36.53c-.18.14-.38.2-.62.19-.24-.01-.49-.13-.77-.36-.95-.83-2.01-1.44-3.18-1.84-1.16-.4-2.45-.6-3.85-.6-2.08,0-3.84.45-5.28,1.33-1.44.89-2.53,2.19-3.27,3.89-.74,1.71-1.11,3.76-1.11,6.16s.37,4.5,1.11,6.2,1.83,3,3.27,3.89c1.44.89,3.2,1.33,5.28,1.33,1.38,0,2.65-.21,3.83-.62,1.18-.41,2.25-1.03,3.23-1.86.28-.22.53-.34.77-.34s.44.07.6.21c.16.14.28.31.36.53.07.21.08.43.02.66-.06.22-.21.44-.43.64-1.08.98-2.32,1.71-3.74,2.2s-2.98.73-4.68.73Z"/>
        <path class="st1" d="M124.85,42.15c-2.41,0-4.5-.55-6.28-1.65-1.78-1.1-3.15-2.67-4.11-4.7-.97-2.03-1.45-4.44-1.45-7.22,0-2.1.27-3.99.81-5.66s1.32-3.08,2.35-4.25,2.27-2.06,3.74-2.69c1.47-.63,3.11-.94,4.94-.94,2.46,0,4.57.54,6.35,1.63,1.78,1.09,3.14,2.64,4.1,4.66s1.43,4.42,1.43,7.2c0,2.1-.28,4-.83,5.68-.55,1.68-1.34,3.11-2.37,4.28-1.03,1.18-2.27,2.08-3.74,2.7-1.47.63-3.11.94-4.94.94ZM124.85,40.05c2,0,3.71-.45,5.11-1.35,1.4-.9,2.47-2.21,3.21-3.91.74-1.7,1.11-3.77,1.11-6.2,0-3.63-.82-6.45-2.46-8.44-1.64-1.99-3.97-2.99-6.97-2.99-1.98,0-3.67.45-5.07,1.35s-2.47,2.2-3.21,3.91c-.74,1.71-1.11,3.76-1.11,6.16,0,3.61.83,6.42,2.48,8.44,1.65,2.02,3.96,3.03,6.92,3.03Z"/>
        <path class="st1" d="M147.44,42.07c-.35,0-.62-.1-.81-.3-.19-.2-.28-.49-.28-.86v-24.58c0-.4.09-.7.26-.9s.41-.3.71-.3c.33,0,.56.05.71.15.15.1.31.29.49.56l17.29,23.26h-.86v-22.85c0-.38.09-.66.28-.85s.46-.28.81-.28c.33,0,.58.09.77.28s.28.47.28.85v24.66c0,.38-.08.66-.24.86-.16.2-.4.3-.7.3-.28,0-.5-.06-.68-.17-.18-.11-.36-.3-.56-.55l-17.25-23.26h.83v22.81c0,.38-.09.66-.28.86-.19.2-.45.3-.77.3Z"/>
        <path class="st1" d="M189.53,42.15c-2.78,0-5.12-.53-7.03-1.6-1.9-1.06-3.35-2.61-4.32-4.64-.98-2.03-1.47-4.47-1.47-7.33,0-2.1.28-3.99.83-5.66.55-1.67,1.35-3.08,2.39-4.25s2.32-2.06,3.83-2.69c1.52-.63,3.24-.94,5.17-.94,1.68,0,3.27.24,4.77.71,1.5.48,2.81,1.23,3.91,2.25.23.2.36.41.41.62.05.21.04.43-.04.64-.07.21-.19.39-.36.53-.16.14-.35.21-.56.22-.21.01-.44-.07-.7-.24-1.03-.93-2.16-1.59-3.4-1.99-1.24-.4-2.6-.6-4.08-.6-2.08,0-3.85.45-5.3,1.33-1.45.89-2.56,2.19-3.31,3.89-.75,1.71-1.13,3.76-1.13,6.16,0,3.73.86,6.58,2.59,8.53,1.73,1.95,4.33,2.93,7.82,2.93,1.3,0,2.56-.13,3.76-.38,1.2-.25,2.33-.6,3.38-1.05l-.56,1.58v-9.96h-5.94c-.35,0-.62-.09-.81-.28-.19-.19-.28-.43-.28-.73s.09-.53.28-.7c.19-.16.46-.24.81-.24h6.95c.35,0,.61.09.79.28.18.19.26.44.26.77v10.11c0,.3-.04.55-.13.75-.09.2-.24.35-.47.45-1,.43-2.25.78-3.74,1.07-1.49.29-2.94.43-4.34.43Z"/>
        <path class="st1" d="M209.79,42.07c-.35,0-.63-.11-.83-.32-.2-.21-.3-.51-.3-.88v-24.32c0-.4.11-.7.32-.9.21-.2.49-.3.85-.3h8.83c2.81,0,4.96.65,6.46,1.96,1.5,1.3,2.25,3.16,2.25,5.56,0,1.55-.34,2.89-1.01,4s-1.67,1.96-2.99,2.54c-1.32.58-2.89.86-4.72.86l.41-.49h.53c.95,0,1.79.25,2.5.75.71.5,1.36,1.32,1.94,2.44l3.98,7.4c.18.28.26.54.24.81-.01.26-.11.48-.28.64-.18.16-.4.24-.68.24-.33,0-.6-.07-.81-.22-.21-.15-.4-.36-.55-.64l-4.21-7.85c-.65-1.2-1.38-2-2.18-2.39-.8-.39-1.88-.58-3.23-.58h-5.37v10.48c0,.38-.09.67-.28.88-.19.21-.48.32-.88.32ZM210.96,28.43h7.4c2.23,0,3.9-.47,5.02-1.41,1.11-.94,1.67-2.33,1.67-4.15s-.56-3.18-1.67-4.11c-1.12-.94-2.79-1.41-5.02-1.41h-7.4v11.09Z"/>
        <path class="st1" d="M238.54,41.85c-.4,0-.71-.11-.94-.34s-.34-.55-.34-.98v-23.87c0-.43.11-.75.34-.98.23-.22.54-.34.94-.34h14.21c.35,0,.61.09.79.26.18.18.26.41.26.71,0,.35-.09.61-.26.77-.18.16-.44.24-.79.24h-13.23v10.07h12.48c.35,0,.61.08.79.24.18.16.26.41.26.73s-.09.58-.26.75c-.18.18-.44.26-.79.26h-12.48v10.45h13.23c.35,0,.61.08.79.24.18.16.26.41.26.73s-.09.58-.26.75c-.18.18-.44.26-.79.26h-14.21Z"/>
        <path class="st1" d="M270.56,42.15c-1.2,0-2.37-.1-3.5-.3s-2.17-.51-3.14-.92c-.97-.41-1.84-.92-2.61-1.52-.25-.18-.42-.38-.51-.62-.09-.24-.1-.46-.04-.68s.18-.4.34-.55.36-.23.58-.24c.23-.01.46.07.71.24,1.15.85,2.37,1.48,3.66,1.88,1.29.4,2.79.6,4.49.6,2.38,0,4.17-.46,5.36-1.39,1.19-.93,1.79-2.14,1.79-3.65,0-1.25-.43-2.23-1.3-2.93-.86-.7-2.29-1.25-4.27-1.65l-3.8-.79c-2.38-.48-4.15-1.28-5.3-2.41-1.15-1.13-1.73-2.63-1.73-4.51,0-1.15.22-2.2.68-3.14.45-.94,1.09-1.75,1.92-2.42.83-.68,1.81-1.2,2.95-1.56,1.14-.36,2.4-.54,3.78-.54,1.63,0,3.13.22,4.49.68,1.37.45,2.61,1.16,3.74,2.14.23.18.38.38.45.62.08.24.08.46,0,.68-.07.21-.19.38-.34.51-.15.13-.34.19-.56.21-.23.01-.46-.08-.71-.28-1.05-.85-2.15-1.47-3.29-1.86-1.14-.39-2.4-.58-3.78-.58s-2.63.22-3.66.68c-1.04.45-1.85,1.09-2.42,1.92-.58.83-.86,1.8-.86,2.93,0,1.3.4,2.34,1.2,3.12s2.09,1.34,3.87,1.69l3.83.79c2.53.53,4.41,1.31,5.64,2.35,1.23,1.04,1.84,2.46,1.84,4.27,0,1.08-.22,2.06-.66,2.95-.44.89-1.07,1.66-1.9,2.31-.83.65-1.82,1.15-2.99,1.48-1.17.34-2.49.51-3.97.51Z"/>
        <path class="st1" d="M299.65,42.15c-2.41,0-4.5-.55-6.28-1.65-1.78-1.1-3.15-2.67-4.11-4.7-.97-2.03-1.45-4.44-1.45-7.22,0-2.1.27-3.99.81-5.66s1.32-3.08,2.35-4.25,2.27-2.06,3.74-2.69c1.47-.63,3.11-.94,4.94-.94,2.46,0,4.57.54,6.35,1.63,1.78,1.09,3.14,2.64,4.1,4.66s1.43,4.42,1.43,7.2c0,2.1-.28,4-.83,5.68-.55,1.68-1.34,3.11-2.37,4.28-1.03,1.18-2.27,2.08-3.74,2.7-1.47.63-3.11.94-4.94.94ZM299.65,40.05c2,0,3.71-.45,5.11-1.35,1.4-.9,2.47-2.21,3.21-3.91.74-1.7,1.11-3.77,1.11-6.2,0-3.63-.82-6.45-2.46-8.44-1.64-1.99-3.97-2.99-6.97-2.99-1.98,0-3.67.45-5.07,1.35s-2.47,2.2-3.21,3.91c-.74,1.71-1.11,3.76-1.11,6.16,0,3.61.83,6.42,2.48,8.44,1.65,2.02,3.96,3.03,6.92,3.03Z"/>
        <path class="st1" d="M335.54,41.85c-.35,0-.63-.11-.85-.32-.21-.21-.32-.51-.32-.88v-24.28c0-.4.1-.7.3-.9s.48-.3.83-.3c.38,0,.66.1.86.3.2.2.3.5.3.9v23.42h12.93c.38,0,.66.09.85.26.19.17.28.43.28.75,0,.35-.09.61-.28.79-.19.18-.47.26-.85.26h-14.06Z"/>
        <path class="st1" d="M356.44,42.07c-.33,0-.58-.07-.77-.21-.19-.14-.29-.33-.3-.58-.01-.25.04-.53.17-.83l10.56-24.28c.18-.38.39-.64.64-.81.25-.16.5-.24.75-.24.3,0,.57.08.81.24.24.16.43.43.58.81l10.56,24.28c.15.3.22.58.21.83s-.1.44-.26.58c-.16.14-.41.21-.73.21-.35,0-.63-.09-.85-.28-.21-.19-.4-.44-.54-.77l-2.89-6.8,1.24.56h-16.27l1.28-.56-2.89,6.8c-.15.38-.33.65-.54.81-.21.16-.46.24-.73.24ZM367.45,18.21l-6.39,15.03-.86-.45h14.54l-.79.45-6.43-15.03h-.08Z"/>
        <path class="st1" d="M393.12,42.07c-.38,0-.66-.11-.86-.32s-.3-.51-.3-.88v-23.45h-8.98c-.35,0-.63-.1-.83-.3-.2-.2-.3-.45-.3-.75,0-.32.1-.57.3-.75s.48-.26.83-.26h20.33c.35,0,.62.09.81.26s.28.43.28.75-.09.58-.28.77-.46.28-.81.28h-9.02v23.45c0,.38-.09.67-.28.88-.19.21-.48.32-.88.32Z"/>
        <path class="st1" d="M412.63,42.07c-.35,0-.63-.11-.83-.32-.2-.21-.3-.51-.3-.88v-24.54c0-.4.1-.7.3-.9.2-.2.48-.3.83-.3.38,0,.66.1.86.3s.3.5.3.9v24.54c0,.38-.09.67-.28.88-.19.21-.48.32-.88.32Z"/>
        <path class="st1" d="M425.56,42.07c-.35,0-.62-.1-.81-.3-.19-.2-.28-.49-.28-.86v-24.58c0-.4.09-.7.26-.9.18-.2.41-.3.71-.3.33,0,.56.05.71.15.15.1.31.29.49.56l17.29,23.26h-.86v-22.85c0-.38.09-.66.28-.85s.46-.28.81-.28c.33,0,.58.09.77.28s.28.47.28.85v24.66c0,.38-.08.66-.24.86-.16.2-.4.3-.7.3-.28,0-.5-.06-.68-.17-.18-.11-.36-.3-.56-.55l-17.25-23.26h.83v22.81c0,.38-.09.66-.28.86-.19.2-.45.3-.77.3Z"/>
        <path class="st1" d="M466.67,42.15c-2.41,0-4.5-.55-6.28-1.65-1.78-1.1-3.15-2.67-4.11-4.7-.97-2.03-1.45-4.44-1.45-7.22,0-2.1.27-3.99.81-5.66s1.32-3.08,2.35-4.25,2.27-2.06,3.74-2.69c1.47-.63,3.11-.94,4.94-.94,2.46,0,4.57.54,6.35,1.63,1.78,1.09,3.14,2.64,4.1,4.66s1.43,4.42,1.43,7.2c0,2.1-.28,4-.83,5.68-.55,1.68-1.34,3.11-2.37,4.28-1.03,1.18-2.27,2.08-3.74,2.7-1.47.63-3.11.94-4.94.94ZM466.67,40.05c2,0,3.71-.45,5.11-1.35,1.4-.9,2.47-2.21,3.21-3.91.74-1.7,1.11-3.77,1.11-6.2,0-3.63-.82-6.45-2.46-8.44-1.64-1.99-3.97-2.99-6.97-2.99-1.98,0-3.67.45-5.07,1.35s-2.47,2.2-3.21,3.91c-.74,1.71-1.11,3.76-1.11,6.16,0,3.61.83,6.42,2.48,8.44,1.65,2.02,3.96,3.03,6.92,3.03Z"/>
        <path class="st1" d="M486.82,42.07c-.33,0-.58-.07-.77-.21-.19-.14-.29-.33-.3-.58-.01-.25.04-.53.17-.83l10.56-24.28c.18-.38.39-.64.64-.81.25-.16.5-.24.75-.24.3,0,.57.08.81.24.24.16.43.43.58.81l10.56,24.28c.15.3.22.58.21.83s-.1.44-.26.58c-.16.14-.41.21-.73.21-.35,0-.63-.09-.85-.28-.21-.19-.4-.44-.54-.77l-2.89-6.8,1.24.56h-16.27l1.28-.56-2.89,6.8c-.15.38-.33.65-.54.81-.21.16-.46.24-.73.24ZM497.83,18.21l-6.39,15.03-.86-.45h14.54l-.79.45-6.43-15.03h-.08Z"/>
        <path class="st1" d="M519.78,42.07c-.33,0-.58-.1-.77-.3-.19-.2-.28-.48-.28-.83v-24.69c0-.38.09-.66.28-.85s.43-.28.73-.28c.32,0,.58.06.75.19s.34.33.49.6l10.75,20.41h-1.05l10.67-20.41c.18-.28.34-.48.51-.6.16-.13.41-.19.73-.19.3,0,.54.09.73.28s.28.47.28.85v24.69c0,.35-.09.63-.26.83-.18.2-.44.3-.79.3s-.62-.1-.81-.3c-.19-.2-.28-.48-.28-.83v-22.81h.9l-10.07,19.09c-.13.25-.26.44-.41.56-.15.13-.36.19-.64.19-.3,0-.53-.07-.7-.21-.16-.14-.31-.32-.43-.55l-10.19-19.13h.9v22.85c0,.35-.09.63-.26.83-.18.2-.44.3-.79.3Z"/>
        <path class="st1" d="M555.6,41.85c-.4,0-.71-.11-.94-.34s-.34-.55-.34-.98v-23.87c0-.43.11-.75.34-.98.23-.22.54-.34.94-.34h14.21c.35,0,.61.09.79.26.18.18.26.41.26.71,0,.35-.09.61-.26.77-.18.16-.44.24-.79.24h-13.23v10.07h12.48c.35,0,.61.08.79.24.18.16.26.41.26.73s-.09.58-.26.75c-.18.18-.44.26-.79.26h-12.48v10.45h13.23c.35,0,.61.08.79.24.18.16.26.41.26.73s-.09.58-.26.75c-.18.18-.44.26-.79.26h-14.21Z"/>
        <path class="st1" d="M580.85,42.07c-.35,0-.63-.11-.83-.32-.2-.21-.3-.51-.3-.88v-24.32c0-.4.11-.7.32-.9.21-.2.49-.3.85-.3h8.83c2.81,0,4.96.65,6.46,1.96,1.5,1.3,2.25,3.16,2.25,5.56,0,1.55-.34,2.89-1.01,4s-1.67,1.96-2.99,2.54c-1.32.58-2.89.86-4.72.86l.41-.49h.53c.95,0,1.79.25,2.5.75.71.5,1.36,1.32,1.94,2.44l3.98,7.4c.18.28.26.54.24.81-.01.26-.11.48-.28.64-.18.16-.4.24-.68.24-.33,0-.6-.07-.81-.22-.21-.15-.4-.36-.55-.64l-4.21-7.85c-.65-1.2-1.38-2-2.18-2.39-.8-.39-1.88-.58-3.23-.58h-5.37v10.48c0,.38-.09.67-.28.88-.19.21-.48.32-.88.32ZM582.02,28.43h7.4c2.23,0,3.9-.47,5.02-1.41,1.11-.94,1.67-2.33,1.67-4.15s-.56-3.18-1.67-4.11c-1.12-.94-2.79-1.41-5.02-1.41h-7.4v11.09Z"/>
        <path class="st1" d="M609.45,42.07c-.35,0-.63-.11-.83-.32-.2-.21-.3-.51-.3-.88v-24.54c0-.4.1-.7.3-.9.2-.2.48-.3.83-.3.38,0,.66.1.86.3s.3.5.3.9v24.54c0,.38-.09.67-.28.88-.19.21-.48.32-.88.32Z"/>
        <path class="st1" d="M632.34,42.15c-2.53,0-4.7-.55-6.5-1.63-1.8-1.09-3.19-2.65-4.15-4.68-.97-2.03-1.45-4.45-1.45-7.25,0-2.1.27-3.99.81-5.66s1.33-3.08,2.37-4.25c1.04-1.17,2.32-2.06,3.83-2.69,1.52-.63,3.21-.94,5.09-.94,1.65,0,3.19.24,4.62.71,1.43.48,2.65,1.18,3.68,2.1.25.22.41.46.49.71s.08.48.02.7-.18.39-.36.53c-.18.14-.38.2-.62.19-.24-.01-.49-.13-.77-.36-.95-.83-2.01-1.44-3.18-1.84-1.16-.4-2.45-.6-3.85-.6-2.08,0-3.84.45-5.28,1.33-1.44.89-2.53,2.19-3.27,3.89-.74,1.71-1.11,3.76-1.11,6.16s.37,4.5,1.11,6.2,1.83,3,3.27,3.89c1.44.89,3.2,1.33,5.28,1.33,1.38,0,2.65-.21,3.83-.62,1.18-.41,2.25-1.03,3.23-1.86.28-.22.53-.34.77-.34s.44.07.6.21c.16.14.28.31.36.53.07.21.08.43.02.66-.06.22-.21.44-.43.64-1.08.98-2.32,1.71-3.74,2.2s-2.98.73-4.68.73Z"/>
        <path class="st1" d="M648.58,42.07c-.33,0-.58-.07-.77-.21-.19-.14-.29-.33-.3-.58-.01-.25.04-.53.17-.83l10.56-24.28c.17-.38.39-.64.64-.81.25-.16.5-.24.75-.24.3,0,.57.08.81.24.24.16.43.43.58.81l10.56,24.28c.15.3.22.58.21.83-.01.25-.1.44-.26.58-.16.14-.41.21-.73.21-.35,0-.63-.09-.84-.28s-.4-.44-.55-.77l-2.89-6.8,1.24.56h-16.28l1.28-.56-2.89,6.8c-.15.38-.33.65-.55.81-.21.16-.46.24-.73.24ZM659.59,18.21l-6.39,15.03-.86-.45h14.55l-.79.45-6.43-15.03h-.08Z"/>
        <path class="st1" d="M681.5,42.07c-.35,0-.62-.1-.81-.3-.19-.2-.28-.49-.28-.86v-24.58c0-.4.09-.7.26-.9.17-.2.41-.3.71-.3.32,0,.56.05.71.15s.31.29.49.56l17.29,23.26h-.86v-22.85c0-.38.09-.66.28-.85s.46-.28.81-.28c.33,0,.58.09.77.28s.28.47.28.85v24.66c0,.38-.08.66-.24.86-.16.2-.39.3-.69.3-.28,0-.5-.06-.68-.17-.18-.11-.36-.3-.56-.55l-17.25-23.26h.83v22.81c0,.38-.09.66-.28.86-.19.2-.44.3-.77.3Z"/>
        <path class="st1" d="M722.62,42.15c-2.41,0-4.5-.55-6.28-1.65-1.78-1.1-3.15-2.67-4.11-4.7-.97-2.03-1.45-4.44-1.45-7.22,0-2.1.27-3.99.81-5.66.54-1.67,1.32-3.08,2.35-4.25s2.27-2.06,3.74-2.69c1.47-.63,3.11-.94,4.94-.94,2.45,0,4.57.54,6.35,1.63,1.78,1.09,3.14,2.64,4.1,4.66s1.43,4.42,1.43,7.2c0,2.1-.28,4-.83,5.68-.55,1.68-1.34,3.11-2.37,4.28-1.03,1.18-2.27,2.08-3.74,2.7-1.47.63-3.11.94-4.94.94ZM722.62,40.05c2,0,3.71-.45,5.11-1.35,1.4-.9,2.47-2.21,3.21-3.91s1.11-3.77,1.11-6.2c0-3.63-.82-6.45-2.46-8.44-1.64-1.99-3.96-2.99-6.97-2.99-1.98,0-3.67.45-5.07,1.35s-2.47,2.2-3.21,3.91c-.74,1.71-1.11,3.76-1.11,6.16,0,3.61.83,6.42,2.48,8.44,1.65,2.02,3.96,3.03,6.92,3.03Z"/>
        <path class="st0" d="M24.27,64.91h45c6.21,0,15.16.95,21.6,7.04,2.03,2.03,6.33,7.28,6.33,17.19,0,7.64-2.63,12.41-5.61,15.64-2.03,2.03-4.77,3.94-8.24,5.01v.48c4.18,1.07,6.68,3.22,8.47,5.49,3.46,4.42,3.34,8.83,3.46,13.97l.24,7.04c0,4.06.12,7.4,3.22,11.7h-23.16c-2.51-3.46-2.63-5.97-2.98-9.67l-.36-6.92c-.12-3.34,0-7.4-2.87-10.27-2.39-2.39-6.8-2.98-10.15-2.98h-12.05v29.84h-22.92v-83.55ZM47.19,102.27h15.99c2.98,0,6.09-.72,8.35-2.63,1.43-1.31,3.1-3.7,3.1-7.52s-1.67-5.73-2.98-6.8c-2.27-1.79-5.61-1.91-8.47-1.91h-15.99v18.86Z"/>
        <path class="st0" d="M168.57,97.26v17.54h-39.03v14.44h45.95v19.22h-68.75v-83.55h67.67v19.1h-44.88v13.25h39.03Z"/>
        <path class="st0" d="M259.64,118.26c-1.31,13.01-8.24,20.77-9.67,22.2-8.24,8.59-19.81,10.38-29.36,10.38-10.03,0-21.48-1.79-30.44-10.98-3.58-3.94-11.7-13.73-11.7-33.54,0-15.87,5.49-26.5,11.34-32.59,9.07-9.31,21.13-11.1,29.96-11.1,15.64,0,24.47,5.25,29.6,10.02,4.89,4.89,8.83,12.41,9.43,21.48h-22.32c-.48-2.98-1.67-6.09-3.46-8-3.22-3.7-7.88-4.3-11.58-4.3-4.18,0-8.59.6-12.29,4.42-6.09,6.09-6.21,17.78-6.21,20.65,0,10.03,2.86,16.59,6.8,20.29,3.46,3.22,7.52,4.3,12.18,4.3s8.24-1.43,10.5-3.46c2.75-2.39,4.3-6.09,4.65-9.79h22.56Z"/>
        <path class="st0" d="M341.03,117.07c0,8.12-1.19,15.52-6.8,22.32-7.16,8.59-18.26,11.46-30.67,11.46-9.91,0-22.56-2.39-29.6-9.67-7.28-7.28-7.76-18.26-7.76-24.11v-52.16h22.92v49.89c0,3.58.12,9.55,3.58,13.37,1.91,2.03,5.13,3.94,10.86,3.94s8.95-1.91,10.86-3.94c3.34-3.7,3.7-8.95,3.7-13.37v-49.89h22.92v52.16Z"/>
        <path class="st0" d="M352.96,64.91h45c6.21,0,15.16.95,21.6,7.04,2.03,2.03,6.33,7.28,6.33,17.19,0,7.64-2.63,12.41-5.61,15.64-2.03,2.03-4.77,3.94-8.24,5.01v.48c4.18,1.07,6.68,3.22,8.47,5.49,3.46,4.42,3.34,8.83,3.46,13.97l.24,7.04c0,4.06.12,7.4,3.22,11.7h-23.16c-2.51-3.46-2.63-5.97-2.98-9.67l-.36-6.92c-.12-3.34,0-7.4-2.87-10.27-2.39-2.39-6.8-2.98-10.15-2.98h-12.05v29.84h-22.92v-83.55ZM375.88,102.27h15.99c2.98,0,6.09-.72,8.35-2.63,1.43-1.31,3.1-3.7,3.1-7.52s-1.67-5.73-2.98-6.8c-2.27-1.79-5.61-1.91-8.47-1.91h-15.99v18.86Z"/>
        <path class="st0" d="M453.7,121.13c-.12,2.87.84,6.92,2.87,9.19,2.27,2.51,6.44,3.58,11.22,3.58.95,0,6.33-.24,9.55-2.15,2.27-1.31,3.94-3.82,3.94-7.04,0-2.27-.84-4.42-3.7-6.21-1.79-1.19-7.76-2.51-8.95-2.87l-8.59-1.91c-6.8-1.67-15.28-3.1-20.65-8.24-3.7-3.34-6.68-9.07-6.68-16.35,0-4.65,1.31-12.89,9.55-19.22,7.64-6.09,16.95-7.28,24.95-7.28,4.77,0,16.11.24,23.75,5.97,4.3,3.34,9.19,9.91,9.79,19.69h-21.6c-.12-3.82-2.27-5.85-3.1-6.44-2.75-2.15-7.28-2.27-8.95-2.27-2.27,0-5.85.36-8.59,2.27-2.03,1.43-2.98,3.34-2.98,4.89,0,1.79.72,3.94,2.27,5.25,1.55,1.43,4.42,1.91,12.89,3.82l9.43,2.15c5.01,1.31,12.17,3.82,16.59,7.52,4.18,3.7,7.16,8.95,7.16,17.07,0,9.55-3.7,15.4-8.12,19.57-8.71,8-21.48,8.83-28.65,8.83-8.59,0-20.29-1.55-27.93-8.83-4.66-4.65-8.47-11.82-8.47-21.01h23.04Z"/>
        <path class="st0" d="M582.48,73.98c4.89,4.9,11.7,15.16,11.7,33.18,0,15.87-5.49,26.14-12.17,32.7-9.19,8.83-20.89,10.98-30.91,10.98-9.31,0-21.01-1.31-30.79-10.86-6.8-6.57-12.41-17.31-12.41-33.54s5.85-26.5,11.58-32.23c9.79-10.03,23.04-11.7,31.39-11.7,16.59,0,26.14,5.97,31.63,11.46ZM538.2,86.75c-5.49,5.85-5.85,15.75-5.85,20.05,0,6.21.72,14.68,5.85,19.81,3.7,4.18,8.35,5.01,12.77,5.01,3.7,0,8.59-.84,12.77-5.01,4.66-4.89,5.97-13.37,5.97-20.17,0-8.59-1.79-15.64-5.97-19.81-3.7-3.82-8.12-4.89-12.77-4.89-4.89,0-9.31,1.31-12.77,5.01Z"/>
        <path class="st0" d="M620.31,121.13c-.12,2.87.84,6.92,2.87,9.19,2.27,2.51,6.44,3.58,11.22,3.58.95,0,6.33-.24,9.55-2.15,2.27-1.31,3.94-3.82,3.94-7.04,0-2.27-.84-4.42-3.7-6.21-1.79-1.19-7.76-2.51-8.95-2.87l-8.59-1.91c-6.8-1.67-15.28-3.1-20.65-8.24-3.7-3.34-6.68-9.07-6.68-16.35,0-4.65,1.31-12.89,9.55-19.22,7.64-6.09,16.95-7.28,24.95-7.28,4.77,0,16.11.24,23.75,5.97,4.3,3.34,9.19,9.91,9.79,19.69h-21.6c-.12-3.82-2.27-5.85-3.1-6.44-2.75-2.15-7.28-2.27-8.95-2.27-2.27,0-5.85.36-8.59,2.27-2.03,1.43-2.98,3.34-2.98,4.89,0,1.79.72,3.94,2.27,5.25,1.55,1.43,4.42,1.91,12.89,3.82l9.43,2.15c5.01,1.31,12.17,3.82,16.59,7.52,4.18,3.7,7.16,8.95,7.16,17.07,0,9.55-3.7,15.4-8.12,19.57-8.71,8-21.48,8.83-28.65,8.83-8.59,0-20.29-1.55-27.93-8.83-4.66-4.65-8.47-11.82-8.47-21.01h23.04Z"/>
        <path class="st0" d="M722.35,148.46h-22.92v-83.55h22.92v30.08h26.86v-30.08h22.92v83.55h-22.92v-34.37h-26.86v34.37Z"/>
        <path class="st0" d="M806.97,64.91v83.55h-22.92v-83.55h22.92ZM814.25,42.83l-13.01,15.75h-15.87l8.12-15.75h20.77Z"/>
        <path class="st0" d="M857.82,64.91c8.24,0,19.93,1.07,28.88,9.67,7.64,7.28,11.1,18.98,11.1,31.87,0,14.8-4.77,25.78-11.46,32.11-9.19,8.83-20.89,9.91-30.32,9.91h-37.12v-83.55h38.91ZM841.7,129.13h10.98c3.7,0,10.27-.36,14.8-4.89,5.49-5.25,5.73-13.85,5.73-17.78s-.36-12.89-5.49-18.02c-4.42-4.42-10.5-4.42-14.56-4.42h-11.46v45.12Z"/>
        <path class="st0" d="M906.15,64.91h45c6.21,0,15.16.95,21.6,7.04,2.03,2.03,6.32,7.28,6.32,17.19,0,7.64-2.62,12.41-5.61,15.64-2.03,2.03-4.77,3.94-8.24,5.01v.48c4.18,1.07,6.68,3.22,8.47,5.49,3.46,4.42,3.34,8.83,3.46,13.97l.24,7.04c0,4.06.12,7.4,3.22,11.7h-23.16c-2.51-3.46-2.63-5.97-2.98-9.67l-.36-6.92c-.12-3.34,0-7.4-2.87-10.27-2.39-2.39-6.8-2.98-10.15-2.98h-12.05v29.84h-22.92v-83.55ZM929.06,102.27h16c2.98,0,6.09-.72,8.35-2.63,1.43-1.31,3.1-3.7,3.1-7.52s-1.67-5.73-2.98-6.8c-2.27-1.79-5.61-1.91-8.47-1.91h-16v18.86Z"/>
        <path class="st0" d="M1011.53,64.91v83.55h-22.92v-83.55h22.92Z"/>
        <path class="st0" d="M1101.05,118.26c-1.31,13.01-8.24,20.77-9.67,22.2-8.24,8.59-19.81,10.38-29.36,10.38-10.02,0-21.48-1.79-30.44-10.98-3.58-3.94-11.7-13.73-11.7-33.54,0-15.87,5.49-26.5,11.34-32.59,9.07-9.31,21.13-11.1,29.96-11.1,15.64,0,24.47,5.25,29.6,10.02,4.89,4.89,8.83,12.41,9.43,21.48h-22.32c-.48-2.98-1.67-6.09-3.46-8-3.22-3.7-7.88-4.3-11.58-4.3-4.18,0-8.6.6-12.3,4.42-6.09,6.09-6.21,17.78-6.21,20.65,0,10.03,2.87,16.59,6.8,20.29,3.46,3.22,7.52,4.3,12.17,4.3s8.24-1.43,10.5-3.46c2.74-2.39,4.3-6.09,4.65-9.79h22.56Z"/>
        <path class="st0" d="M1179.1,73.98c4.89,4.9,11.7,15.16,11.7,33.18,0,15.87-5.49,26.14-12.17,32.7-9.19,8.83-20.89,10.98-30.91,10.98-9.31,0-21.01-1.31-30.79-10.86-6.8-6.57-12.41-17.31-12.41-33.54s5.85-26.5,11.58-32.23c9.79-10.03,23.04-11.7,31.39-11.7,16.59,0,26.14,5.97,31.63,11.46ZM1134.82,86.75c-5.49,5.85-5.85,15.75-5.85,20.05,0,6.21.72,14.68,5.85,19.81,3.7,4.18,8.36,5.01,12.77,5.01,3.7,0,8.59-.84,12.77-5.01,4.65-4.89,5.97-13.37,5.97-20.17,0-8.59-1.79-15.64-5.97-19.81-3.7-3.82-8.12-4.89-12.77-4.89-4.89,0-9.31,1.31-12.77,5.01Z"/>
        <path class="st0" d="M69.87,177.66h24.71l-29.12,53.11v30.44h-22.92v-30.44l-29.6-53.11h25.18l15.87,34.97,15.88-34.97Z"/>
        <path class="st0" d="M194.59,231.02c-1.31,13.01-8.24,20.77-9.67,22.2-8.24,8.59-19.81,10.38-29.36,10.38-10.03,0-21.48-1.79-30.44-10.98-3.58-3.94-11.7-13.73-11.7-33.54,0-15.87,5.49-26.5,11.34-32.59,9.07-9.31,21.13-11.1,29.96-11.1,15.64,0,24.47,5.25,29.6,10.02,4.89,4.89,8.83,12.41,9.43,21.48h-22.32c-.48-2.98-1.67-6.09-3.46-8-3.22-3.7-7.88-4.3-11.58-4.3-4.18,0-8.59.6-12.29,4.42-6.09,6.09-6.21,17.78-6.21,20.65,0,10.03,2.86,16.59,6.8,20.29,3.46,3.22,7.52,4.3,12.18,4.3s8.24-1.43,10.5-3.46c2.75-2.39,4.3-6.09,4.65-9.79h22.56Z"/>
        <path class="st0" d="M275.99,229.82c0,8.12-1.19,15.52-6.8,22.32-7.16,8.59-18.26,11.46-30.67,11.46-9.91,0-22.56-2.39-29.6-9.67-7.28-7.28-7.76-18.26-7.76-24.11v-52.16h22.92v49.89c0,3.58.12,9.55,3.58,13.37,1.91,2.03,5.13,3.94,10.86,3.94s8.95-1.91,10.86-3.94c3.34-3.7,3.7-8.95,3.7-13.37v-49.89h22.92v52.16Z"/>
        <path class="st0" d="M349.74,210.01v17.54h-39.03v14.44h45.95v19.22h-68.75v-83.55h67.67v19.1h-44.88v13.25h39.03Z"/>
        <path class="st0" d="M386.14,212.16v49.06h-22.92v-83.55h23.04l29,48.82h.36v-48.82h22.92v83.55h-23.04l-29-49.06h-.36Z"/>
        <path class="st0" d="M528.05,231.02c-1.31,13.01-8.24,20.77-9.67,22.2-8.24,8.59-19.81,10.38-29.36,10.38-10.03,0-21.48-1.79-30.44-10.98-3.58-3.94-11.7-13.73-11.7-33.54,0-15.87,5.49-26.5,11.34-32.59,9.07-9.31,21.13-11.1,29.96-11.1,15.64,0,24.47,5.25,29.6,10.02,4.89,4.89,8.83,12.41,9.43,21.48h-22.32c-.48-2.98-1.67-6.09-3.46-8-3.22-3.7-7.88-4.3-11.58-4.3-4.18,0-8.59.6-12.29,4.42-6.09,6.09-6.21,17.78-6.21,20.65,0,10.03,2.86,16.59,6.8,20.29,3.46,3.22,7.52,4.3,12.18,4.3s8.24-1.43,10.5-3.46c2.75-2.39,4.3-6.09,4.65-9.79h22.56Z"/>
        <path class="st0" d="M548.34,261.21h-23.87l31.03-83.55h22.8l31.15,83.55h-23.87l-4.65-13.73h-28.05l-4.54,13.73ZM576.27,231.73l-9.31-28.41-9.43,28.41h18.74Z"/>
        <path class="st0" d="M629.49,233.88c-.12,2.87.84,6.92,2.87,9.19,2.27,2.51,6.44,3.58,11.22,3.58.95,0,6.32-.24,9.55-2.15,2.27-1.31,3.94-3.82,3.94-7.04,0-2.27-.84-4.42-3.7-6.21-1.79-1.19-7.76-2.51-8.95-2.87l-8.59-1.91c-6.8-1.67-15.28-3.1-20.65-8.24-3.7-3.34-6.68-9.07-6.68-16.35,0-4.65,1.31-12.89,9.55-19.22,7.64-6.09,16.95-7.28,24.95-7.28,4.77,0,16.11.24,23.75,5.97,4.3,3.34,9.19,9.91,9.79,19.69h-21.6c-.12-3.82-2.27-5.85-3.1-6.44-2.75-2.15-7.28-2.27-8.95-2.27-2.27,0-5.85.36-8.59,2.27-2.03,1.43-2.98,3.34-2.98,4.89,0,1.79.72,3.94,2.27,5.25,1.55,1.43,4.42,1.91,12.89,3.82l9.43,2.15c5.01,1.31,12.17,3.82,16.59,7.52,4.18,3.7,7.16,8.95,7.16,17.07,0,9.55-3.7,15.4-8.12,19.57-8.71,8-21.49,8.83-28.65,8.83-8.59,0-20.29-1.55-27.93-8.83-4.66-4.65-8.47-11.82-8.47-21.01h23.04Z"/>
      </g>
    </g>
  </g>
  <metadata>
    <sfw xmlns="http://ns.adobe.com/SaveForWeb/1.0/">
      <slices/>
      <sliceSourceBounds x="12.94" y="-636.33" width="1254.13" height="531.96" bottomLeftOrigin="true"/>
    </sfw>
  </metadata>
</svg>