<?xml version="1.0" encoding="UTF-8"?>
<svg id="Capa_2" xmlns="http://www.w3.org/2000/svg" width="1000" height="1000" version="1.1" viewBox="0 0 1000 1000">
  <!-- Generator: Adobe Illustrator 29.8.2, SVG Export Plug-In . SVG Version: 2.1.1 Build 3)  -->
  <defs>
    <style>
      .st0 {
        fill: #1d1d1b;
        fill-rule: evenodd;
      }
    </style>
  </defs>
  <path class="st0" d="M695.8,484.63v-209.35c0-.63-.52-1.15-1.15-1.15h-404.02c-.64,0-1.15.51-1.15,1.15v209.35c0,.2.06.38.15.54,1.8,73.08,22.54,141.37,59.99,197.53,36.59,54.85,87.26,93.57,142.7,109.03.2.05.41.05.62,0,55.43-15.46,106.11-54.18,142.69-109.03,37.45-56.15,58.19-124.44,59.99-197.52.09-.17.16-.35.16-.55h0ZM687.57,483.37c-.07.38-.13.74-.14,1.09-3.38,143.81-83.46,266.62-194.8,298.8-111.34-32.18-191.43-154.99-194.8-298.8,0-.36-.07-.72-.14-1.1v-201.02h389.87v201.03h0Z"/>
  <path class="st0" d="M492.23,733.9c.26.09.55.09.81,0,86.35-32.33,148.59-135.44,151.35-250.76.02-.98.08-1.68.12-2.19,0-.1,0-152.01,0-152.01,0-.64-.51-1.15-1.15-1.15h-301.47c-.64,0-1.15.51-1.15,1.15v151.91c.05.63.1,1.3.13,2.28,2.75,115.32,64.99,218.45,151.35,250.77h0ZM492.64,725.21c-81.85-32.21-140.82-131.75-143.46-242.29-.03-1.07-.08-1.85-.13-2.41,0,.08,0-116.15,0-141.02.89,1.91,1.82,3.74,2.6,4.91,2.3,3.46,7.49,13.26,7.49,13.26,0,0,.55,4.49-1.18,5.07-1.73.58,2.33,3,3.48,4.73,1.16,1.73,4.04,6.92,6.34,7.49,2.31.58,2.88-2.31,1.15-5.19-1.73-2.88-4.98-10.29-4.98-10.29,0,0-.79-4.12-2.52-8.16-1.73-4.03-3.46-9.22-3.46-9.22,0,0,9.57,2.44,10.72,7.63.53,2.37,3.57,15.51,6.57,23.5,1.73,4.61,4.61,8.07,7.49,12.11,2.88,4.03,9.8,10.38,17.87,12.68,8.07,2.3,17.29-2.88,21.33,0,4.04,2.88,11.53,10.38,16.71,12.1,5.19,1.73,19.03,4.61,21.91,10.38,2.88,5.77,9.8,6.34,13.26,6.92,3.46.58,14.99,5.19,14.99,15.56l-9.22,19.02s-6.92,7.49-8.07,14.41c-1.15,6.92-4.61,10.95,2.31,21.33,6.92,10.38,11.53,23.06,12.11,32.28.57,9.22,9.22,10.38,14.99,14.41,5.77,4.04,0,8.07-3.46,16.72-3.46,8.65-1.73,26.52-5.19,38.05-3.46,11.53-7.49,15.56-7.49,24.79s.58,19.02-2.88,27.09c-3.46,8.07-1.16,15.56-1.73,24.21-.58,8.65,1.73,19.02,7.49,26.51,5.77,7.49,19.03,10.96,17.3-.57-1.73-11.53.57-26.52,7.49-34.01l6.92-7.49s-1.16-10.95,5.77-15.56c6.92-4.61,11.53-8.07,7.49-9.8-4.04-1.73,0-5.77,4.04-5.77s5.76,1.73,14.99-9.22c9.22-10.95,12.1-13.26,21.33-18.44,9.22-5.19,12.68-15.57,18.45-21.33,5.76-5.77,16.14-10.95,22.48-12.11,6.34-1.15,9.8-7.49,9.8-14.99s-2.31-12.68,2.88-20.75c4.92-7.65,2.08-9.61,6.69-13.73-12.79,95.99-67.6,178.43-140.67,207.19h0ZM636.23,480.53c-.05.57-.11,1.37-.13,2.44-.11,4.57-.35,9.12-.65,13.65-4.31-4.18-11.09-6.97-15.17-11.56-4.61-5.19-10.95-8.65-13.26-9.8-2.3-1.15-3.45-3.46-9.8-2.31-6.34,1.15-11.53,0-12.68-6.34-1.16-6.34-.58-12.68-6.92-16.14-6.34-3.46-10.38-7.49-14.99-10.95-4.61-3.46-9.22-9.8-10.95-10.38-1.73-.58-13.84.58-13.84.58,0,0-6.91-6.34-17.29-4.04,0,0-6.34-9.8-13.26-4.61-6.92,5.19-12.68,8.65-16.72,3.46-4.04-5.19-10.95-2.88-15.56-2.31-4.61.58-8.65-7.49-9.8-10.95-1.15-3.46,0-8.65-1.73-8.65s-8.65,2.31-13.26-1.15c-4.61-3.46-2.31-6.92-.58-9.8,1.73-2.88,4.04-14.41,2.88-16.72l-5.19-.58s-6.34-1.15-7.49,3.46c-1.16,4.61-9.22,9.22-15.56,7.49-6.34-1.73-10.95-5.77-13.26-12.11-2.31-6.34-1.73-10.38-.57-13.83,1.15-3.46-3.98-9.68-5.71-11.41-1.73-1.73-1.81,1.08-5.27-4.69-1.82-3.03-4.41-5.58-6.47-7.34h243.21c0,13.56,0,144.66,0,144.57h0Z"/>
  <path class="st0" d="M380.79,108.28c-8.05-3.86-16.47-2.04-19.66,1.86-2.01,2.45-3.26,3.13-3.61,3.28-1.87-.1-13.18-.46-17.9,5.81-2.45,3.26-2.68,7.67-.66,13.09,6.92,18.66,7.67,22,7.69,22.14.05.23.17.44.33.6.12.12,12.34,11.98,7.18,23.16-5.73,12.41-4.65,15.32,2.06,18.84,5.36,2.82,7.75,6.12,7.75,18.19v.93c0,8.48-.01,15.81,4.01,19.83,2.02,2.02,4.83,3,8.6,3,2.76,0,5.04-1.09,6.76-3.25,5.53-6.91,3.79-22.89,2.1-30.37-1.45-6.43-4.86-21.5.2-25.27,5.6-4.17,7.94-5.03,10.84-1.88.25.26.6.4.96.36,2.52-.25,7.21-2.12,6.92-7.4-.12-2.18-.76-3.84-1.19-4.93-.03-.06-.05-.13-.08-.2.43.07,1.06.2,2.02.43,3.43.82,6.63-.11,8.56-2.49,1.86-2.29,2.17-5.52.8-8.41-2.61-5.54-10.96-19.43-16.98-25.13l-1.85-1.74q-3.6-3.36-3.37-6.55c.38-5.27-3.7-10.17-11.48-13.91h0ZM396.57,168.83c.16.4.31.82.44,1.25-6.26-2.58-12.24,1.86-15.6,4.36-8.07,6.02-5.72,19.94-2.88,32.51,2,8.84,2.18,20.75-.73,24.38-.38.47-.62.59-1.23.59-1.77,0-2.98-.31-3.59-.92-1.95-1.95-1.94-8.79-1.94-14.82v-.94c0-13.57-3.02-19.97-11.53-24.45-1.18-.62-1.73-1-1.98-1.19.05-.62.42-2.71,3.06-8.42,6.17-13.38-3.95-26.11-7.51-29.99-.82-2.74-2.79-8.65-7.49-21.33-1.1-2.97-1.21-5.17-.32-6.36,1.93-2.58,8.76-3.22,11.99-3,.53.04,1.07,0,1.59-.1,1.66-.33,4.35-1.6,7.77-5.78.93-1.14,5.83-2.49,11.12.04,6.09,2.93,7.57,5.73,7.49,6.92-.45,6.35.99,8.02,5.6,12.32,0,0,1.82,1.71,1.82,1.71,5.08,4.81,12.99,17.81,15.43,23,.23.49.19.83.11.93-.1.13-.58.26-1.41.06-2.99-.71-6.71-1.59-9.43,1.53-2.59,2.96-1.26,6.4-.76,7.69h0Z"/>
  <path class="st0" d="M366.35,134.41c-3.42,0-6.2,2.77-6.2,6.19s2.77,6.2,6.2,6.2,6.19-2.77,6.19-6.2-2.77-6.19-6.19-6.19h0Z"/>
  <path class="st0" d="M301.95,137.32c-1.13.29-27.51,7.24-27.51,24.66s17.07,18.37,17.24,18.38c.45.01.86-.23,1.06-.63.2-.4.16-.87-.12-1.23-2.42-3.11-3.47-5.66-3.11-7.57.44-2.35,2.93-3.83,5.57-5.4,3.15-1.87,6.71-3.99,6.11-8.05-1.19-8,2.09-18.59,2.13-18.69.12-.4.02-.83-.26-1.13-.29-.3-.72-.43-1.12-.32h0ZM282.97,168.16c-.94-1.69-1.44-3.74-1.44-6.18,0-6.37,6.54-11.08,12.73-14.12-.44,3.65-.49,6.97-.14,9.87-.67.53-2.11,1.39-2.65,1.71-2.84,1.69-6.97,4.19-8.5,8.72h0Z"/>
  <path class="st0" d="M316.26,167.78c-11.07,5.84-18.27,10.42-18.34,10.46-.39.25-.59.71-.51,1.17.08.46.43.82.88.92,3.48.78,34.12,7.58,39.46,6.63,2.99-.53,9.32-3.13,11.91-9.2,2.4-5.61.96-12.46-4.29-20.36-8.85-17.39-14.14-30.12-14.2-30.24-.22-.51-.77-.8-1.31-.68-.29.06-28.57,6.74-24.43,33.82.09.56.57.97,1.14.97h10.06c1.57.42,3.83,1.49,3.96,2.56.05.37-.14,1.73-4.34,3.95h0ZM327.63,162.98c-.72-6-7.38-8.11-9.4-8.62-.47-.12-.95-.18-1.44-.18h-4.62c.49-11.16,8.9-16.72,14.66-19.21,2.24,5.06,6.47,14.33,12.24,25.67.11.21.23.41.35.6,2.67,4,5.47,9.63,3.72,13.73-1.43,3.36-5.35,4.78-6.61,5-1.79.2-10.17-1.11-21.65-3.39,1.56-.85,3.1-1.71,4.68-2.55,2.19-1.16,8.84-4.66,8.06-11.06h0Z"/>
  <path class="st0" d="M365.06,240.61c-.19-.73-.71-1.73-2.02-2.31l-6.67-3.55c-.08-.04-.16-.08-.25-.1-.15-.04-3.63-.91-7.35,2.75l-30.33,22.02c-.82.66-3.32,2.86-2.8,4.89.19.73.81,1.66,2.74,2,4.47.79,17.84,2.37,18.41,2.44.36.02,6.77.23,9.6-2.83,2.48-2.69,16.3-18.91,16.89-19.6.28-.37,2.42-3.27,1.79-5.72h0ZM341.25,261.04c-.34.23-2.13.66-3.95.63l-8.45-1.06,24.14-17.52c.25-.19.49-.39.71-.61.35-.35.64-.56.86-.68l2.25,1.19c-5.06,5.93-13.66,15.97-15.55,18.04h0Z"/>
  <path class="st0" d="M352.48,269.82c4.76.6,11.45,1.23,12.02,1.28.78.15,4.84.62,8.08-5.41l8.09-15.34c.32-.45,1.68-2.55.96-4.51-.3-.83-1.1-1.91-3.17-2.4-4.44-1.05-5.84-1.45-5.86-1.46-.13-.05-4.86-1.69-7.2,1.95-1.81,2.82-14.77,18.46-14.9,18.62-.25.33-2.28,3.01-1.38,5.19.48,1.17,1.62,1.88,3.37,2.1h0ZM365.08,264.04c-.52-.05-3.11-.29-6.14-.62,3.53-4.29,9.38-11.47,11.69-14.65.35.1,1.09.3,2.5.66-1.85,3.51-6.81,12.92-6.8,12.91-.57,1.06-1.02,1.52-1.25,1.7h0Z"/>
  <path class="st0" d="M383.19,271.53h9.6c2.13-.01,6.15-1.54,6.15-7.21v-16.65c0-.22-.06-.43-.18-.61-.08-.12-1.93-2.98-6.08-2.67-3.37.25-5.83.06-5.86.06-.23,0-3.41.04-4.69,3.9-1.01,3.03-6.35,14.75-6.41,14.87-.05.11-1.41,3.05.13,5.49,1.19,1.87,3.65,2.82,7.34,2.82h0ZM391.84,264.31c0,.06,0,.08,0,.13h-8.65c-.09,0-.16,0-.25,0,1.36-3.01,4.3-9.57,5.54-12.84.91.01,2.06,0,3.37-.06v12.79h0Z"/>
  <path class="st0" d="M427.64,270.21l8.64-.76c.37,0,1.65-.11,2.43-1.26.78-1.14.7-2.83-.25-5.01-2.05-4.74-12.37-25.92-12.81-26.82-.03-.06-.07-.13-.11-.19-.22-.29-2.16-2.77-4.44-1.93-.07.02-.14.06-.2.09l-5.61,3.39c-1.32.6-3.22,2.5-1.94,5.95,1.53,4.12,7.18,22.59,7.24,22.78-.02-.05-.03-.1-.04-.15.25,1.53,2.04,4.3,7.08,3.89h0ZM420.83,242.66c2.47,5.09,7.14,14.73,9.68,20.18-1.49.13-3.46.3-3.46.3-.03,0-.05,0-.08,0-1.17-3.82-4.69-15.24-6.43-20.32l.28-.17h0Z"/>
  <path class="st0" d="M404.17,271.57c2.53-.14,11.95-.4,12.04-.4.17,0,2-.04,3.03-1.49.76-1.06.82-2.5.2-4.28l-7.25-21.52s-.03-.09-.06-.14c-.62-1.3-2.53-3.47-5.27-2.38-2.36.94-5.69,1.76-5.72,1.77-.1.03-.2.06-.29.12-.36.2-1.52,1.09-1.57,4.02-.04,2.51.83,19.1.87,19.81.1,1.63,1.06,4.66,4,4.49h0ZM407.12,264.36c-.3-5.82-.6-12.29-.71-15.36.01,0,.02,0,.03-.01l5.13,15.23-4.45.14h0Z"/>
  <path class="st0" d="M445.57,268.56c3.33-.44,8.55-1.28,9.19-1.39.53-.02,3.16-.22,4.43-2.3,1.06-1.75.79-4.21-.81-7.29-4.05-7.78-18.81-30.98-19.75-32.44-.19-.38-.97-1.78-2.49-2.05-1.1-.2-2.21.26-3.28,1.36.05-.05-5.56,5.07-5.56,5.07-1.13.9-2.93,3.6-1.34,7.07,1.93,4.19,13.55,28.18,13.67,28.42-.02-.04-.03-.08-.05-.12.52,1.47,2.45,4.13,6,3.66h0ZM432.66,234.21c.56-.51,1.43-1.3,2.11-1.92,3.99,6.31,13.81,21.98,17.1,28.17-1.56.25-4.04.63-6.14.92-1.65-3.41-10.76-22.24-13.08-27.17h0Z"/>
  <path class="st0" d="M261.66,519.12c-15.25-7.2-29.65-1.27-29.65,12.28,0,31.35,64.38,26.68,53.79-27.53-6.09-31.18-24.99-71.16-29.65-129.61-4.66-58.45,26.68-77.51,26.68-77.51v-14.82c-49.56,24.14-39.81,130.45-24.99,180.01,14.83,49.56,3.81,57.18,3.81,57.18h0Z"/>
  <path class="st0" d="M754.17,531.41c0-13.55-14.4-19.48-29.65-12.28,0,0-11.01-7.62,3.81-57.18,14.82-49.56,24.57-155.87-24.99-180.01v14.82s31.35,19.06,26.69,77.51c-4.66,58.45-23.56,98.43-29.65,129.61-10.59,54.21,53.79,58.87,53.79,27.53h0Z"/>
  <path class="st0" d="M242.24,563.47l-30.24,24.68c-35.17-27.15-50.6,4.94-50.6,4.94,12.96-2.47,23.45,1.23,23.45,1.23-27.15,7.41-20.36,24.68-20.36,24.68,0,0,27.77-16.66,39.49,2.47,15.11,24.66-3.7,43.81-3.7,43.81,46.28,0,30.85-61.7,30.85-61.7l40.72-40.11h-29.62Z"/>
  <path class="st0" d="M818.21,593.09s-15.43-32.09-50.6-4.94l-30.23-24.68h-29.62l40.72,40.11s-15.43,61.7,30.85,61.7c0,0-18.82-19.15-3.7-43.81,11.72-19.13,39.49-2.47,39.49-2.47,0,0,6.78-17.28-20.36-24.68,0,0,10.49-3.7,23.45-1.23h0Z"/>
  <path class="st0" d="M281.88,331.99l.44-24.56c-.88,4.82-4.83,8.33-9.21,10.96-4.38,2.63-2.19,5.7-2.19,5.7,9.21-.44,10.96,7.89,10.96,7.89h0Z"/>
  <path class="st0" d="M276.61,395.58c1.75,16.67,6.14,10.53,6.14,10.53,0,0-1.26-27.52-1.76-32.89-.49-5.37-16.8-2.54-17.1,3.07-.3,5.61,3.07,29.38,3.07,29.38l4.82-.88-.88-20.61s3.95-5.26,5.7,11.4h0Z"/>
  <path class="st0" d="M280.12,453.03c4.11,5.48,4.66-22.02,3.34-27.28,0,0-12.35-3.71-11.12,2.72,1.24,6.42,2.51,17.54,7.77,24.56h0Z"/>
  <path class="st0" d="M264.45,346.72c0,5.43,16.55,3.25,16.55,3.25v-8.77s-16.55-2.62-16.55,5.52h0Z"/>
  <path class="st0" d="M281,363.57v-8.77s-16.55-2.64-16.55,5.51c0,5.43,16.55,3.26,16.55,3.26h0Z"/>
  <path class="st0" d="M326.4,666.06c0-2.82-2.28-5.1-5.1-5.1s-5.1,2.28-5.1,5.1,2.28,5.1,5.1,5.1,5.1-2.28,5.1-5.1h0Z"/>
  <path class="st0" d="M716.8,610.29c-2.82,0-5.1,2.28-5.1,5.1s2.28,5.1,5.1,5.1,5.1-2.28,5.1-5.1-2.29-5.1-5.1-5.1h0Z"/>
  <path class="st0" d="M704.74,617.84c0-2.82-2.28-5.1-5.1-5.1s-5.1,2.28-5.1,5.1,2.28,5.1,5.1,5.1,5.1-2.28,5.1-5.1h0Z"/>
  <path class="st0" d="M689.22,620.29c0-2.82-2.29-5.1-5.1-5.1s-5.1,2.28-5.1,5.1,2.28,5.1,5.1,5.1,5.1-2.28,5.1-5.1h0Z"/>
  <path class="st0" d="M273.88,710.29l2.65-30.69s-2.65-6.09-11.64-1.59l-1.59,23.28s-5.29,8.73-16.41-1.06l1.59-23.81s-3.7-5.03-10.85-1.59l-1.85,31.48s14.82,19.84,38.1,3.97h0Z"/>
  <path class="st0" d="M255.68,697.84c1.75.1,3.25-1.24,3.36-2.99l.59-10.03c.1-1.75-1.23-3.25-2.99-3.35-1.75-.1-3.25,1.23-3.35,2.98l-.59,10.04c-.1,1.75,1.23,3.25,2.98,3.35h0Z"/>
  <path class="st0" d="M316.87,716.66l2.53-29.31s-2.53-5.81-11.12-1.52l-1.52,22.24s-5.05,8.34-15.67-1.01l1.52-22.74s-3.54-4.8-10.36-1.52l-1.77,30.07s14.15,18.95,36.39,3.79h0Z"/>
  <path class="st0" d="M299.48,704.77c1.67.09,3.11-1.18,3.2-2.85l.56-9.58c.1-1.67-1.18-3.11-2.85-3.21-1.67-.09-3.11,1.18-3.2,2.85l-.56,9.59c-.1,1.67,1.18,3.1,2.85,3.2h0Z"/>
  <path class="st0" d="M355.29,719.77l1.02-15.3s-1.36-7.82-8.84-2.38l-1.02,6.8s-4.08,5.43-3.4-4.08l.68-9.52s-2.38-3.06-4.76,1.02l-.34,12.23s-2.04,2.04-5.78-.34l1.36-17.34s-2.38-7.14-9.52-1.7l-1.36,26.86s10.54,18.69,31.95,3.74h0Z"/>
  <path class="st0" d="M256.04,654.84c0-2.82-2.28-5.1-5.1-5.1s-5.1,2.28-5.1,5.1,2.28,5.1,5.1,5.1,5.1-2.28,5.1-5.1h0Z"/>
  <path class="st0" d="M281.19,658.58c0-2.82-2.28-5.1-5.1-5.1s-5.1,2.28-5.1,5.1,2.28,5.1,5.1,5.1,5.1-2.28,5.1-5.1h0Z"/>
  <path class="st0" d="M301.25,661.98c0-2.82-2.28-5.1-5.1-5.1s-5.1,2.28-5.1,5.1,2.28,5.1,5.1,5.1,5.1-2.28,5.1-5.1h0Z"/>
  <path class="st0" d="M276.43,573.6l.34,18.02,11.56,9.86s6.12-22.43-11.9-27.87h0Z"/>
  <path class="st0" d="M293.43,620.51c-1.36,1.7-3.74,5.1-5.1-1.02-1.36-6.12-6.46-5.44-9.18-5.44s-6.46,11.21-8.84,3.4c-2.38-7.82-3.74-11.9-13.26-10.2v18.69l47.25,10.54s0-12.58-2.04-14.62c-2.04-2.04-7.48-3.06-8.84-1.36h0Z"/>
  <path class="st0" d="M306,644.64s-32.29-9.86-47.93-10.88l-.34,7.48,49.29,11.56s1.7-1.7-1.02-8.16h0Z"/>
  <path class="st0" d="M746.41,706.32l-1.85-31.48c-7.14-3.44-10.85,1.59-10.85,1.59l1.59,23.81c-11.11,9.79-16.4,1.06-16.4,1.06l-1.59-23.28c-8.99-4.5-11.64,1.59-11.64,1.59l2.65,30.69c23.28,15.88,38.1-3.97,38.1-3.97h0Z"/>
  <path class="st0" d="M723.16,694.85c.1,1.75,1.6,3.09,3.35,2.99,1.75-.1,3.09-1.6,2.99-3.35l-.59-10.04c-.1-1.75-1.6-3.09-3.36-2.98-1.75.1-3.09,1.6-2.98,3.35l.59,10.03h0Z"/>
  <path class="st0" d="M701.71,712.87l-1.77-30.07c-6.82-3.28-10.36,1.52-10.36,1.52l1.52,22.74c-10.61,9.35-15.67,1.01-15.67,1.01l-1.52-22.24c-8.59-4.3-11.12,1.52-11.12,1.52l2.53,29.31c22.24,15.16,36.39-3.79,36.39-3.79h0Z"/>
  <path class="st0" d="M681.8,689.13c-1.67.1-2.95,1.53-2.85,3.21l.56,9.58c.1,1.67,1.53,2.95,3.2,2.85,1.67-.1,2.95-1.53,2.85-3.2l-.56-9.59c-.1-1.67-1.53-2.94-3.21-2.85h0Z"/>
  <path class="st0" d="M635.74,708.89l-1.02-6.8c-7.48-5.44-8.84,2.38-8.84,2.38l1.02,15.3c21.41,14.95,31.95-3.74,31.95-3.74l-1.36-26.86c-7.14-5.44-9.52,1.7-9.52,1.7l1.36,17.34c-3.74,2.38-5.78.34-5.78.34l-.34-12.23c-2.38-4.08-4.76-1.02-4.76-1.02l.68,9.52c.68,9.51-3.4,4.08-3.4,4.08h0Z"/>
  <path class="st0" d="M118.69,114.65c3.55-1.41,6.72-4.32,4.75-9.3l-15.42-38.94-4.11,1.63,14.9,37.64c1.28,3.24.68,4.63-1.44,5.47-2.06.81-3.51.24-4.8-3l-14.9-37.64-4.11,1.63,15.42,38.94c1.97,4.98,6.28,4.94,9.71,3.58h0Z"/>
  <polygon class="st0" points="136.52 107.99 124.24 66.75 124.37 66.72 141.97 106.36 148.01 104.57 134.21 58.19 130.48 59.3 142.3 99 142.17 99.04 125.15 60.89 118.99 62.72 132.79 109.1 136.52 107.99 136.52 107.99"/>
  <polygon class="st0" points="159.94 101.52 148.04 54.62 143.75 55.71 155.65 102.61 159.94 101.52 159.94 101.52"/>
  <polygon class="st0" points="176.85 97.56 171.74 49.12 167.42 50.09 172.81 93.93 172.68 93.96 158.79 52.03 154.47 53 170.57 98.97 176.85 97.56 176.85 97.56"/>
  <polygon class="st0" points="199.07 93.01 198.34 89.33 191.18 90.74 187.39 71.61 194.23 70.26 193.5 66.58 186.66 67.93 183.25 50.64 190.41 49.22 189.69 45.54 178.18 47.81 187.56 95.28 199.07 93.01 199.07 93.01"/>
  <path class="st0" d="M210.41,90.95l-3.98-22.91,2.91-.51c2.05-.35,3.54,0,3.94,2.31l3.48,20,4.36-.76-3.54-20.4c-.58-3.3-2.59-3.9-5.72-3.56l-.02-.13c3.33-.79,4.5-2.28,3.86-5.98l-2.1-12.08c-.82-4.75-3.53-5.03-7.69-4.31l-8.12,1.41,8.28,47.67,4.36-.76h0ZM202.77,46.98l2.44-.43c2.24-.39,3.78-.18,4.26,2.59l1.86,10.7c.49,2.84-.59,3.64-2.64,4l-2.91.5-3.02-17.36h0Z"/>
  <path class="st0" d="M223.12,52.44c.38,2.45,1.28,3.94,2.79,5.81l8.14,10.21c1.18,1.51,1.71,2.72,1.96,4.38l1.03,6.69c.34,2.25-.31,3.71-2.1,3.98-1.92.29-2.99-.9-3.33-3.15l-.97-6.29-4.37.67,1,6.56c.74,4.84,3.39,6.67,8.23,5.93,4.37-.67,6.64-3.59,5.95-8.1l-1.16-7.55c-.32-2.12-1.23-4.08-2.48-5.59l-8.78-10.86c-.92-1.15-1.42-2.63-1.65-4.15l-.77-5.04c-.29-1.85-.03-3.31,2.02-3.63,2.05-.32,2.73,1,3.01,2.86l.89,5.83,4.37-.67-.94-6.09c-.67-4.37-3.01-6.38-7.91-5.63-4.44.68-6.54,3.38-5.81,8.08l.88,5.76h0Z"/>
  <polygon class="st0" points="253.92 84.14 247.23 36.22 242.85 36.83 249.54 84.75 253.92 84.14 253.92 84.14"/>
  <path class="st0" d="M269.98,82.03c5.98-.75,7.06-3.99,6.47-8.71l-4.08-32.45c-.59-4.72-2.44-7.6-8.42-6.84l-7.51.94,6.03,48.01,7.51-.94h0ZM263.61,37.84c2.93-.37,3.97.45,4.32,3.24l4.16,33.11c.35,2.79-.46,3.84-3.39,4.21l-2.33.29-5.1-40.56,2.33-.29h0Z"/>
  <path class="st0" d="M287.65,66.42l7.73-.85,3.26,13.13,4.4-.48-12.34-47.32-6,.66-1.78,48.87,4.39-.48.34-13.52h0ZM287.99,34.57h.13s6.37,27.33,6.37,27.33l-6.79.74.29-28.08h0Z"/>
  <path class="st0" d="M316.73,76.9c6-.57,7.18-3.78,6.73-8.51l-3.08-32.56c-.45-4.74-2.21-7.67-8.21-7.1l-7.54.71,4.56,48.17,7.54-.71h0ZM311.73,32.54c2.93-.28,3.96.57,4.22,3.37l3.14,33.23c.27,2.8-.58,3.82-3.52,4.1l-2.33.22-3.85-40.7,2.34-.22h0Z"/>
  <polygon class="st0" points="347.35 74.28 344.17 31.37 344.3 31.36 353.03 73.86 359.31 73.39 355.73 25.14 351.86 25.43 354.92 66.73 354.79 66.74 346.31 25.84 339.89 26.31 343.47 74.57 347.35 74.28 347.35 74.28"/>
  <path class="st0" d="M370.52,59.23l7.76-.47,2.62,13.26,4.41-.27-10.03-47.86-6.02.37-4.15,48.73,4.41-.27.99-13.49h0ZM372.41,27.42h.13s5.04,27.61,5.04,27.61l-6.82.42,1.65-28.03h0Z"/>
  <path class="st0" d="M397.6,71.54c4.62-.23,6.77-2.95,6.56-7.03l-.34-6.89-4.42.22.34,6.76c.1,2.08-.59,3.12-2.33,3.2-1.74.09-2.53-.88-2.63-2.96l-1.75-35.47c-.1-2.07.58-3.11,2.32-3.2s2.53.88,2.63,2.96l.31,6.23,4.42-.22-.31-6.36c-.2-4.09-2.61-6.58-7.23-6.35-4.62.23-6.77,2.95-6.56,7.03l1.77,35.74c.2,4.08,2.61,6.58,7.22,6.35h0Z"/>
  <polygon class="st0" points="415.35 70.35 413.39 22.01 408.97 22.19 410.94 70.53 415.35 70.35 415.35 70.35"/>
  <path class="st0" d="M431.6,70.19c5.96-.19,7.66-3.66,7.52-8.41l-1.02-32.82c-.15-4.75-2.06-8.11-8.02-7.93-5.96.19-7.66,3.66-7.51,8.42l1.02,32.82c.15,4.76,2.06,8.12,8.02,7.93h0ZM430.19,24.77c2.81-.09,3.41,1.77,3.49,4.45l1.01,32.55c.08,2.68-.39,4.57-3.21,4.66-2.81.09-3.41-1.77-3.49-4.45l-1.01-32.55c-.08-2.68.4-4.57,3.21-4.66h0Z"/>
  <polygon class="st0" points="451.48 69.26 450.67 26.24 450.81 26.24 457.17 69.15 463.47 69.04 462.57 20.66 458.68 20.73 459.46 62.14 459.32 62.14 453.12 20.84 446.68 20.96 447.59 69.33 451.48 69.26 451.48 69.26"/>
  <path class="st0" d="M475.44,55.51l7.77-.05,1.9,13.39,4.42-.03-7.42-48.34-6.03.04-6.79,48.43,4.43-.03,1.72-13.41h0ZM479.05,23.85h.13l3.53,27.85-6.84.05,3.17-27.9h0Z"/>
  <polygon class="st0" points="507.35 65.14 500.04 65.1 500.24 20.47 495.82 20.45 495.61 68.84 507.33 68.89 507.35 65.14 507.35 65.14"/>
  <path class="st0" d="M527.96,55.76l7.77.15,1.54,13.44,4.42.09-6.13-48.52-6.03-.12-8.07,48.23,4.42.09,2.08-13.36h0ZM532.42,24.21h.13s2.79,27.94,2.79,27.94l-6.83-.14,3.91-27.8h0Z"/>
  <path class="st0" d="M554.69,70.24c3.82.12,7.89-1.29,8.06-6.65l1.34-41.86-4.42-.14-1.3,40.46c-.11,3.48-1.22,4.52-3.5,4.45-2.21-.07-3.31-1.18-3.2-4.66l1.3-40.46-4.42-.14-1.35,41.86c-.17,5.36,3.8,7.03,7.48,7.15h0Z"/>
  <polygon class="st0" points="574 70.56 578.42 70.75 580.35 26.15 585.3 26.37 585.47 22.62 571.14 22 570.97 25.75 575.93 25.97 574 70.56 574 70.56"/>
  <path class="st0" d="M597.59,72.1c5.95.32,7.95-2.99,8.21-7.74l1.79-32.79c.26-4.75-1.36-8.26-7.32-8.59-5.95-.32-7.95,2.99-8.21,7.74l-1.79,32.79c-.26,4.75,1.36,8.26,7.32,8.59h0ZM594.7,63.62l1.78-32.52c.14-2.68.78-4.52,3.59-4.37,2.81.15,3.25,2.06,3.1,4.73l-1.78,32.52c-.15,2.68-.78,4.52-3.59,4.36-2.81-.15-3.25-2.05-3.1-4.73h0Z"/>
  <polygon class="st0" points="620.22 29.95 620.36 29.96 623 73.26 629.29 73.69 632.55 25.41 628.67 25.15 625.88 66.47 625.74 66.46 623.12 24.77 616.71 24.34 613.44 72.61 617.32 72.88 620.22 29.95 620.22 29.95"/>
  <path class="st0" d="M645.02,75.31c5.94.48,8.02-2.78,8.41-7.52l2.65-32.73c.38-4.74-1.14-8.3-7.09-8.78-5.94-.48-8.03,2.78-8.41,7.52l-2.65,32.73c-.39,4.74,1.14,8.3,7.09,8.78h0ZM642.35,66.76l2.63-32.46c.22-2.67.9-4.5,3.71-4.27,2.81.23,3.19,2.14,2.97,4.81l-2.63,32.46c-.22,2.67-.9,4.5-3.71,4.27-2.81-.23-3.19-2.14-2.97-4.81h0Z"/>
  <polygon class="st0" points="668.97 32.17 669.1 32.18 669.83 77.1 675.3 77.63 684.71 33.71 684.84 33.72 680.51 78.14 684.38 78.52 689.08 30.36 682.27 29.7 673.13 72.3 673 72.29 672.27 28.72 665.46 28.06 660.76 76.21 664.63 76.59 668.97 32.17 668.97 32.17"/>
  <path class="st0" d="M697.64,66.52l7.72.89.26,13.52,4.39.51-1.51-48.88-5.99-.69-12.6,47.25,4.39.51,3.33-13.11h0ZM705.06,35.54h.13s.13,28.09.13,28.09l-6.79-.78,6.53-27.31h0Z"/>
  <polygon class="st0" points="771.87 45.26 772 45.28 769.32 90.12 774.73 91.07 787.45 47.99 787.58 48.01 779.88 91.97 783.71 92.64 792.05 44.98 785.32 43.8 772.97 85.59 772.84 85.57 775.42 42.07 768.69 40.89 760.34 88.55 764.17 89.22 771.87 45.26 771.87 45.26"/>
  <polygon class="st0" points="802.92 96.53 803.67 92.85 796.51 91.39 800.41 72.28 807.24 73.68 807.99 70 801.16 68.61 804.68 51.34 811.84 52.8 812.59 49.12 801.1 46.78 791.43 94.18 802.92 96.53 802.92 96.53"/>
  <polygon class="st0" points="807.02 97.38 811.33 98.38 820.13 79.51 820.26 79.55 819.82 100.36 824.12 101.36 823.63 76.27 834.64 54.13 830.33 53.13 822.15 71.39 822.03 71.35 822.75 51.36 818.45 50.36 818.67 75.12 807.02 97.38 807.02 97.38"/>
  <polygon class="st0" points="833.59 103.87 845.95 57.09 841.68 55.96 829.32 102.74 833.59 103.87 833.59 103.87"/>
  <path class="st0" d="M847.93,108.43c4.42,1.36,7.36-.47,8.56-4.38l2.03-6.6-4.23-1.3-1.99,6.47c-.61,1.99-1.61,2.73-3.28,2.22-1.67-.51-2.07-1.69-1.46-3.67l10.44-33.95c.61-1.99,1.61-2.73,3.28-2.22,1.66.51,2.07,1.69,1.47,3.67l-1.83,5.95,4.23,1.3,1.87-6.09c1.2-3.91-.21-7.07-4.63-8.43-4.42-1.36-7.37.47-8.57,4.38l-10.52,34.21c-1.2,3.91.21,7.07,4.63,8.43h0Z"/>
  <path class="st0" d="M867.06,115.17c5.53,2.24,8.49-.24,10.28-4.65l12.34-30.43c1.79-4.41,1.4-8.26-4.13-10.5-5.52-2.24-8.49.25-10.28,4.65l-12.34,30.43c-1.79,4.41-1.4,8.26,4.13,10.5h0ZM867.08,106.21l12.24-30.18c1.01-2.48,2.21-4.02,4.82-2.96,2.61,1.06,2.4,3,1.39,5.49l-12.24,30.18c-1.01,2.48-2.21,4.02-4.82,2.96-2.61-1.06-2.4-3-1.39-5.49h0Z"/>
  <path class="st0" d="M71.97,102.64c8.09,11.75,10.26,14.91,10.26,24.53l-.03,2.86c-.11,7.37-.24,15.71,5.56,21.6,4.68,4.75,12.44,7.06,23.73,7.06,8.58,0,20.29-2.22,33.85-4.8,21.03-3.99,46.77-8.86,70.57-6.91-5.42,5.5-23.31,19.78-59.96,15.81-36.09-3.91-74.79-5.35-88.17,13.62-7.26,10.29-6.04,25.64,3.62,45.61.25.52.86.77,1.4.59.28-.09,27.82-9.89,21.7-40.57,10.82.98,21.31,4.42,32.69,8.17,2.34.77,4.73,1.56,7.17,2.34-22.57,6.39-40.68,15.85-40.68,25.84,0,6.14,6.86,8.4,23.18,15.81,16.98,7.71,33.05,13.71,47.78,20.98,41.84,20.65,72.22,38.56,76.69,34.21,6.05-5.89-94.14-45.61-70.5-79.91,13.27-19.26,35.1,6.32,17.11,10.35-17.99,4.02,25.96,48.58,77.58,63.81,0,0,8.99-9.56,16.29-13.26,0,0,7.77-5.87-3.67-8.81-11.44-2.94-82.24-24.79-53.03-51.81,8.66-8.01,9.48-13.64,5.7-17.53,10.02-3.85,18.42-8.85,24.37-14.8s9.07-12.58,9.07-19.21c0-18.44-23.1-43.9-31.7-52.73,67.35-10.6,156.33-18.31,259.67-18.31s198.03,8.21,266.1,19.34c-8.36,8.55-32,34.38-32,53.04,0,6.63,3.13,13.28,9.07,19.21,4.19,4.18,9.6,7.89,15.91,11.07-7.38,4.44-11.51,9.33-11.51,13.15,0,15.97,14.27,20.91,14.27,20.91,1.81,18.37-41.65,37.86-53.61,42.86,2.8,1.1,8.59,3.61,14.95,7.69,41.54-12.03,52.86-33.7,61.32-44.84,9.23-12.16-14.69-5.7-14.69-17.87s35.79-21.03,28.53,12.17c-6.54,29.93-49.51,48.76-68.15,55.61,2.51,2.04,4.96,4.35,7.24,6.9,1.02,1.71,3.48,5.46,5.22,4.89,2.24-.74.61-7.19,4.07-6.45,3.46.74,6.1,2.21,7.73-1.29,1.63-3.5,1.22-7,4.27-4.98,3.05,2.03,3.46,3.87,6.3,2.76,2.85-1.11-2.44-9.21,4.07-7.19,6.51,2.03,7.52-1.66,6.1-4.98-1.42-3.32,2.75-1.5,6.86,1.19,4.12,2.68,4.73-2.66,2.49-5.98-2.24-3.32.61-5.89,4.47-2.21,3.87,3.68,10.78,2.58,5.7-2.76-5.09-5.34.81-9.95,6.3-5.71,5.49,4.24,4.89,1.66,1.83-3.5-3.05-5.16-.61-7,6.3-2.58,6.92,4.42,11.6,2.76,4.07-3.13-7.52-5.9-4.47-9.95,3.25-5.53,7.72,4.42,17.08,6.45,8.54-1.11-8.54-7.56-11.19-12.9-1.02-7.56,10.17,5.34,18.3,4.24,2.85-5.34-15.46-9.58,8.13-.74,13.62,3.87,5.49,4.61,6.51-2.76-4.07-8.66-10.57-5.9-4.27-7.74,9.76-.74,14.03,7,14.03.55,2.44-3.87-11.59-4.42-16.27-12.71-2.04-5.53,14.23,7.19,28.67,8.29,14.23.74-6.49-3.39-11.07-6.11-13.19-8.02,4.23-1.51,9.63-.28,19.54,6.69,18.88,13.31.74,27.63-15.53,33.84-23.92,9.12-33.57,18.63-59.16,36.88-15.16,10.81-35.02,14.14-48.71,15.07,1.45,2.62,2.66,5.43,3.53,8.45,22.05-.74,47.59-8.28,63.22-17.81,20.56-12.55,55.81-32.69,81.4-38.78,19.99-4.75,38.6-15.21,8.39-36.88-10.48-7.52-20.81-13.46-30.86-18.09.58-.19,1.16-.38,1.73-.57,11.38-3.75,21.87-7.2,32.69-8.17-6.12,30.68,21.41,40.48,21.69,40.57.55.19,1.15-.06,1.4-.59,9.66-19.97,10.87-35.32,3.62-45.61-13.38-18.97-52.08-17.53-88.17-13.62-40.61,4.4-58.19-13.6-61.3-17.25,4.65-.47,9.74-.57,15.33-.13,11.19.86,24.21,3.06,36.79,5.18,29.59,5,60.19,10.16,74.03-.37,4.38-3.33,6.92-8.12,7.55-14.22,1.34-12.98,7.96-24.15,13.81-34,6.07-10.24,11.32-19.07,8.73-27.04-1.73-5.34-6.92-9.81-15.86-13.68-39.8-17.22-100.55-32.8-171.07-43.87C664.56,6.48,577,0,489.47,0,321.36,0,164.95,21.25,81.27,55.45c-.62.21-16.7,5.78-20.72,17.53-1.9,5.53-.79,11.46,3.29,17.64,3.21,4.86,5.94,8.83,8.13,12.01h0ZM83.63,62.14c.11-.04.23-.08.33-.12C166.83,28.13,322.22,7.08,489.47,7.08c205.21,0,355.28,33.42,421.44,62.03,6.78,2.93,10.9,6.17,11.94,9.36,1.59,4.92-2.9,12.49-8.09,21.24-6.22,10.48-13.27,22.35-14.77,36.89-.43,4.14-1.99,7.18-4.79,9.31-.13.1-.28.19-.41.29-.45-2.25-1.8-4.54-4.08-6.82-28.05-28.04-198.59-59.29-398.48-59.29-102.38,0-203.3,8-284.17,22.51-35.85,6.44-65.68,13.9-86.26,21.59-17.33,6.47-27.75,12.91-31.11,19.19-1.54-3.71-1.47-8.54-1.4-13.25,0,0,.03-2.95.03-2.95,0-11.84-2.9-16.05-11.51-28.56-2.18-3.16-4.89-7.1-8.06-11.9-2.84-4.3-3.66-8.04-2.51-11.43,2.38-6.97,12.89-11.97,16.38-13.17h0ZM826.64,144.95c-12.74-2.15-25.9-4.38-37.43-5.26-29.1-2.24-46.37,8.29-55.55,17.08,2.43-14.21,21.75-36.5,34.06-48.67,64.77,11.2,106.64,24.98,117.97,36.3,1.61,1.61,2.18,2.82,2.18,3.42,0,.48-.15.97-.4,1.49-14.33,3.49-38.79-.64-60.83-4.36h0ZM765.04,149.69l2.86,1.67c3.76,4.48,23.27,24.5,67.51,19.7,18.4-2,58.99-6.39,76.46,5.72-18.16-2.66-34,2.53-50.69,8.04-3.13,1.03-6.29,2.07-9.49,3.07-38.76-14.9-72.39-10.64-92.4-2.09-8.35-3.58-14.66-7.8-18.77-11.9-2.6-2.6-4.49-5.3-5.67-8.01,4.65-5.58,13.91-13.89,29.71-17.56-.17.51.02,1.07.49,1.35h0ZM903.36,183.13c5.04.11,10.21.85,15.62,2.41,2.72,7.11,1.47,16.96-3.75,29.38-6.8-4.23-16.2-13.59-11.88-31.79h0ZM255.96,151.68c-32.8-19.74-78.31-11.12-111.93-4.74-13.22,2.51-24.62,4.67-32.53,4.67-5.9,0-10.59-.7-14.06-2.07-.54-.69-.86-1.3-.86-1.73,0-.6.57-1.81,2.18-3.42,11.7-11.7,55.95-26,124.36-37.39,11.28,11.18,28.2,30.63,32.84,44.67h0ZM222.54,187.78c-14.09-4.44-39.03-3.73-52.87-2.16-7.16.81-14.53,2.03-21.74,3.58-6.38-1.71-12.49-3.72-18.52-5.71-16.69-5.5-32.54-10.7-50.69-8.04,17.46-12.11,58.06-7.72,76.46-5.72,44.22,4.79,63.73-15.21,67.51-19.7l2.87-1.68c.06-.03.1-.09.15-.13,11.37,1.96,22.03,5.86,31.23,12.56-1.8,10.31-14.39,20.71-34.4,27.01h0ZM75.35,213.58c-5.22-12.42-6.47-22.27-3.75-29.39,5.41-1.56,10.58-2.3,15.63-2.41,4.32,18.2-5.07,27.56-11.88,31.79h0Z"/>
  <path class="st0" d="M517.42,244.91c-.34-.03-.67.08-.91.32-.24.24-.37.57-.34.91.02.23,2.01,23.3,28.25,23.3,22.93,0,43.71-18.52,48.57-23.17,3.18,5.1,15.55,23.68,26.51,22.46,4.67-.52,8.37-4.51,11.03-11.79,3.36,3.53,12.71,12.02,24.44,11.23,9.57-.64,18.32-7.33,25.98-19.89.25-.41.22-.93-.07-1.31-.3-.38-.79-.53-1.25-.39-.22.07-22.07,6.76-35.7-3.25-7.34-5.39-11.06-14.69-11.06-27.65,0-19.68,1.22-31.02,3.46-38.19,6.42,3.41,14.05,6.07,22.47,6.26,24.45.56,29.13-14.29,29.32-14.92.11-.38.02-.79-.24-1.08-.26-.3-.66-.44-1.05-.37-8.19,1.31-14.16.37-17.47-.51,11.29-3.77,19.43-3.9,23.63-.33,4.53,3.84,3.2,10.89,3.19,10.96-.1.51.15,1.02.62,1.25.46.23,1.02.13,1.36-.25,8.7-9.61,11.87-17.54,9.68-24.25-3.73-11.46-22.67-16.3-40.12-19.93-25.05-5.22-34.3-32.57-34.38-32.85-.11-.33-.35-.59-.68-.71-.32-.12-.68-.1-.98.07-6.18,3.48-10.89,7.37-14.22,11.59l-16.9-18.95c-.22-.25-.55-.39-.89-.38-.34.01-.66.17-.87.44-.31.4-6.87,9-2.95,22.47-3.26-3.53-7.69-9.44-8.01-15.85-.02-.44-.3-.83-.71-1-.41-.17-.88-.09-1.21.21-.17.16-17.32,16.19-.43,39.95-3.77,1.48-17.14,5.21-43.48-2.25-.3-.09-.63-.05-.9.11-.27.16-.46.42-.54.73-.09.37-2.04,9.08,3.92,16.7,5.03,6.44,14.09,9.98,26.86,10.6-4.32,3.17-16.14,8.99-39.64,2.21-.39-.11-.82,0-1.11.27-.3.28-.42.7-.33,1.1.07.29,7.2,28.43,43.26,23.67-6.93,6.24-27.4,21.66-53.75,14-.35-.1-.73-.03-1.02.19-.29.22-.46.57-.45.94.02.67.52,16.36,12.52,22.93,10.35,5.67,25.77,2.59,45.81-9.11-2.77,7.53-14.48,27.89-59.24,23.5h0ZM578.87,167.9c1.41-1.76,1.7-4.21.74-6.24-.96-2.04-3.03-3.37-5.28-3.4-11.82-.17-20.17-2.9-24.16-7.92-1.06-1.33-1.83-2.84-2.3-4.5,28.47,6.46,41.02-.13,42.38-.92,1.46-.85,2.49-2.29,2.83-3.95.34-1.66-.05-3.38-1.07-4.74-7-9.33-7.63-16.86-6.49-22.08,4.01,6.34,9.14,10.55,9.39,10.74,2.14,1.73,5.17,1.77,7.35.09,2.19-1.68,2.92-4.62,1.8-7.13-1.93-4.3-2.66-8.46-2.22-12.42l11.84,13.33c-.51,1.21-.96,2.44-1.26,3.7-1.89,7.78.8,14.07,2.04,16.42-19.67,12.8-20.34,24.65-19.36,29.96-2.5,3.78-10.42,14.02-24.27,16.78-14.6,1.47-23.11-3.34-27.99-8.64,25.61,3.4,35.61-8.55,36.03-9.08h0ZM629.59,110.65c1.93,3.86,4.74,8.62,8.62,13.25l-9.68.92-6.24-6.99c1.77-2.49,4.19-4.89,7.3-7.18h0ZM699.98,163.79c-.71-.96-1.48-1.86-2.37-2.62-6.84-5.82-17.9-5.77-33.81.17-2.21.83-3.73,2.88-3.85,5.24-.13,2.36,1.16,4.57,3.27,5.63.41.2,3.6,1.71,9.1,2.47-3.68,1.45-8.16,2.13-13.36,2.01-7.27-.16-14-2.59-19.69-5.68,2.27-3.53,5.09-5.55,8.37-7.9,1.03-.73,2.09-1.49,3.2-2.34,5.59-4.26,10.24-12.62,13.52-19.98.64.16,1.26.34,1.92.48,9.59,2,32.06,6.68,34.83,15.19.64,1.95.25,4.41-1.13,7.34h0ZM665.74,255.9c-3.65,3.17-7.41,4.93-11.21,5.2-10.69.75-19.76-10.02-19.86-10.13-.84-1.02-1.97-1.7-3.21-2-1.59-3.22-3.65-8.32-4.69-14.66.72-.05,1.36-.12,1.94-.2,2.32,6.25,5.99,11.26,11.01,14.95,8.1,5.94,18.12,7.12,26.01,6.84h0ZM619.13,124.91l4.52,5.09c1.13,1.24,2.73,1.95,4.39,1.95.04,0,3.65-.26,7.76-.56-.78,2.61-2.06,4.49-3.85,5.57-3.03,1.83-7.08,1.24-10.45.16-.15-.39-.34-.78-.57-1.13-.02-.03-2.99-4.83-1.81-11.08h0ZM646.55,155.13c-1.02.78-2.04,1.5-3.02,2.21-4.15,2.96-7.59,5.69-10.31,9.92-1.04-.73-2.03-1.46-2.95-2.18,2.85-4.56,7.66-8.68,13.88-11.79,7.69-3.84,8.58-12.06,8.27-17.29,1.63.93,3.37,1.77,5.18,2.53-2.85,6.31-6.74,13.31-11.06,16.6h0ZM600.33,242.43c-1.67-.62-4.23-3.73-3.42-17.33,4.72-2.69,8.58-6.96,11.01-10.11-.63,6.72.75,11.82,4.18,15.13.79.76,1.66,1.39,2.56,1.91-4.36,5.45-10.84,11.68-14.33,10.4h0ZM599.29,196.99s.06,0,.08-.02c.34-.12,7.02-2.47,11.36-7.03,0,1.78.17,3.98.69,6.18-9.75,16.91-18.61,23.42-23.43,23.82-.42-2.25,5.05-12.72,11.3-22.96h0ZM626.56,225.84c-3.72.82-6.45.33-8.13-1.46-4.11-4.39-1.87-16.06.33-23.55,2.23-.56,5-1.39,7.42-2.47-.27,5.03-.42,10.75-.42,17.34,0,3.61.27,6.99.79,10.15h0ZM619.57,143.94c4.48,1.39,10.05,2.11,14.99-.34,3.2-1.58,7.19-5.08,8.64-12.74.41-.03.8-.06,1.17-.09l.42,1.77.12.52h0c.03.11,2.45,10.69-3.94,13.88-6.92,3.46-12.52,8.18-16.12,13.49-2.06-1.95-3.23-3.3-3.27-3.35-1.61-1.89-4.25-2.58-6.57-1.73-1.84.68-3.19,2.25-3.67,4.14-.31.4-2.17,2.46-9.28,4.47.7-4.29,4.09-11.49,17.08-19.71.15-.09.27-.22.41-.32h0ZM620.28,238.46c1.25,4.11,2.98,9.27,4.83,13.03-.29.44-.52.93-.68,1.44-1.67,5.27-3.81,8.54-5.72,8.75-3.44.39-9.61-5.29-14.97-12.29,6.5-2.43,12.02-5.53,16.55-10.94h0ZM618.97,192.45c-.77-2.91-2.66-11.23-1.35-18.56.09-.5-.16-1-.61-1.23-.45-.23-1-.14-1.35.23-.07.08-6.98,7.26-13.01,11.63-.87-1.53-2.44-5.31-2.16-12.16.13-.25.26-.51.39-.77,11.25-2.64,15.22-6.2,16.6-8.48,2.06,2.19,6.49,6.53,12.62,10.67-1.36,3.85-2.41,8.69-3.13,15-1.73,1.19-4.32,2.59-8,3.67h0ZM581.37,194.72c1.02-1.14,1.53-2.59,1.51-4.06,2.54-1.01,6.15-3.06,9.99-7.17.4,1.88,1,4.17,1.88,6.53-5.32,9.82-12.55,18.43-16.72,23.03-.88.08-1.74.35-2.52.83-18.66,11.34-32.91,14.95-41.2,10.45-3.86-2.1-6.02-5.87-7.23-9.16,31.82,4.11,53.39-19.42,54.3-20.45h0ZM582.21,226.36c2.16.96,4.39,1.39,6.68,1.27.21,2.25.76,6.88,1.96,11.4-.69.3-1.35.7-1.88,1.25-.22.22-21.98,22.07-44.55,22.07-11.17,0-16.49-5.03-19.04-9.85,38.53,1.28,52.21-16.32,56.83-26.14h0Z"/>
  <path class="st0" d="M131.48,690.4c.57-3.22.79-7.26-1.4-8.23-2.04-.9-4.03,1.69-4.69,2.54-.05.07-.09.14-.13.21,0,0,0,0,0,0-.12.26-3.18,6.3-12.9,5.97-6.46-.22-13.02,2.87-16.33,7.71-2.23,3.26-2.7,6.84-1.31,10.07,2.58,6.01,7.11,9.3,9.56,8.5.5-.16,2.08-.91,1.44-3.69l-.29-1.22c-.3-1.25-.66-2.76-.64-3.44.27.05.79.22,1.84.78,3.52,1.89,7.03,2.11,8.97.55.79-.64,2-2.17,1.14-5.19-.4-1.41-.98-2.58-1.44-3.52-.32-.66-.77-1.55-.72-1.82.09-.12.7-.61,4.47-.92,8.83-.74,11.19-1.22,12.44-8.3h0ZM106.68,701.02c-.49-.11-.96-.15-1.43-.19.41-.26.84-.51,1.33-.73.02.3.05.61.1.92h0Z"/>
  <path class="st0" d="M937.24,681.54c-2.28-.68-3.57-1.75-4.94-2.89-2.2-1.83-4.47-3.73-10.42-3.88-2.81-.07-4.81.77-5.95,2.51-1.93,2.93-1.09,8.18,2.56,16.05.91,1.96,1.16,3.19,1.17,3.97-4.04-1.22-8.22-2.48-11.95-4.12-2.64-1.16-4.94-1.07-6.81.26-4.52,3.19-5.35,13.31-5.03,22.75-11.06.46-20.11,8.4-26.63,14.57.04-4.01-.43-8.77-2.64-11.12-1.53-1.62-4.52-2.41-8.21-2.16-3.65.24-8.17,1.56-12.7,4.28.02-2.08-.07-4.84-.62-6.75-.46-1.61-2.15-2.96-4.5-3.61-3.07-.83-8-.52-11.77,3.09-1.7,1.63-2.31,3.67-1.75,5.91.94,3.76,5.14,7.57,9.23,9.57-.54.66-1.08,1.35-1.6,2.08-2.18,3.06-2.82,6-1.88,8.76,1.77,5.2,8.95,8.77,16.35,11.39-9.55,9.19-21.06,16.98-33.14,13.91-1.95-2.27-14.15-14.99-38.49-9.12l-2.59.62c-24.04,5.77-43.04,10.31-52.45,33.85-2.89,7.24-5.51,10.54-8.05,13.74-5.79,7.31-10.38,13.12-14.33,57.68-3.78,1.19-21.37,6.89-32.82,13.68-2.35,1.1-4.89,1.27-7.58,1.45-5.96.4-12.71.86-21.62,11.04-5.12,3.76-7.97,3.27-10.98,2.75-3.17-.55-6.45-1.11-11.7,2.85-3.27,1.77-6.78,2.17-8.73,2.23,1.51-3.87,6.37-14.25,15.8-16.79,9.31-2.5,32.01-9.65,41.52-21.81.06-.07.1-.14.14-.22,3.33-7.08,8.33-10.9,12.34-13.97,4.92-3.77,9.18-7.02,6.24-14.08-2.07-4.98-.01-10.72,1.99-16.27,1.95-5.41,3.95-10.99.76-14.65,4.02-1.21,12.64-4.24,15.23-8.63.79-1.34,1-2.71.63-4.08-.55-2.06.21-5.62,1.02-9.39,1.29-6.01,2.63-12.22-.31-15.86-1.34-1.65-3.47-2.53-6.28-2.67-.78-1.66-3.12-5.81-7.37-6.77-3.33-.75-6.96.66-10.78,4.15-1.92-.7-7.39-2.33-11.03.24-2.34,1.65-3.41,4.64-3.21,8.85l-7.43,11.8c-2.74-.68-11.25-1.47-26.77,8.48l-6.24,3.94c-15.36,9.6-27.49,17.18-31.38,35.33-1.95,9.12-3.48,14.03-4.52,16.68-.97-.77-2.06-1.51-3.31-2.21-3.79-2.14-7.57-3.8-11.23-5.42-6.93-3.05-12.91-5.68-16.49-10.45-7.84-10.45-19.09-11.19-33.41-2.18-16.27,10.22-28.74,8.36-46.06,1.33-2.9-1.18-6.29-2.47-9.88-3.83-18.55-7.05-43.95-16.71-52.9-29.55-1.73-2.48-3.3-4.89-4.82-7.21-7.95-12.17-14.24-21.78-31.05-22.29-1.68-.72-12.3-4.74-24.27,4.01-.11.08-.2.18-.28.29,0,0-.41.57-1.09.62-.67.06-1.49-.38-2.38-1.27-4-4-7.54-4.97-15.75.82-.72.53-14.36,10.89-19.15,21.15-.63-.37-1.17-.89-1.5-1.66-6.14-14.33-13.13-22.9-20.2-24.79-5.99-1.6-10.61-7.13-15.49-13-2.95-3.53-5.99-7.19-9.53-10.23-2.93-2.51-5.73-3.59-8.56-3.28-5.38.57-9.51,6.02-13.9,11.78l-1.32,1.73c-4.68,6.09-12.78,12.24-19.94,17.67-2.93,2.23-5.71,4.33-8.04,6.28-.16.14-.37.3-.57.46-3.32-2.18-5.43-4.41-6.14-6.55-3.4-10.2-12.32-21.81-16.62-27.03,1.16-6.44.7-12.91-3.42-18.04,4.96.04,8.61-3.04,11.88-9.6,1.47-2.93,1.59-5.46.37-7.52-2-3.38-7.5-5.19-16.8-5.54-7.48-.28-14.35,6.05-17.79,9.84-4.32-.14-9.52.7-16.1,2.89.67-3.39.17-6.49-2.56-8.79-10.47-8.79-27.04,7.12-35,14.76-5.97,5.73-6.5,11.98-6.02,15.95-.04.01-.08.03-.12.04-.56.19-1.04.34-1.39.42-.31,0-1.38-.27-2.33-.5-2.22-.54-5.66-1.37-9.6-1.74-1.54-6.54-5.59-18.46-14.72-18.17-1.2.04-2.53.2-3.94.45.21-.85.34-1.71.34-2.61,0-2.96-1.15-5.74-3.24-7.83-2.09-2.09-4.88-3.24-7.83-3.24-6.11,0-11.08,4.97-11.08,11.08,0,2.96,1.15,5.74,3.24,7.83.62.62,1.32,1.13,2.05,1.58-2.32,1.74-4.13,3.72-4.96,5.89-.84,2.18-1.07,5.52,2.6,9.06,3.1,2.99,6.91,6.47,11.32,10.36-1.3,3.1-2.24,6.67-2.78,10.73,0,.08-.03.27-.06.56-2.03.78-5.94,2.74-5.94,6.26,0,2.93,2.89,5.68,5.11,7.36-.09,5.15.1,10.95.96,16.02-1.44,2.05-2.81,4.9-.84,6.6.96.82,2.28,1.6,3.67,2.3.51.89,1.07,1.68,1.71,2.31,2.48,2.48,4.64,5.02,6.73,7.46.47.55.94,1.1,1.41,1.65-.76,3.35-1.34,8.63,2.19,9.6,2.16.59,5.04.53,7.69.26,1.92,1.55,4.03,3.07,6.47,4.53,2.85,1.71,5.88,3.7,8.88,5.78-.23,3.3-.05,8.65,3.6,7.99,2.42-.44,4.41-.77,5.87-1.01,7.97,6.23,14.17,12.02,14.08,13.73-2.69,3.72-13.09,14.21-17.57,14.21-1.9,0-3.5.86-4.61,2.49-2.19,3.2-2.18,8.99-.06,14.93-2.23,1.89-8.75,7.98-6.35,12.79.77,1.55,2.2,3.07,3.58,4.53,1.69,1.8,3.61,3.84,3.31,5.1-.17.74-1.19,1.47-2.94,2.11-5.46,2.01-12.92,5.43-14.68,11.9-1.25,4.62.64,10.02,5.62,16.07.15.18.31.36.47.54l-2.91,3.49s-9.99,2.38-6.66,9.99c3.33,7.61,16.17,8.09,13.8-3.81l2.89-3.18c5.64,3.87,11.64,5.24,16.64,3.52,5.23-1.8,8.46-6.66,9.08-13.41,5.52,2.3,25.27,9.84,44.2,8.96,2.19,2.01,5.61,4.29,9.04,3.15,2.82-.94,4.25-3.04,4.97-4.93,4.28.19,14.1.47,23.17-.3,1.23,1.79,3.39,3.57,7.07,3.33,3.77-.25,4.35-2.76,4.06-5.07,2.05-.55,3.81-1.22,5.12-2.05,3.53-2.23,13.28-3.59,27.59-3.87.35.8.75,1.6,1.21,2.38,4.39,7.43,6.89,10.1,8.09,11.38q.79.84.43,2.4c-.48,2.08-.88,4.46.46,6.38,1.2,1.74,3.62,2.78,7.6,3.3l.28.03c7.68,1,12.75,1.67,16.41,7.45l.47.74c1.82,2.91,3.14,5.01,5.43,5.52,2.25.51,4.95-.51,10.32-3.92,8.56-5.42,16.76-.43,18.14.49.85,1.46,4.64,7.54,9.05,7.08,2.71-.28,4.8-2.83,6.38-7.73,2.51-1.32,4.7-1.37,7.42-1.41,4.18-.06,9.37-.13,18.11-4.7.28-.17,18.04-11.81,28.61-17.56,1.66,2.88,2.34,6.07,2.84,9.05,1.56,9.43-37.61,27.54-22.48,51.31,1.92,3.02,3.83,2.12,3.83,2.12,0,0-3.16-7.97,1.9-13.5,4.23-4.63,25.15,1.6,36.11-11.68,3.27,13.79,17.97,14.85,18.13,14.85.6.04,1.12-.39,1.21-.98l5.03-35.24c1.94,4.6,4.67,7.88,8.17,9.76,4.35,2.34,8.57,1.81,10.36,1.42,10.98,17.52,25.42,12.93,27.4,12.2,6.65-.03,10.07-1.16,10.73-3.56.28-1.02,1.13-4.15-10.37-10.94-1.23-.72-1.58-1.39-1.51-1.74.09-.48.96-1.08,2.43-1.29,4.43-.64,14,2.19,21.75,16.93,10.88,20.69,32.53,14.43,32.75,14.36.48-.14.8-.58.82-1.07.01-.5-.3-.94-.77-1.11-4.98-1.76-6.57-7.31-7.08-10.63,12.77,9.88,24.71,14.19,35.52,12.8,12.01-1.54,18.01-9.59,18.26-9.93.29-.39.3-.92.02-1.33-.28-.4-.78-.58-1.25-.46-13.62,3.66-19.65-1.6-26.17-8.99,5.81-1.02,15.32-5.5,27.15-21.26,2.61-.76,20.43-5.47,37.99.1,1.76.56,3.74,1.22,6.02,1.99,21.75,7.31,67,22.51,97.34-1.23,20.17-15.79,25.09-25.93,25.66-31.66.13-1.34.02-2.4-.17-3.26,3.68.7,6.37.88,6.65.9.2.02.39-.04.56-.12,6.59,1.1,15.61,2.95,23.3,5.77,1.52.56,3.33,1.27,5.39,2.08-1.67,2.32-4.97,7.84-.39,10.05,5.87,2.83,20.03-5.87,20.03,2.22s6.88,6.88,18.62,1.82c0,0,5.66-1.42,6.27,1.82.61,3.24,3.64,6.68,8.09,6.07,2.19-.3,5.27-3.94,8.44-6.99,4-.05,7.95-.4,11.8-1.16,3.96,2.96,7.42,3.84,9.91,1.68,1.5-1.3,2.21-3.74,2.54-5.87,5.4-2.8,9.36-6.57,11.72-11.33,3.4-6.83,2.78-13.94,1.9-18.13,1.37-1.39,3.76-4.32,4.47-8.59.93-5.55-5.26-4.69-9.42-10.55-1.48-2.8-3.48-5.72-6.25-8.54-.91-1.57-1.63-3.71-1.94-7.21-.74-8.54-9.48-11.77-11.07-1.91-21.26-10.38-50.45-8.99-70.01-4.3-5.55,1.33-11.15,3-16.58,4.61-17.06,5.07-33.17,9.84-40.89,1.85.77-2.73,5.54-15.21,29.57-23.77,17.32-6.17,58.04-23.14,65.63-48.42,8.2.46,66.81,2.96,81-17.19,12.61-17.89,23.68-33.64,11.22-49.17,5.69-4.51,10.18-9.24,13.33-14.09,2.22-3.42,2.85-6.31,1.92-8.85-.92-2.51-3.23-4.32-6.38-5.82.95-1.56,3.37-3.69,9.53-5.01,4.87-1.04,5.69-3.64,5.74-5.08.15-3.94-4.7-8.35-9.13-9.66h0ZM184.89,703.7c5.57.21,8.3.96,9.53,1.45-3.02,6.04-3.96,6.36-9.96,3.47-1.93-.93-3.82-1.77-5.68-2.55,2.32-1.61,4.41-2.44,6.11-2.38h0ZM837.64,721.36c-.86-.64-1.57-1.29-2.06-1.85.76-.36,1.47-.45,1.99-.44.05.67.06,1.45.06,2.29h0ZM877.49,899.43c-.06.99.09,2.03.43,2.93.03.07,2.98,8.41-.6,15.5-2.34,4.65-7.19,8.06-14.39,10.15-23.59,6.85-54.77-5.47-71.52-12.08-2.26-.89-4.6-1.82-6.51-2.52-14.94-5.48-33.71-7.44-34.51-7.52-.76-.08-1.51-.02-2.22.14-11.45-2.79-12.76-6.12-12.76-14.46,0-6.68,4.48-9.54,7.91-10.76,9.98.98,22.09-2.61,34.65-6.35,5.32-1.58,10.82-3.22,16.16-4.5,19.52-4.68,49.19-5.96,68.56,5.85,15.45,9.42,14.83,23.04,14.79,23.62h0ZM743.79,916.24c.07,1.09-.28,9.29-22.6,26.76-26.92,21.08-67.84,7.32-89.82-.06,0,0-.37-.13-.37-.13-2.08-.7-4.05-1.36-5.78-1.91-18.53-5.88-36.78-1.76-41.83-.39.37-5.29.6-13.48-.96-18.49-1.72-5.52,4.04-10.78,7.64-13.43,6.84-.85,11.92-2.22,15.63-3.69,2.24.03,7.09-.22,12.06-2.48-1.71,3.21-4.66,9.72-1.13,10.82,4.65,1.45,15.13,3.8,11.33-13.21,3.6.43,8.51.2,14.99-4.59.4-.3.77-.64,1.1-1.01,6.78-7.78,10.94-8.06,16.2-8.41,3.16-.21,6.74-.45,10.56-2.25.21-.1.4-.2.58-.31,12.02-7.12,31.6-13.07,31.79-13.13.14-.04.26-.1.39-.15,4.85,2.69,15.05,7.04,24.59,3.04.07.09.12.2.21.3,1.6,1.82,3.39,3.21,5.31,4.32-3.61,3.24-5.79,8.13-6.43,14.59-.46,4.58.78,8.62,3.67,12.02,3.03,3.57,7.5,5.97,11.95,7.6-.14,1.44.18,2.91.94,4.19h0ZM526.92,968.85c-2.39,1.14-3.94,3.58-3.94,6.23,0,2.37.41,4.98,1.12,7.44-4.86-1.56-8.71-4.96-11.44-10.17-9.2-17.49-21.92-22.33-30.03-21.14-1.57.22-2.97.71-4.21,1.37,1.25-2.11,2.08-4.63,2.48-7.57,3.83.56,15.67,1.68,21.68-4.1.64.52,1.35.9,2.05,1.17.61.23,1.34.37,2.1.41,6.86,3.66,28.91,15.73,37.32,24.15,1.98,1.98,3.81,4.09,5.57,6.14,2.8,3.23,5.87,6.76,9.62,9.6-7.55-1.03-15.93-5.23-25-12.62-2.05-1.68-4.92-2.02-7.31-.89h0ZM406.92,970.18s-.06-.03-.08-.05c.03.02.06.03.09.05h0ZM407.64,968.08c.07.01.14,0,.21.03,0,0,0,0,.01,0-.07-.03-.15-.03-.23-.04h0ZM419.68,970.67c-.09-1.03-.42-1.97-.9-2.81,1.49-6.25,3.97-17.87,3.26-23.84-.32-2.78-1.34-4.53-3.01-5.23-2.81-1.17-4.85,1.12-5.21,1.41-.34.27,4.03,27.92-13.03,33.89-4.92,1.72-11.64,1.82-16.75,2.87-3.93.81-7.87,2.66-8.22,2.64,1.86-13.97,25.13-18.31,25.09-33.03-.03-12.04-11.43-23.33-13.76-25.47-.7-.71-14.97-15.51-17.68-31.29.28-.27.43-.66.34-1.05-.29-1.29-.53-2.61-.79-3.92,0-1.78.17-3.56.57-5.32,3.61-16.1,14.95-33.34,35-29.05,1.04,1.02,6.08,1.71,10.06,6.07,2.22,3.05,3.27,6.32,3.43,7.74.92,7.87-10.17,10.26-10.46,10.15-.13-.19.15-15.76-8.43-15.76-7.24,0-14.93,7.09-16.79,14.54-2.07,8.28,2.15,15.33,11.29,18.85,3.1,1.2,5.78,2.35,8.37,3.47,4.41,1.9,8.32,3.57,12.49,4.68-.41,0-.82-.02-1.24-.03-.51,0-.96.32-1.11.8-.06.19-.53,1.85.72,3.81,1.77,2.79,6.03,4.65,12.63,5.53,13.98,1.86,28.28,5.64,28.28,19.56,0,10.98-5.86,15.68-8.42,17.21-1.45-4.77-7.48-20.02-26.91-27.05-23.74-8.59-32.48-16.66-35.97-33.22-.07-.35-.29-.64-.61-.79-.42-.21-4.16-2-6.48-.27-1.39,1.04-1.84,2.98-1.34,5.85.18.76,4.6,18.7,21.55,26.94,3.08,1.5,6.33,2.91,9.48,4.28,11.83,5.16,23.08,10.09,27.82,19.53-1.92,1-3.33,2.87-3.65,5.11l-4.57,32.01c-3.01-1.9-4.71-4.86-5.06-8.8h0ZM328.17,958.83c-.31-.43-.6-.87-.81-1.24-.49-.88-1.17-1.66-1.99-2.25-.54-.4-13.56-9.63-27.34-.9-1.78,1.13-2.99,1.8-3.8,2.21-.28-.43-.56-.87-.83-1.3l-.48-.76c-5.67-8.98-14.05-10.07-22.16-11.13,0,0-.29-.04-.29-.04-.44-.06-.84-.12-1.21-.19.8-3.64.61-6.14-2.45-9.41-1-1.07-3.1-3.31-7.04-9.98-6.57-11.12,3.82-27.91,7.24-33.43,3.18-5.15,23.08-17.65,41.24-17.35,14.78.24,41.25,9.61,52.8,13.97,1.29,20.38,19.61,38.96,20.5,39.86.06.05,1.72,1.58,3.75,3.94-10.29,5.7-25.74,15.75-27.84,17.12-6.9,3.56-10.64,3.62-14.26,3.67-3.37.05-7.19.1-11.67,2.65-1.53.88-2.65,2.28-3.17,3.97-.06.22-.13.4-.2.59h0ZM180.57,925.64c-21.48,6.31-52.03-7.16-52.34-7.29-2.11-.94-4.53-.77-6.49.45-1.96,1.23-3.16,3.34-3.22,5.65-.07,2.4-.64,6.59-3.79,7.68-3.29,1.13-9.51-.91-15.4-8.07-3.05-3.7-4.57-7.01-4.07-8.85.4-1.47,2.4-3.78,9.7-6.46,4.46-1.65,7.15-4.28,7.98-7.82,1.29-5.47-2.67-9.67-5.29-12.45-.44-.47-1.05-1.12-1.53-1.68.76-1.17,2.38-2.99,4.07-4.34,2.38-1.9,3.24-5.07,2.14-7.9-1.35-3.47-1.43-6.15-1.23-7.52,9.94-1.8,22.19-17.22,22.3-17.38,1.29-1.81,1.74-4.05,1.27-6.33-2.18-10.5-35.83-31.46-36.16-31.67-7.23-4.34-11.19-8.98-15.78-14.35-2.2-2.59-4.46-5.23-7.16-7.93-2.99-2.99-4.09-19.56-2.31-34.77,1.02-7.65,3.57-12.92,7.57-15.66,6.51-4.44,16.39-2.02,21.14-.86,2.45.6,3.92.96,5.76.59.85-.17,1.6-.42,2.39-.68,1.68-.56,2.3-.66,2.53-.67.02.03.03.05.05.07,1.53,2.11,1.77,2.84,2.19,4.16.46,1.44,1.04,3.23,2.56,6.03,1.82,3.34,6.37,9.45,11.63,16.53,3.77,5.07,7.67,10.32,10.1,13.97,3.63,5.44,10.54,18.98,19.47,38.11,1.21,2.59.08,14.26-2.36,24.5-.32,1.33-.21,2.66.22,3.87-1.39,4.35-2.85,10.39-.75,11.74,2.84,1.82,6.35.71,9.98-7.7,1.15-.49,2.17-1.29,2.93-2.38-.01.01-.02.02-.02.02.08-.09,2.23-2.12,18.83,1.23,0,0,.81.16.81.16,6.39,1.28,16.95,5.61,20.98,9.28,1.52,1.39,4.28,4.18,7.46,7.41,7.24,7.34,17.08,17.33,23.97,22.5,5.21,3.91,10.52,6.03,14.96,7.19-3.26,6.38-6.59,15-5.99,23.45-15.11.41-25.17,2.13-29.92,5.13-4.42,2.79-22.56,3.61-36.83,2.76-.8-.05-1.59.04-2.36.27h0ZM86.03,728.69c-3.35.48-6.71,1.56-9.74,3.63-1.48,1.01-2.82,2.22-4.02,3.61-3.86-3.42-7.2-6.49-9.95-9.13-.3-.29-.46-.48-.55-.61,1.45-2.74,10.68-7.53,18.05-7.77,1.99-.06,4.62,4.52,6.21,10.27h0ZM119.31,720.18c16.74-16.06,22.36-15.95,24.23-14.42.36.73-.31,3.48-5.52,12.36-3.18,5.43-5.98,10.22-5.85,14.85-4.16,1.56-7.8,3.12-10.3,4.25-.48-1.17-1.22-2.54-2.67-4.54-1.06-1.45-2.25-2.32-3.48-2.82-.37-2.04-.35-5.89,3.59-9.68h0ZM250.84,750.43s1.35-1.77,1.35-1.77c2.4-3.16,6.42-8.45,8.35-8.66.36-.04,1.29.39,2.47,1.4,3.02,2.59,5.84,5.97,8.57,9.25,5.49,6.59,11.15,13.38,19.61,15.64,1.17.31,7.41,2.76,14.88,20.19,1.37,3.19,3.92,5.46,7.37,6.57.37,2.28,1.51,4.26,3.46,5.9,8.6,7.26,16.48,8.17,23.44,8.98,5.38.62,10.01,1.16,13.61,4.75,10.01,10,19.42,16.82,27.98,20.24,3.93,1.57,8.91,5.29,13.35,9.04-16,1.64-28.86,14.89-33.56,35.79-.06.29-.11.58-.16.87-5.79-2.15-13.85-4.98-22.35-7.52.42-1.51-.54-4.22-1.88-7.68-2.42-6.26-11.32-13.55-9.5-7.28,0,0,.81,3.23.4,7.07-.19,1.81-.06,3.57.76,5.07-6.36-1.58-12.55-2.76-17.82-3.15-.06-1.34-.77-3.1-2.15-4.96-3.44-4.65-4.45-3.84-4.85-1.61,0,0-1.33,3.89.05,6.57-7.87.57-15.91,2.98-22.97,6.14.7-2.15,0-5.56-.73-8.46-1.01-4.04-1.62-8.29-3.24-5.46,0,0-3.84,4.04-3.23,9.5.41,3.67,1.56,5.75,3.12,6.37-8.31,4.26-14.74,9.3-16.99,12.93-.12.18-.24.38-.37.59-3.65-.73-9.04-2.42-14.27-6.35-4.76-3.57-11.29-9.87-17.2-15.79.81-3.91,2.01-10.99.42-12.72-2.02-2.2-5.35.43-7.17,5.9-2.89-2.94-5.37-5.43-6.9-6.82-1.01-.92-2.26-1.84-3.67-2.74.23-3.17.3-8.13-1.47-8.68-2.11-.65-3.7,2.62-4.35,5.5-5.12-2.44-10.89-4.42-15.32-5.31l-.8-.16c-.75-.15-1.57-.32-2.43-.48,1.09-3.21,2.5-8.11.86-7.84-1.88.31-5.2,3.53-7.55,6.75-5.47-.69-11.31-.79-15.11,1.25,1.01-4.91,2.65-14.23,2.24-20.98l.89-.61c10.86-8.41,46.65-36.2,53.66-42.04,2.2-1.83,4.9-3.88,7.75-6.05,7.56-5.75,16.12-12.24,21.45-19.18h0ZM322.36,788.57c.37-.2.59-.59.59-1v-.59c3.16-5.44,10.4-12.51,15.97-16.71,2.49-1.75,3.82-2.27,4.35-2.42.18.14.46.39.91.83,3.36,3.36,6.68,3.8,8.88,3.59,2.13-.21,4.14-1.18,5.72-2.71,8.58-6,15.65-2.96,15.95-2.83.86.38,1.82.61,2.71.63,12.78.31,17.04,6.83,24.77,18.67,1.46,2.24,3.12,4.78,4.95,7.41,8.13,11.66,26.32,20.42,43.22,27.24-.14.13-.31.23-.41.4,0,0-2.94,2.06,0,5.89,2.94,3.83,10.6,13.84,11.78,11.19,1.08-2.44-1.57-10.85-3.15-14.24,1.77.68,3.52,1.35,5.2,1.99,3.36,1.28,6.82,2.59,9.72,3.76,19.33,7.84,34.26,10.03,53.37-1.98,13.5-8.49,19.05-4.66,22.7.21,4.84,6.46,12.05,9.63,19.68,12.98,3.48,1.53,7.08,3.11,10.52,5.06,3.62,2.05,4.3,3.67,4.29,3.99,0,0,0-.02.01-.06,0,0,0,0,0,0h0s0,.08-.02.12c-.12.28-.27.55-.36.84-.03.09-3.83,12.93-8.6,30.1-2.57,9.22-8.32,10.27-10.87,10.25-30.39-12.48-49.33,2.23-61.87,11.97-4.72,3.67-9.61,7.46-12.45,7.46-2.67,0-4.57-.6-6.27-2.09-.44-.63-.89-1.27-1.34-1.92-1.05-1.52-2.15-3.1-3.31-4.66-.69-1.28-1.43-2.71-2.24-4.33-2.11-4.21-4.51-8.98-7.9-13.66-8.03-11.09-34.34-26.03-49.02-33.81-2.64-2.98-6.28-5.47-11.13-6.93-5.43-5.24-15.78-14.57-23.77-17.76-7.55-3.02-16.05-9.23-25.28-18.46-3.28-3.28-6.89-4.89-10.58-5.81-.7-4.62-2.13-11.6-4.5-11.6-2.67,0-5.01,6.74-5.98,10.02-5.27-.7-10.72-1.94-16.48-6.81-.71-.6-.75-.94-.74-1.43.02-.77.28-1.67.7-2.64l.3-.17h0ZM654.01,784.52c.06.02.11.03.16.04.43.15.88.24,1.33.31-.94,2.13-2.24,6.42,2.64,6.19,6.35-.29,11.55-4.27,5.62-11.65,2.33-3.7,6.61-10.5,6.61-10.5.78-1.24,1.14-2.67,1.05-4.13-.07-1.03-.01-1.69.06-2.08.77,0,2.3.21,3.69.79,2.56,1.07,5.49.54,7.48-1.37,2.28-2.19,3.67-2.62,4-2.6.39.1,1.45,1.32,1.94,2.53,1.06,2.62,3.64,4.37,6.42,4.37.34,0,.59.02.78.05.11.96-.09,3.32-1.27,8.81-.84,3.92-1.69,7.96-1.21,11.55-1.7,1.43-6.78,3.75-11.87,5.04-2.68.68-4.69,2.87-5.12,5.6-.42,2.62.7,5.21,2.85,6.72-.02,1.32-1.48,5.41-1.99,6.83-2.28,6.33-5.12,14.22-1.84,22.08q.56,1.34-3.7,4.6c-4,3.06-10.03,7.69-14.22,15.97-5.75,6.99-19.56,13.97-36.99,18.66-15.9,4.28-21.69,22.9-21.93,23.69-.45,1.49-.38,3.06.17,4.47-6.6,2.13-22.22,5.98-25.51-3.73,3.8-2.17,7.66-6.19,9.73-13.67,4.52-16.27,8.22-28.8,8.53-29.85.23-.47.92-2.11.64-4.35,2.37-3.21,4.6-9.63,7.41-22.72,3.18-14.82,12.96-20.94,27.77-30.19,0,0,6.31-3.98,6.31-3.98,14.11-9.04,20.45-7.47,20.51-7.46h0ZM425.47,863.72c-.03-.45-.08-.9-.14-1.36,13.91,7.8,31.4,18.59,36.99,26.32.07.09.12.19.19.28-4.67-1.34-10.28-1.34-17.21.8-21.16,6.54-27.86,3.64-40.03-1.6-2.55-1.1-5.44-2.34-8.7-3.6-5.21-2-7.41-5.25-6.38-9.39,1.21-4.86,6.17-8.73,8-8.51.17.02,5.16,2.32,2.89,11.72-.92,3.8,12.49,3.88,17.89.15,3.8-2.62,6.97-7.92,6.49-14.81h0ZM145.88,773.64c-2.55-3.82-6.51-9.15-10.34-14.3-4.25-5.72-8.6-11.58-10.51-14.73,15.62-7.23,31.46-11.12,35.78-8.68l.25.14c5.12,2.88,8.78,5.15,9.08,8.13.29,2.81-1.48,11.33-23.38,30.82-.31-.49-.61-.96-.89-1.38h0ZM447.68,897.44c12.61-3.9,18.65,1.04,24.42,8.71,1.6,2.93,3.31,5.56,5.42,7.65,4.56,6.43,9.62,12.44,17.77,13.4,4.23.5,5.87,1.36,6.39,1.73-.05.29-.17.86-.51,1.92-.11.35-.2.64-.29.94-.12.41-.22.8-.3,1.19-4.65,2.87-14.29,6.59-28.86,1.53-.32-.11-.68-.08-.97.1-.32.19-3.06,2.05-1.48,8.4.45,1.77.38,3.03-.2,3.83-1.12,1.55-4.52,2.01-8.04,2.27-1.43.11-2.99.29-4.57.5,3.35-4.09,6.03-10.2,6.03-19.26,0-19.26-12.27-26.62-31.96-29.1,4.78-.52,10.33-1.7,17.15-3.81h0ZM164.67,810.08c-4.37-9.31-9.54-19.98-13.83-27.94,9.24-8.12,16.1-15.26,20.64-21.5,3.33.34,12.41.33,16.56-8.92.82-1.81,1.63-3.77,2.4-5.8,4.18,5.5,9.47,13.28,11.72,20.01,1.08,3.25,3.53,6.34,7.27,9.21-12.46,9.86-35.67,27.88-44.75,34.94h0ZM180.7,748.43c-1.04,2.31-2.71,3.43-4.33,3.94,1.44-3.31,2.05-6.31,1.77-8.99-.76-7.35-7.62-11.21-13.14-14.32l-.25-.14c-5.4-3.04-14.93-1.53-23.95,1.14.86-2.25,2.53-5.09,4.16-7.88.68-1.16,1.39-2.38,2.08-3.61,1.11-.44,2.24-.88,3.42-1.33,19.16-7.3,23.49-3.14,32.12,5.15,4.67,4.48,4.07,12.76-1.88,26.04h0ZM473.97,957.27c-.21.52-.39,1.06-.5,1.63-.29,1.49-.78,6.62,5.31,10.22.14.09.27.17.4.25-1.92.63-10.07,2.43-17.34-9.28,3.68.19,8.29-.28,12.13-2.81h0ZM553.92,961.88s-.03,0-.05,0c-.18-.06-.36-.13-.55-.17,0,0-1.66-.39-3.72-.87-4.92-4.89-13.49-10.61-21.58-15.52.3-1.75.54-4.72-.62-7.04-1.38-2.76-7.39-.32-9.98.88-4.33-2.43-7.67-4.18-8.9-4.82.03-.12.05-.21.09-.34.06-.22.14-.47.22-.74.65-2.07,1.74-5.54-.25-8.61-1.87-2.9-5.92-4.67-12.37-5.43-1.16-.14-2.24-.49-3.28-1,4.57-1.16,9.17-4.69,14.34-8.71,12.59-9.78,28.25-21.94,54.96-10.45.1.05.2.07.3.08.05,0,1.62.19,3.89-.13,1.28,3.46,4.8,8.78,14.29,9.84-4.43,4.66-5.07,9.33-4.21,16.63.63,5.37.76,14.06.77,19.59-14.45,18.6-23.28,16.84-23.37,16.82h0ZM727.37,865.38c-4.34.65-12.99,1.3-19.22-2.27,3.73-41.73,7.83-46.94,12.58-52.93,2.76-3.49,5.88-7.43,9.21-15.74,7.87-19.67,23.38-23.39,46.86-29.02,0,0,2.6-.63,2.6-.63,16.19-3.9,25.46,2,28.96,5.04-2.41,4.13-5.84,11.77-3.4,18.85,1.85,5.37,6.74,9.29,14.47,11.7-8.09,13.2-28.85,26.57-57.76,36.86-25.38,9.04-32.41,22.45-34.31,28.13h0ZM822.68,792.98c-5.67-1.61-9.09-3.93-10.12-6.92-1.4-4.07,1.25-9.53,2.59-11.9,21.86,4.75,39.82-15.64,51.8-29.25,2.6-2.96,4.78-5.43,6.48-7.04,12.28-11.7,22.84-19.69,37.53-7.74,14.47,11.78,9.99,21.02-6.52,44.45-8.63,12.25-48.94,15.41-74.81,13.74-3.11-.2-5.94,1.74-6.94,4.65h0ZM841.22,736.72c7.27-10.17,16.65-11.66,19.5-11.22.52,1.82.67,6.44.07,10.63-.2,1.16-.24,2.41-.13,3.77-1.64,1.86-3.39,3.84-5.25,5.87-11.83-3.78-14.5-6.28-14.97-7.5,0-.14.15-.66.79-1.55h0ZM916.02,723.9c-4.21-3.43-8.25-5.55-12.09-6.68-.32-7.76.29-13.92,1.25-16.38,4.01,1.7,8.21,2.98,12.28,4.2,2.76.83,10.78,3.25,12.3,4.71-.1.31-.33.89-.94,1.83-2.82,4.34-6.96,8.62-12.31,12.74-.16-.14-.31-.27-.48-.41h0ZM925.78,689.94c-1.59-3.43-2.29-5.64-2.59-7.03,1.91.22,2.62.8,3.96,1.91,1.66,1.38,3.93,3.28,7.81,4.42.11.03.24.11.36.16-3.34,1.06-6.06,2.5-8.13,4.3-.45-1.7-1.08-3.07-1.4-3.77h0ZM62.74,706.07c.57-.57,1.34-.89,2.15-.89s1.57.31,2.15.89c.57.58.89,1.34.89,2.15,0,1.68-1.36,3.04-3.04,3.04-.81,0-1.57-.31-2.15-.89-.57-.58-.89-1.34-.89-2.15s.31-1.57.89-2.15h0Z"/>
  <path class="st0" d="M223.14,782.43c-4.28,1.07-12.12,12.13-6.42,13.2,0,0,10.7-6.06,12.48-9.27,1.78-3.21-1.78-5-6.06-3.92h0Z"/>
  <path class="st0" d="M232.06,798.83c4.64,1.42,7.13-2.14,9.63-6.42,2.5-4.28.36-10.34-3.92-5.35,0,0-10.34,10.34-5.71,11.77h0Z"/>
  <path class="st0" d="M250.6,805.6c3.21-4.28,5.71-9.98,4.63-14.26-1.07-4.28-3.56-2.14-3.56-2.14,0,0-8.56,9.63-7.85,12.84.71,3.21,3.57,7.84,6.78,3.56h0Z"/>
  <path class="st0" d="M272.35,809.88c4.64-1.07,2.85-6.77,1.43-11.76-1.43-5-2.5-8.56-4.64-6.42,0,0-2.85,3.56-2.85,8.56s1.43,10.7,6.06,9.63h0Z"/>
  <path class="st0" d="M391.19,189.14s-4.84,1.53-4.07,7.63c.76,6.11,2.04,9.93,10.18,8.91,8.14-1.02,2.29-15.27.76-16.79-1.53-1.53-6.87.25-6.87.25h0ZM393.66,199.97c-.19-.33-.51-1.27-.84-3.91-.15-1.16.13-1.41.31-1.51.43-.13.88-.25,1.31-.34.73,1.85,1.39,4.39,1.36,5.84-1.32.11-1.93-.03-2.14-.09h0Z"/>
  <path class="st0" d="M390.7,209.08s-2.82,2.45-2.31,6.78c.51,4.33,0,8.65,6.62,8.4,6.61-.25,7.38-4.83,6.61-10.18-.76-5.34-7.35-7.45-10.93-5h0ZM396,218.34c-.18.06-.54.15-1.21.17-.14,0-.24,0-.35,0-.07-.52-.13-1.14-.18-1.64-.05-.54-.1-1.1-.17-1.69-.07-.6.05-1.05.19-1.37.28,0,.66.07,1.03.29.55.31.6.65.62.79.31,2.15.16,3.11.06,3.45h0Z"/>
  <path class="st0" d="M390.94,227.57s-7.38,8.4-2.29,10.94c5.09,2.54,9.42,3.82,11.71-3.56,2.29-7.38-3.05-12.21-9.42-7.38h0ZM394.87,233.24c-.22.69-.41,1.14-.56,1.42-.25-.06-.6-.18-1.09-.38.43-.78,1.03-1.68,1.65-2.46.1-.06.19-.12.28-.17,0,.39-.07.91-.28,1.58h0Z"/>
  <path class="st0" d="M403.15,181s-4.58.76-3.31,5.85c1.27,5.09,3.56,12.47,9.93,10.43,6.36-2.04,5.12-6.86,2.81-13.61-2.31-6.75-6.12-4.21-9.43-2.68h0ZM408.02,191.81c-.05.02-.08.02-.12.03-.39-.41-1.24-1.73-2.28-5.66l.86-.41c.2-.09.42-.2.65-.31,0,.02.01.04.02.06.45,1.33,1.59,4.67,1.56,6.01-.15.07-.36.17-.69.27h0Z"/>
  <path class="st0" d="M403.66,205.17s-2.29,11.2,3.82,11.2,9.93-1.27,9.67-9.16c-.34-10.51-12.21-11.96-13.49-2.04h0ZM411.12,210.24c-.2.09-.76.26-2.09.34-.1-1.17,0-2.9.26-4.27.03-.13.05-.27.07-.4.15-1.15.49-1.6.6-1.68.06,0,.22.04.44.23.28.25.94,1.03,1,2.94.06,1.88-.19,2.63-.29,2.84h0Z"/>
  <path class="st0" d="M409.51,218.91s-5.34,1.53-5.34,5.85-2.54,12.21,3.82,11.2c6.36-1.02,12.21-2.54,10.69-11.71-1.53-9.16-4.84-6.61-9.16-5.34h0ZM412.9,228.48c-.42.59-1.95,1.04-3.38,1.36.04-.48.09-.94.13-1.32.12-1.12.23-2.28.25-3.41.27-.24.83-.56,1.27-.7.56-.16,1.09-.34,1.59-.51.08.36.17.78.25,1.3.31,1.87.13,2.94-.11,3.28h0Z"/>
  <path class="st0" d="M416.64,167.25s-5.09,3.31-3.05,11.2c2.04,7.89,6.87,8.4,9.93,6.62,3.05-1.78,5.34-3.56,3.05-11.45-2.29-7.89-6.62-10.69-9.93-6.36h0ZM419.81,172.04s0,0,0,0c-.02.01-.02.02-.04.03.02,0,.03-.02.04-.03h0ZM421.73,179.39c-.15.12-.46.33-1.11.72-.03.02-.03.01-.05.02-.3-.28-.92-1.18-1.42-3.11-.8-3.08.17-4.46.67-4.95.38.72.82,1.74,1.23,3.15.79,2.71.72,3.85.68,4.17h0Z"/>
  <path class="st0" d="M418.42,195.5c1.53,5.6-.25,12.72,6.61,9.42,6.87-3.31,7.08-5.97,5.6-12.98-2.04-9.67-13.74-2.04-12.21,3.56h0ZM425.58,197.81s-.19.27-.82.69c-.14-1.23-.33-2.57-.67-3.94.18-.34.57-.73,1-1.04.6,2.93.6,3.96.49,4.29h0Z"/>
  <path class="st0" d="M420.71,214.84c.25,6.87.51,12.98,6.36,11.45,5.85-1.53,8.29-4.85,7.12-13.23-1.53-10.94-13.74-5.09-13.49,1.78h0ZM426.86,220.38c-.25-1.63-.34-4.09-.4-5.75,0-.08.11-.5.65-1.03.43-.43.86-.65,1.18-.77.08.23.16.54.23,1.02.68,4.85.01,5.93-1.65,6.52h0Z"/>
  <path class="st0" d="M593.12,249.43c-1.77-.35-3.53,1.31-6.26,4.03l-2.11,2.15c-3.88,3.97-12.96,13.27-15.41,13.63-.6.09-1.02.62-.98,1.22.04.6.54,1.06,1.14,1.06h37.2c.43,0,.83-.24,1.03-.63.19-.39.16-.85-.1-1.2-3-4.07-11.03-15.19-12.1-17.76-.39-.95-1.07-2.24-2.41-2.5h0ZM588.28,263.48c1.09-1.1,2.22-2.25,2.22-2.25l.77-.79c.6.92,1.28,1.93,2.04,3.03h-5.03Z"/>
  <path class="st0" d="M83.28,614.05c22.68,73.7,38.55,87.31,32.89,45.36-5.67-41.95-13.04-74.84-8.51-81.64,4.54-6.8,1.7-17.58-.57-28.35-2.27-10.77,3.97-13.04-4.54-39.69-8.5-26.65,1.14-19.84.57-33.45-.57-13.61-5.1-13.04-3.4-29.48,1.7-16.44,2.27-40.25,2.27-40.25,0,0-14.17-.57-15.88,9.07-1.7,9.64-1.7,121.33,5.67,161.02,7.37,39.69-13.04,1.14-15.87-47.62-2.84-48.76-1.14-104.32-1.14-104.32,0,0,2.27-13.04-13.6-16.44,0,0-.57,132.1,22.11,205.81h0Z"/>
  <path class="st0" d="M147.92,581.16c0-27.21-10.21-39.69-5.67-56.13,4.53-16.44,7.37-22.68-1.13-36.28-8.5-13.61-5.1-12.47-2.84-29.48s-2.27-41.96-.57-55.56c0,0-7.94-6.24-9.07,1.13-1.13,7.37,2.27,99.79,7.37,136.64,5.1,36.85-4.53,21.54-7.94-9.64-2.34-21.45-7.94-123.6-7.94-123.6,0,0-10.21-7.94-12.47-.57,0,0-2.27,123.6,20.98,170.66,23.25,47.06,19.28,30.05,19.28,2.83h0Z"/>
  <path class="st0" d="M179.67,551.68c-3.97-14.74-3.97-17.58-2.84-30.62,1.13-13.04-4.53-23.24-6.8-40.82-2.27-17.58-3.97-60.1-3.4-83.34,0,0-3.4-3.97-9.64.57,0,0,.57,61.8,3.4,84.48,2.84,22.68-9.07-1.7-9.64-40.82-.57-39.12,0-47.06-7.37-39.69,0,0-2.27,119.63,31.18,157.05,0,0,9.07,7.94,5.1-6.8h0Z"/>
  <path class="st0" d="M174,388.96s-3.97,109.99,26.08,140.04c30.05,30.05,7.37,1.74,7.37-33.45,0-40.82-8.5-31.75-9.07-41.95,0,0-1.7-41.39-3.4-53.86-1.7-12.47-10.77-18.14-7.94,1.7,2.84,19.84,8.51,72.01,1.14,72.57-7.37.57-6.24-32.88-6.8-52.73-.57-19.84,2.27-31.18-7.37-32.32h0Z"/>
  <path class="st0" d="M216.52,384.99s-5.1-4.53-3.4,14.74c1.7,19.28,5.67,37.99-1.14,37.42-6.8-.57-3.97-24.38-5.1-34.02-1.13-9.64-2.84-21.54-6.8-14.18,0,0,1.13,74.27,21.54,104.89,20.41,30.62,20.41,7.37,10.77-10.77-9.64-18.14-11.34-40.82-11.34-57.27s-4.53-40.82-4.53-40.82h0Z"/>
  <path class="st0" d="M236.36,457.57c13.04,18.14,9.07,2.83,6.24-15.88-2.84-18.71-2.84-47.62-2.27-61.8,0,0-3.4-3.4-7.37,0,0,0,3.97,33.45.57,32.89-3.4-.57-4.54-12.47-5.67-24.38-1.13-11.91-2.27-8.5-5.67-6.24,0,0,1.13,57.26,14.17,75.41h0Z"/>
  <path class="st0" d="M69.65,293.19s-3.76,23.53-5.18,58.36c-1.41,34.82.91,40.31,14.2,41.02,17.41.94,20.72-11.04,23.44-38.67,2.94-29.94,3.37-45.44,3.76-49.41.47-4.71-9.41-16.47-11.29,1.88-1.88,18.35-.94,75.3-12.24,72.95-11.29-2.35-8.47-31.06-6.12-50.83,2.35-19.77,8.47-43.3.94-45.18-7.53-1.88-7.53,9.88-7.53,9.88h0Z"/>
  <path class="st0" d="M112.01,304.48s-14.59,84.29.47,84.89c22.84.91,19.29-23.24,21.65-49.59,2.35-26.36,4.71-33.89-.94-33.89s-7.06,25.41-8,39.06c-.94,13.65,0,31.53-6.59,30.59-6.59-.94-6.02-20.29-3.76-36.71,5.18-37.65,2.82-42.36-2.82-34.35h0Z"/>
  <path class="st0" d="M146.83,313.89s-1.88-3.76-4.71-3.29c0,0-2.67,29.39-3.61,46.8-.94,17.41,2.2,25.2,13.5,25.2s10.35-20.24,10.82-36.71c.47-16.47,4.7-31.06,0-32.47-4.71-1.41-5.18,10.82-5.65,21.65-.47,10.82-1.41,34.83-6.12,34.83s-7.53-5.65-6.59-23.06c.94-17.41,2.35-32.94,2.35-32.94h0Z"/>
  <path class="st0" d="M474.96,384.23c4-1,3.25-3.5,6.5,0,3.25,3.5,3.75,4,7.75,3.25,4-.75,9,1.25,11.25,3.75,2.25,2.5,5.75,2,5.25,4.25-.5,2.25-4.25,4.75,4.75,6.5,9,1.75,12.5,3,15-.25,2.5-3.25,6.5-3.25-1-7.5-7.5-4.25-10-3.75-16-9.75-6-6-5.25-6-9.25-7.5-4-1.5-8.75-3.75-14.75-2-6,1.75-13.75,1.75-13.75,1.75,0,0-2.75,2-.75,4.25,2,2.25,1,4.25,5,3.25h0Z"/>
  <path class="st0" d="M514.96,406.98c-3-.25-4.75-2.5-7.5-2.5,0,0-4.5-.5-2,3.5,2.5,4,4.75,4.5,7.5,3.75,2.75-.75,5-4.5,2-4.75h0Z"/>
  <path class="st0" d="M536.46,409.73s6-.25,9.25-2c3.25-1.75,5.75.75,8.75,1.25,3,.5,5.25.5,7.25-3,2-3.5-.5-5.75-3-8.25-2.5-2.5-6.5-2.25-9.5-.75-3,1.5-2.25,2.5-5.25,3-3,.5-11.24,8.75-7.5,9.75h0Z"/>
  <path class="st0" d="M572.46,411.98c1.25-.25,5,.75,6.5.5,1.5-.25,4-.25,1.5-4.5-2.5-4.25-1.5-5.25-6.25-4.5-4.75.75-4,2.5-4,2.5,0,0,1,6.25,2.25,6h0Z"/>
  <path class="st0" d="M590.7,466.73c.75.75,3,2.5,3.75-.5.75-3,.75-7.75-5.75-6,0,0-2.25,1.75-.75,3.25,1.5,1.5,2,2.5,2.75,3.25h0Z"/>
  <path class="st0" d="M225.75,331.37c-6.85,51.15,13.25,32.88,13.25,32.88.91-12.79,3.2-30.14,3.2-30.14-1.83-2.74-4.11-1.37-4.57,5.02-.46,6.39-.91,21.47-5.94,20.1-5.02-1.37-.91-27.86-3.2-28.77-2.28-.91-2.74.91-2.74.91h0Z"/>
  <path class="st0" d="M201.08,325.43s-3.65,25.12-3.65,32.88,4.11,13.7,14.16,12.79c10.05-.91,7.76-14.16,8.68-25.12.91-10.96,1.83-17.36,1.83-17.36-5.02-1.83-4.57-.46-6.39,13.7-1.83,14.16-1.37,20.09-8.22,20.55-6.85.46-3.19-26.49-2.28-32.88.91-6.39-4.11-4.57-4.11-4.57h0Z"/>
  <path class="st0" d="M172.77,319.03s-4.11,24.66-4.11,43.84,21.92,13.7,22.84-.46c.91-14.16,5.02-39.28,5.02-39.28-7.31-5.48-7.76,9.14-9.13,21.92-1.37,12.79-1.83,20.55-8.68,19.18-6.85-1.37-2.28-36.08-1.83-42.02.46-5.94-4.11-3.2-4.11-3.2h0Z"/>
  <path class="st0" d="M162.74,772.87c-3.37,6.25-1.68,8.17,2.16,8.66,3.85.48,4.81-10.59,4.81-10.59-1.2-4.57-3.61-4.33-6.98,1.93h0Z"/>
  <path class="st0" d="M177.65,769.74s-5.05-.72-4.09,6.98c.96,7.7,5.05,8.66,6.97,7.22,1.92-1.45,1.2-8.42,1.2-10.1s-1.93-6.49-4.09-4.09h0Z"/>
  <path class="st0" d="M187.99,768.06s-.96,6.25,1.92,10.34c2.89,4.09,8.18,6.25,6.49-2.4-1.68-8.66-3.61-11.07-8.42-7.94h0Z"/>
  <path class="st0" d="M107.42,754.11c-1.92-.96-3.85-1.68-5.29,1.44,0,0-1.68,4.81,3.13,4.81s4.09-5.29,2.16-6.25h0Z"/>
  <path class="st0" d="M87.22,766.14v.48s-.24,3.85,2.4,3.85,2.89-1.2,3.13-3.13c.24-1.93-4.09-4.09-5.53-1.2h0Z"/>
  <path class="st0" d="M93.95,791.87s-2.89,3.13.72,5.53c3.61,2.41,4.57,1.69,3.61-2.88-.96-4.57-2.41-4.33-4.33-2.64h0Z"/>
  <path class="st0" d="M116.56,791.15s2.88,1.68,3.37.48c.48-1.2-.72-2.89-.72-2.89,0,0-4.57-1.2-2.65,2.4h0Z"/>
  <path class="st0" d="M120.41,810.39s-1.44,4.57,2.17,5.05c3.61.49,4.09-3.36,2.65-4.81-1.44-1.44-4.81-1.2-4.81-.24h0Z"/>
  <path class="st0" d="M140.13,816.16s3.37.73,3.37,0,.48-2.4-.72-3.37c-1.2-.96-4.33.24-2.65,3.37h0Z"/>
  <path class="st0" d="M136.28,886.88s6.97-16.36-2.89-13.23c0,0-5.05,3.37-3.61,11.31,0,0-5.05-1.93-1.68,4.81,3.37,6.73,5.77,12.99,12.26,6.73,6.49-6.26-4.09-9.62-4.09-9.62h0Z"/>
  <path class="st0" d="M160.82,898.18s-5.77,4.58-4.09,6.74c1.68,2.16,9.14,3.13,9.86.24.72-2.88-3.13-9.14-5.77-6.98h0Z"/>
  <path class="st0" d="M185.83,902.75s-6.5,1.93-3.37,5.29c3.13,3.37,9.38,3.85,9.62,3.13.24-.73,3.37-10.34-6.25-8.42h0Z"/>
  <path class="st0" d="M166.59,873.89s-7.21,4.09-4.33,6.98c2.89,2.89,8.18-2.41,8.18-2.41,0,0,1.44-5.53-3.85-4.57h0Z"/>
  <path class="st0" d="M189.2,866.19c5.05,1.93,7.46-2.16,7.46-2.16,0,0-3.61-9.14-8.18-5.77,0,0-4.33,6.01.72,7.93h0Z"/>
  <path class="st0" d="M219.5,898.9c5.05,2.41,7.7.24,7.7.24,0,0,3.37-5.3-9.86-7.94,0,0-2.89,5.29,2.17,7.69h0Z"/>
  <path class="st0" d="M291.9,896.01c0-5.05-5.77-3.13-5.77-3.13,0,0-3.37.97-3.61,3.13-.24,2.16,4.33,2.89,4.33,2.89,0,0,5.05,2.17,5.05-2.89h0Z"/>
  <path class="st0" d="M292.38,925.12c-2.65-1.44-5.77,1.92-5.77,1.92,0,0-1.93,6.49,4.57,6.49s6.01-4.33,6.01-4.33c0,0,.54-1.17-4.81-4.09h0Z"/>
  <path class="st0" d="M325.81,915.26c-.24-3.85-4.09-6.01-6.98-5.53,0,0-6.25.48-7.45,5.78-1.2,5.29,8.66,5.29,8.66,5.29,0,0,6.01-1.68,5.77-5.53h0Z"/>
  <path class="st0" d="M318.35,935.46s.24,4.81,5.77,4.81,5.05-3.61,5.05-3.61c0,0-9.38-5.29-10.82-1.2h0Z"/>
  <path class="st0" d="M351.79,916.7c6.25-.24,4.57-4.81,4.57-4.81,0,0-1.93-2.65-6.01-2.41-4.09.24-4.81,0-5.05,3.37,0,0,.24,4.09,6.49,3.85h0Z"/>
  <path class="st0" d="M290.63,812.08c3.64-.41.81-11.93.81-11.93,0,0-2.63-6.87-4.65-6.47,0,0-5.66-.2-3.44,8.9,2.22,9.1,3.64,9.91,7.28,9.51h0Z"/>
  <path class="st0" d="M304.38,807.02c2.43,3.43,4.45,3.84,7.48,2.02,3.03-1.82-5.66-14.96-5.66-14.96,0,0-8.29-4.44-7.48.2,0,0,3.23,9.3,5.66,12.74h0Z"/>
  <path class="st0" d="M196.4,804.19c-2.63-.2-11.93,6.47-8.49,8.08,0,0,4.85,1.42,8.09-2.22,3.24-3.64,3.03-5.66.4-5.86h0Z"/>
  <path class="st0" d="M211.16,811.26s-10.92,10.52-6.67,12.74c4.24,2.22,7.68-3.84,9.3-8.29,1.62-4.45-.4-6.47-2.63-4.45h0Z"/>
  <path class="st0" d="M221.67,827.85c1.21,3.23,4.25,7.88,7.28-.41,3.03-8.29,1.62-9.1-.81-6.67,0,0-7.69,3.84-6.47,7.08h0Z"/>
  <path class="st0" d="M248.57,831.48c1.82-10.11.2-9.1-2.43-6.67,0,0-6.88,5.66-5.06,8.29,1.82,2.63,5.66,8.49,7.48-1.62h0Z"/>
  <path class="st0" d="M267.98,845.44c5.46.4,3.84-8.09,2.43-14.15-1.42-6.06-3.03-6.26-4.65-6.26,0,0-3.24-.61-3.04,6.67.2,7.28-.2,13.35,5.26,13.75h0Z"/>
  <path class="st0" d="M287.19,828.85s-5.46,11.73,1.82,16.38c7.28,4.65,4.65-3.85,3.24-9.1-1.42-5.26-3.44-10.51-5.06-7.28h0Z"/>
  <path class="st0" d="M308.62,827.03s-4.04-.6-2.63,5.66c1.42,6.27,3.44,11.93,9.7,10.72,6.27-1.21-3.23-13.95-7.08-16.38h0Z"/>
  <path class="st0" d="M341.99,842.2c3.24-6.26-12.94-18.4-15.57-16.78,0,0-4.85,2.42,0,7.68,4.85,5.26,12.33,15.37,15.57,9.1h0Z"/>
  <path class="st0" d="M361.8,838.77c3.84-2.43-6.07-11.93-6.07-11.93,0,0-7.28-7.89-8.9-5.87,0,0-4.04,4.45,1.62,10.31,5.66,5.87,9.5,9.91,13.35,7.48h0Z"/>
  <path class="st0" d="M252.01,856.16s-10.51,14.76-4.04,17.39c6.47,2.62,7.08-10.52,6.88-15.97-.2-5.46-2.83-1.42-2.83-1.42h0Z"/>
  <path class="st0" d="M349.47,852.72s3.64,7.48,4.45,10.51c.81,3.04,3.84,8.29,7.08,3.44,3.23-4.85,1.21-6.47-2.02-10.71-3.24-4.25-11.73-7.48-9.5-3.24h0Z"/>
  <path class="st0" d="M132.37,261.2s-10.55-2.41-14.55,9.17c-4,11.58-1.25,16.17,1.14,15.62,2.39-.55,3.67-11.57,6.61-10.47,2.94,1.1-3.3,10.83.74,11.93,4.04,1.1,5.51-11.02,8.63-9.91,3.12,1.1-3.12,11.02,1.47,12.3,4.59,1.28,11.02-24.42-4.04-28.65h0Z"/>
  <path class="st0" d="M162.62,271.57s-9.68-1.84-12.94,8.82c-3.26,10.66-.61,14.75,1.55,14.17,2.16-.58,2.96-10.64,5.67-9.74,2.71.91-2.65,9.96,1.06,10.83,3.71.87,4.66-10.2,7.53-9.3,2.87.9-2.48,10.12,1.74,11.14,4.22,1.02,9.23-22.58-4.61-25.93h0Z"/>
  <path class="st0" d="M102.58,277.25c5.79,1.95,16.23-28.17-2.76-34.58,0,0-13.35-3.84-19.48,9.63-6.12,13.47-2.97,19.2.15,18.76,3.11-.45,5.7-13.49,9.38-11.9,3.68,1.58-5.17,12.64-.07,14.32,5.1,1.68,8.01-12.66,11.93-11.06,3.92,1.6-4.95,12.88.84,14.83h0Z"/>
  <path class="st0" d="M190.47,281.95s-8.39-1.91-11.56,7.29c-3.18,9.2-.99,12.85.91,12.41,1.9-.44,2.92-9.2,5.26-8.32,2.34.88-2.63,8.61.59,9.49,3.21.88,4.38-8.76,6.86-7.88,2.48.88-2.48,8.76,1.17,9.78,3.65,1.02,8.76-19.41-3.21-22.77h0Z"/>
  <path class="st0" d="M217.59,309.69c3,.84,7.2-15.97-2.64-18.73,0,0-6.9-1.57-9.51,6-2.61,7.57-.81,10.57.75,10.21,1.56-.36,2.4-7.56,4.32-6.84,1.92.72-2.16,7.08.48,7.8,2.64.72,3.6-7.2,5.64-6.48,2.04.72-2.04,7.2.96,8.04h0Z"/>
  <path class="st0" d="M241.61,315.34c3.09.42,4.93-16.81-5.2-18.19,0,0-7.05-.61-8.6,7.25-1.54,7.86.65,10.58,2.15,10.01,1.5-.57,1.34-7.82,3.34-7.37,2,.45-1.17,7.31,1.55,7.66,2.72.35,2.58-7.63,4.7-7.2,2.12.43-1.03,7.42,2.06,7.83h0Z"/>
  <path class="st0" d="M85.86,299.06c-1.7,9.86-9.52,67.64-4.42,68.66,5.1,1.02,4.42-25.15,5.78-38.41,1.36-13.26,3.74-33.65,3.74-33.65,0,0-3.4-6.46-5.1,3.4h0Z"/>
  <path class="st0" d="M121.76,311.25c-1.29,7.77-7.21,53.29-3.35,54.09,3.86.8,3.35-19.82,4.37-30.26,1.03-10.44,2.83-26.51,2.83-26.51,0,0-2.57-5.09-3.86,2.68h0Z"/>
  <path class="st0" d="M151.22,319.21c-.93,6.2-4.77,42.46-.88,42.87,3.89.41,2.44-15.83,2.99-24.12.55-8.3,1.62-21.08,1.62-21.08,0,0-2.8-3.87-3.73,2.33h0Z"/>
  <path class="st0" d="M181.38,323.08c-1.02,4.72-5.36,32.28-1.47,32.54,3.88.26,2.66-12.04,3.32-18.35.67-6.3,1.91-16.02,1.91-16.02,0,0-2.75-2.89-3.76,1.82h0Z"/>
  <path class="st0" d="M213.06,328.4s-2.58-2.1-3.33,1.63c-.76,3.72-3.72,25.38-.21,25.36,3.51-.01,1.98-9.5,2.37-14.44.39-4.93,1.18-12.55,1.18-12.55h0Z"/>
  <path class="st0" d="M235.93,331.67s-2.19-1.79-2.83,1.39c-.64,3.18-3.15,21.66-.17,21.65,2.99-.01,1.68-8.11,2.01-12.32.33-4.21.99-10.71.99-10.71h0Z"/>
  <path class="st0" d="M704.5,308.08v18.13s9.07-.76,9.07-3.02,3.78,1.14,3.78,1.14c0,0-1.51-10.2-12.84-16.25h0Z"/>
  <path class="st0" d="M718.1,359.09c-3.4,0-6.42,1.13-6.05-7.56.38-8.69,1.51-15.11-6.8-12.09v27.96s12.47,8.69,19.65,0c0,0,3.02-17.01-2.27-28.72,0,0-1.13-1.13-4.15,1.89,0,0,3.02,18.52-.38,18.52h0Z"/>
  <path class="st0" d="M705.26,379.87s-1.51,20.78,0,20.78,7.94-.38,7.56-13.23c-.38-12.85-4.91-11.33-7.56-7.56h0Z"/>
  <path class="st0" d="M720.37,376.85s-2.64-.38-2.64,8.31-2.27,14.74.38,14.74,4.91-7.56,6.8-15.11c1.89-7.56-.75-9.82-4.53-7.94h0Z"/>
  <path class="st0" d="M707.14,419.55c4.91.38,12.09,0,13.23-8.31,1.13-8.31-8.31-6.05-15.49.76,0,0-2.64,7.18,2.27,7.56h0Z"/>
  <path class="st0" d="M704.88,429.75s-1.13,23.81.38,22.67c1.51-1.13,8.69-15.87,10.58-21.54,1.89-5.67-9.07-5.29-10.96-1.13h0Z"/>
  <path class="st0" d="M701.22,582.45c3.27,13.89.82,13.08-2.45,13.08s-6.54-19.61-11.44-6.54c-2.82,7.54-7.35,18.79,1.63,17.98,8.99-.82,31.87.82,24.51-17.16-7.35-17.98-15.52-21.25-12.26-7.36h0Z"/>
  <path class="st0" d="M721.65,639.65s2.95-2.69,1.71-7.65c-1.24-4.96-16.12-1.74-16.12-1.74l-33.48,1.74s-4.05,7.25-2.77,8.46c0,0,48.21.82,50.67-.82h0Z"/>
  <path class="st0" d="M691.37,668.46c-.25-13.15-2.73-24.31-13.15-23.81,0,0-14.14-.75-14.63,8.68-.5,9.42-1.49,23.31,2.73,23.31s.99-16.87,4.47-17.12c3.47-.25,3.72,6.7,3.72,11.41s6.2,6.7,5.71-.5c-.5-7.19-3.48-12.65.25-11.66,3.72.99,4.71,1.74,3.97,8.43-.74,6.7,7.19,14.39,6.95,1.24h0Z"/>
  <path class="st0" d="M705.26,657.88c3.2-.23,3.43,6.18,3.43,10.52s5.72,6.18,5.26-.45c-.46-6.64-3.21-11.67.23-10.76,3.43.92,4.35,1.6,3.66,7.78-.69,6.18,6.64,13.27,6.4,1.14-.23-12.13-2.51-22.43-12.13-21.97,0,0-13.04-.69-13.5,8.01-.46,8.7-1.37,21.51,2.52,21.51s.91-15.56,4.12-15.79h0Z"/>
  <path class="st0" d="M365.17,809.02c5.3.29,2.65-25.32-3.24-20.61,0,0-2.94,2.35-3.24,8.24-.29,5.89,1.18,12.07,6.48,12.37h0Z"/>
  <path class="st0" d="M385.78,806.67c-1.47-9.72-5.89-14.14-6.18-10.6,0,0-1.77,5.89-.29,12.37,1.47,6.48,7.95,7.95,6.48-1.77h0Z"/>
  <path class="st0" d="M406.69,809.32c1.47-1.47-6.48-16.49-9.71-12.07,0,0-3.83,1.76.59,7.65,4.42,5.89,7.66,5.89,9.13,4.42h0Z"/>
  <path class="st0" d="M427.89,839.05c-.59-2.06-4.42-5.3-5.89-5.01,0,0-4.12,2.06-.59,5.6,3.53,3.53,7.07,1.47,6.48-.59h0Z"/>
  <path class="st0" d="M445.85,840.23c4.71-2.36-4.71-10.9-10.6-10.6,0,0-3.24.3,0,5.01,3.24,4.72,5.89,7.95,10.6,5.6h0Z"/>
  <path class="st0" d="M467.63,869.68c5.6,4.71,9.72,4.71,6.77-1.18-2.95-5.89-5.89-10.01-8.25-7.36,0,0-4.12,3.83,1.47,8.54h0Z"/>
  <path class="st0" d="M494.43,864.67c1.47-3.82-7.95-16.49-11.78-16.19,0,0-5,.59-.59,8.54,4.42,7.95,10.89,11.48,12.37,7.65h0Z"/>
  <path class="st0" d="M508.56,859.96c-.29-3.83-7.07-17.96-7.95-13.54,0,0-2.65,9.13,1.47,14.13,4.12,5,6.77,3.24,6.48-.59h0Z"/>
  <path class="st0" d="M527.7,854.36c-.88-5.59-5.59-14.13-7.65-12.36,0,0-4.42,2.06-.59,8.54,3.83,6.48,9.13,9.42,8.24,3.83h0Z"/>
  <path class="st0" d="M540.95,847c9.42,0-2.06-7.36-2.94-8.84-.88-1.47-5.01-2.36-4.71,0,0,0-1.77,8.84,7.65,8.84h0Z"/>
  <path class="st0" d="M540.95,877.62c-.59-3.24-2.94-5.3-5.3-5.3,0,0-6.18-.59-2.06,4.42,4.12,5.01,7.95,4.12,7.36.88h0Z"/>
  <path class="st0" d="M557.73,874.97c-3.24-8.83-6.18-13.26-9.42-11.19,0,0-2.65,3.83,1.47,9.72,4.12,5.89,11.19,10.31,7.95,1.47h0Z"/>
  <path class="st0" d="M569.22,863.19c-1.18-7.07-13.25-24.44-13.25-17.96,0,0-1.17,5.59,2.94,11.19,4.12,5.6,11.48,13.83,10.31,6.77h0Z"/>
  <path class="st0" d="M531.23,901.18c-1.77,2.94-4.12,11.19,1.18,8.83,0,0,8.83-5,7.36-7.66-1.47-2.65-6.77-4.12-8.54-1.18h0Z"/>
  <path class="st0" d="M548.01,919.14c-4.71,1.18-9.13,5.6-6.48,8.54,0,0,2.65,5.01,8.54,0,5.89-5.01,2.65-9.72-2.06-8.54h0Z"/>
  <path class="st0" d="M623.39,927.97s-10.6,8.54-1.77,9.13c8.83.59,10.31-2.36,7.66-6.48-2.65-4.12-2.95-4.42-5.89-2.65h0Z"/>
  <path class="st0" d="M681.1,935.63c-2.35,0-10.89,4.71-7.36,8.54,0,0,7.07,2.95,10.6-2.06,3.53-5.01-.88-6.48-3.24-6.48h0Z"/>
  <path class="st0" d="M703.77,918.26c-4.12,1.77-6.48,5.3,0,8.24,0,0,4.42.88,7.07-3.53,2.65-4.42-2.95-6.48-7.07-4.71h0Z"/>
  <path class="st0" d="M666.08,914.43s-8.83,11.19.29,11.78c9.13.59,4.41-7.65,4.41-7.65,0,0-3.24-6.48-4.71-4.12h0Z"/>
  <path class="st0" d="M666.38,895.88c-4.42-3.82-6.77-1.77-8.83.88,0,0-5.89,10.31,1.18,10.01,7.07-.29,12.07-7.06,7.66-10.89h0Z"/>
  <path class="st0" d="M699.94,893.82c-1.18-3.83-2.35-5.3-5.59-3.53,0,0-7.07,5.3-2.65,7.07,4.42,1.77,9.42.29,8.25-3.54h0Z"/>
  <path class="st0" d="M597.77,869.68s-2.36,4.71,2.94,5.3c5.3.59,5.6-2.94,5.3-4.71-.29-1.77-5.59-4.12-8.24-.59h0Z"/>
  <path class="st0" d="M606.02,835.52s-1.47,6.77,4.12,8.54c5.6,1.77,3.83-3.83,3.24-5.3-.59-1.47-7.65-6.77-7.36-3.24h0Z"/>
  <path class="st0" d="M634.87,849.36s-5,5.3-1.77,6.48c3.24,1.18,10.01-4.71,1.77-6.48h0Z"/>
  <path class="st0" d="M656.07,834.93c4.71.59,7.95-5,1.18-6.18,0,0-5.89,5.59-1.18,6.18h0Z"/>
  <path class="st0" d="M629.87,833.17s-6.48.59-2.95,4.12c3.53,3.53,5,3.53,6.48-.88,1.47-4.42.59-4.12-3.53-3.24h0Z"/>
  <path class="st0" d="M641.05,810.49s-1.47,4.41,2.36,6.77c3.83,2.36,3.83.3,4.12-2.35.29-2.65-6.48-7.95-6.48-4.42h0Z"/>
  <path class="st0" d="M633.7,800.48s3.24,1.17,5.89-.89c2.65-2.06-6.77-4.41-5.89.89h0Z"/>
  <path class="st0" d="M686.69,773.69c2.94-2.65-3.53-5.59-5.3-1.76,0,0,2.35,4.41,5.3,1.76h0Z"/>
  <path class="st0" d="M857.56,919.74c6.88-2.02,11.53-13.76-.61-10.72,0,0-5.66,5.66-5.66,7.28s-.61,5.46,6.27,3.44h0Z"/>
  <path class="st0" d="M813.45,900.92s-2.02,7.08.81,6.68c2.84-.4,8.7-2.23,5.06-5.67-3.64-3.44-4.86-2.83-5.87-1.01h0Z"/>
  <path class="st0" d="M792.81,891.61s-6.07,2.43-6.28,4.66c-.2,2.22-.2,6.88,5.47,3.03,5.66-3.84,9.11-11.33.81-7.69h0Z"/>
  <path class="st0" d="M769.54,883.52s-7.28,2.03-5.06,4.86c2.23,2.83,7.89,7.68,9.31,2.43,1.41-5.26-.21-9.71-4.25-7.29h0Z"/>
  <path class="st0" d="M820.12,874.01s-5.67,2.42-4.66,4.65c1.01,2.23,4.25,4.65,7.08,1.62,2.83-3.04,3.04-8.7-2.43-6.27h0Z"/>
  <path class="st0" d="M837.93,897.28c4.45-1.21,10.72-12.34,1.21-10.73,0,0-3.44,1.22-5.06,4.86-1.62,3.65-.61,7.08,3.84,5.87h0Z"/>
  <path class="st0" d="M732.04,805.37s.23,7.28,5.17,5.87c4.93-1.41,2.82-5.87,2.82-5.87,0,0-9.62-5.63-7.98,0h0Z"/>
  <path class="st0" d="M731.34,838.94c-4.46-2.34-4.69-3.05-6.1-1.17,0,0-3.76,7.04.47,7.28,4.22.23,10.09-3.76,5.63-6.11h0Z"/>
  <path class="st0" d="M751.53,817.82c.71-3.05-15.26,3.76-8.92,6.58,0,0,5.17,2.59,7.75,1.17,2.58-1.41.47-4.7,1.17-7.75h0Z"/>
  <path class="st0" d="M766.56,787.06c4.23-.23,3.99-4.23,2.58-6.58-1.41-2.35-8.45-2.58-7.98,2.11,0,0,1.18,4.7,5.4,4.46h0Z"/>
  <path class="st0" d="M768.43,800.21c9.16,5.4,6.1-9.39,1.64-6.81,0,0-5.81,4.36-1.64,6.81h0Z"/>
  <path class="st0" d="M782.75,789.18c9.86,0,4.46-9.86.71-7.98,0,0-4.46,3.52-4.93,4.46-.47.94-3.61,3.52,4.23,3.52h0Z"/>
  <path class="st0" d="M771.48,816.41c-.23,2.11,2.35,3.29,6.34,2.11,3.99-1.17,3.99-6.57-.94-5.4,0,0-5.17,1.17-5.4,3.28h0Z"/>
  <path class="st0" d="M793.56,810.31c2.11-.71,1.41-4.93,1.64-7.98.23-3.05-1.17-4.46-4.7-1.88,0,0-2.35.47-2.11,3.52.24,3.06,3.05,7.04,5.17,6.34h0Z"/>
  <path class="st0" d="M875.96,760.3c3.29-3.05,5.87-8.45-.47-9.16,0,0-4.22,0-3.99,4.46.23,4.46,1.17,7.74,4.46,4.69h0Z"/>
  <path class="st0" d="M886.05,764.76s4.46,2.11,7.28,1.65c2.82-.47,1.41-4.94-.7-6.11-2.11-1.17-10.33,3.76-6.58,4.46h0Z"/>
  <path class="st0" d="M902.49,746.45c7.28,1.41,8.68-7.51,5.4-6.81,0,0-12.68,5.4-5.4,6.81h0Z"/>
  <path class="st0" d="M887.46,744.34c3.75-.24,6.34-1.41,3.99-3.29-2.35-1.88-5.87-5.63-5.87-3.52,0,0-1.88,7.04,1.88,6.81h0Z"/>
  <path class="st0" d="M861.77,278.03c-.57-7.66-2.27-9.39-2.84-8.52,0,0-1.7,21.02.28,21.59,1.99.57,3.13-5.41,2.56-13.07h0Z"/>
  <path class="st0" d="M758.66,325.47c-4.26.57-5.68-5.97-5.97-10.23-.29-4.26-3.98-6.82-5.97-1.42,0,0,.8,18.01,9.38,17.33,10.79-.85,13.64-6.25,9.37-20.45,0,0-2.27-3.98-5.68-1.14-3.41,2.84,3.13,15.34-1.13,15.91h0Z"/>
  <path class="st0" d="M771.96,306s-1.74,19.48,6.75,19.85c10.69.47,14.23-4.98,12.06-20.81,0,0-1.67-4.58-5.41-1.95-3.74,2.62.91,16.91-3.35,16.98-4.26.07-4.73-7.15-4.41-11.77.32-4.62-2.94-7.85-5.64-2.29h0Z"/>
  <path class="st0" d="M797.3,300.25s-1.89,20.13,5.94,20.38c9.86.32,13.2-5.35,11.43-21.65,0,0-1.47-4.7-4.96-1.94-3.49,2.76.59,17.44-3.33,17.57-3.92.13-4.26-7.31-3.9-12.08.36-4.78-2.6-8.05-5.17-2.28h0Z"/>
  <path class="st0" d="M821.15,289.11l-.28,17.33s-1.42,11.65,11.08,11.93c12.5.29,9.37-15.91,9.37-22.73s-.85-17.04-3.98-16.47c-3.12.57-3.98,4.26-3.69,11.65.28,7.39,1.71,16.19-2.27,15.91-3.98-.28-3.69-5.68-3.69-13.07s-5.68-12.78-6.53-4.54h0Z"/>
  <path class="st0" d="M854.95,272.07s-7.38-6.53-7.38,3.41-2.84,38.34,13.63,39.2c16.48.85,13.92-20.45,13.92-33.8s2.56-27.55-2.84-23.86c-5.4,3.69-5.97,7.67-6.54,17.33-.57,9.66,1.99,25.28-2.84,26.13-4.83.85-8.12-.87-7.39-15.05.57-11.08-.57-13.35-.57-13.35h0Z"/>
  <path class="st0" d="M891.31,282.01c-.85-15.62.28-26.98-3.13-26.98,0,0-5.68-.57-5.97,7.39-.28,7.95-3.41,39.2,7.1,44.03,10.51,4.83,25,1.99,25.28-9.66.28-11.65.28-37.5.28-44.31s-6.82-10.23-8.24-.57c-1.42,9.66,4.26,47.15-4.55,46.58-8.8-.57-9.94-.85-10.79-16.48h0Z"/>
  <path class="st0" d="M897.85,257.58s-3.13,27.84.85,29.54c3.98,1.7,1.99-19.03,2.28-25.28.28-6.25-2.56-9.37-3.12-4.26h0Z"/>
  <path class="st0" d="M856.79,695.93c6.84.8,28.15-47.46,33.38-78.42,5.23-30.96,7.24-38.2,13.27-52.28,6.03-14.08,14.48-70.78,14.48-99.33s1.61-54.69,0-59.12c-1.61-4.42-3.22-6.03-8.04-2.41-4.83,3.62-10.86,1.61-10.05,14.48.8,12.87,1.6,92.9-2.82,105.77-4.42,12.87-8.85,32.57-12.47,45.84-3.62,13.27-8.04,28.15-5.23.8,2.82-27.35,8.45-28.15,8.85-44.64.4-16.49,4.42-36.19,3.62-59.92-.8-23.73,1.21-53.89,1.21-53.89,0,0-12.07-16.09-12.47-1.61-.4,14.48.8,89.28-.4,99.33-1.21,10.05-4.42,25.34-3.22,35.39,1.2,10.05-3.62,13.27-4.43,29.76-.8,16.49-5.23,78.82-13.27,95.71-8.04,16.89-9.25,23.73-2.41,24.53h0Z"/>
  <path class="st0" d="M845.93,620.73c5.23-3.22,25.74-51.88,26.94-125.87,1.21-74,4.02-82.04.8-87.67-3.22-5.63-10.06-7.24-8.85,8.04,1.21,15.28-2.81,121.85-8.04,122.26-4.42,3.62,3.62-91.01,1.61-127.61l-.4-.81s-6.43-17.29-6.84-4.02c-.4,13.27-.81,71.71-2.41,76.13-1.61,4.42-8.05,29.36-6.03,47.05,2.01,17.7,3.62,62.74,1.2,74.4-2.41,11.66-3.22,21.31,2.01,18.1h0Z"/>
  <path class="st0" d="M841.1,454.24c1.21-15.68,5.26-46.94,4.05-54.99,0,0-8.73-2.81-9.45,6.79-.42,5.67-.63,30.5-1.84,38.95-1.21,8.45-1.21,45.04-6.43,44.64-5.23-.4-2.42-18.1-.8-33.78,1.61-15.68,7.24-31.53,3.22-54.05,0,0-7.31-8.01-7.72-.77-.4,7.24.88,26.27-1.53,29.49-2.41,3.22-4.43,13.67-4.02,25.33.4,11.66,2.41,30.56-2.01,37.8s-2.82,16.49-4.42,26.14c-1.61,9.65-4.02,31.37-12.47,45.04-8.45,13.67,9.65,17.29,27.75-34.18,18.1-51.48,14.48-60.73,15.68-76.41h0Z"/>
  <path class="st0" d="M792.9,401.61c0,8.04-.86,59.86-4.89,68.71-4.03,8.85-5.23,26.94-7.64,31.77-2.41,4.83-11.66,27.75-16.08,34.99-4.43,7.24-3.62,16.09,4.42,10.05,8.05-6.03,32.98-38.21,36.6-66.36,3.62-28.15,8.04-46.25,9.25-53.89,1.2-7.64,3.48-28.1,1.07-29.71-2.41-1.61-7.24-3.22-7.24,4.42s-2.28,34.13-6.3,47c-4.02,12.87-4.42,17.7-4.83,1.61-.4-16.09,2.96-47.75.95-55.39,0,0-5.31-1.25-5.31,6.79h0Z"/>
  <path class="st0" d="M766.36,393.13s-.86,7.22-.86,29.74c0,28.15-14.48,56.3-22.52,73.99-8.04,17.7,2.82,12.87,9.25,7.24,6.43-5.63,18.5-26.94,24.53-39.41,6.03-12.47,11.72-70.76,11.72-70.76-.8-2.01-6.43-3.62-8.45-.4-2.01,3.22-4.42,4.42-6.03.8-1.61-3.62-7.64-1.2-7.64-1.2h0Z"/>
  <path class="st0" d="M755.85,447.81c3.62-9.65,4.89-52.69,4.89-52.69,0-6.83-3.22-11.26-4.02.8-.8,12.07-4.56,6.68-6.57-3.78-2.01-10.45-5.8,20.24-4.19,30.7,1.61,10.45-8.97,38.58-12.99,56.67-4.02,18.1,19.27-22.06,22.89-31.71h0Z"/>
  <path class="st0" d="M760.72,344.59c-1.64,13.74.65,19.31-3.93,17.67-4.58-1.64,0-22.58-3.6-22.58s-2.94,8.18-3.6,14.07c-.65,5.89-1.64,22.25,6.87,22.25,14.4,0,11.13-27.16,11.13-32.07s-5.24-13.09-6.87.65h0Z"/>
  <path class="st0" d="M789.52,335.75c-3.6,0-5.23.98-4.91,8.84.33,7.85,1.31,15.71-2.62,14.72-3.93-.98-2.62-9.82-2.29-17.02.33-7.2-2.62-6.87-2.62-6.87,0,0-3.6-.98-3.6,6.54s-1.64,32.72,6.21,33.38c7.85.66,12.11-6.22,12.76-22.91q.65-16.69-2.95-16.69h0Z"/>
  <path class="st0" d="M805.88,380.91c13.42,1.31,10.8-22.58,11.13-28.47.33-5.89,1.63-19.63-1.64-19.96-3.27-.33-2.94,3.6-2.94,10.14s-.65,21.92-4.58,22.25c-3.93.33-4.91-7.53-3.93-18.65.98-11.13.98-12.76-.98-13.09,0,0-4.91,0-4.91,8.84s-5.56,37.63,7.85,38.94h0Z"/>
  <path class="st0" d="M843.84,330.19c-3.93-.98-6.54,0-6.54,7.85s.98,32.07-3.6,32.07-5.89-6.87-5.89-19.31,3.27-19.63.98-20.29c0,0-6.54-3.6-6.87,8.51-.33,12.11-2.29,44.83,7.53,46.47,9.82,1.64,16.03-10.8,15.05-25.85-.98-15.05,3.27-28.47-.66-29.45h0Z"/>
  <path class="st0" d="M856.93,327.25s-5.24-.65-5.89,9.16c-.65,9.82.65,28.14.65,36.98s.98,16.69,9.49,17.67c8.51.98,14.73-12.76,14.73-27.49s3.6-37.63-1.96-38.61c-5.56-.98-4.25,4.26-3.93,9.82.33,5.56,0,41.88-6.54,40.9-6.54-.98-7.53-16.36-5.57-32.4,2.29-18.65-.98-16.03-.98-16.03h0Z"/>
  <path class="st0" d="M863.47,333.14s-2.29-1.64-2.29,7.85-2.29,25.19,1.31,25.52c3.6.33.98-8.51,2.29-17.02,1.31-8.51,1.31-16.36-1.31-16.36h0Z"/>
  <path class="st0" d="M916.48,320.37c-4.91-.66-6.87-1.64-7.2,8.84-.33,10.47-.98,41.88-.98,41.88,0,0,.98,12.44-7.53,12.44s-8.51-5.24-8.51-16.69,2.95-41.88-4.25-42.87c0,0-5.57-.33-5.89,10.15-.33,10.47.33,39.92.33,45.16s2.29,17.67,16.36,19.63c14.07,1.96,18.32-18.33,18.65-38.29.33-19.96,3.93-39.59-.98-40.25h0Z"/>
  <path class="st0" d="M900.78,331.17s-3.6-1.31-3.93,7.52c-.33,8.84-1.97,35.99,1.31,35.99s3.82-1.64,3.6-9.16c-.65-21.92,1.96-34.03-.98-34.36h0Z"/>
  <path class="st0" d="M742.66,77.93l4.55-32.39c.66-4.71-.37-7.97-6.34-8.81l-7.5-1.05-6.74,47.91,7.5,1.05c5.97.84,7.86-2.01,8.53-6.72h0ZM731.53,80.49l2.49-17.7,4.58.63.62-4.49-4.56-.63,2.58-18.29,2.32.33c2.92.41,3.72,1.47,3.33,4.26l-4.65,33.05c-.39,2.79-1.45,3.59-4.37,3.18l-2.32-.32h0Z"/>
  <path class="st0" d="M360.56,317.68s-6.6.57-6.6-6.03v-6.08h12.81c5.3,0,9.61-3.98,9.61-8.88s-4.3-8.88-9.61-8.88h-23.93v4.43s3.58-.94,3.58,3.58v18.46s-.75,3.2-4.15,3.2v3.39h18.09l.19-3.2h0ZM362.64,291.11c2.5,0,4.52,2.07,4.52,4.62s-2.02,4.62-4.52,4.62h-8.67v-9.24h8.67Z"/>
  <path class="st0" d="M310.38,519.65h18.46s3.2.75,3.2,4.14h3.39v-18.08l-3.2-.19s.57,6.59-6.03,6.59h-6.08v-12.81c0-5.31-3.97-9.61-8.88-9.61s-8.88,4.3-8.88,9.61v23.93h4.43s-.94-3.58,3.58-3.58h0ZM305.66,503.45c0-2.5,2.07-4.52,4.62-4.52s4.62,2.02,4.62,4.52v8.67h-9.24v-8.67h0Z"/>
  <path class="st0" d="M627.48,664.67s-1.57,3.77-5.23,1.11c-3.66-2.66-14.94-10.85-14.94-10.85,0,0-2.1-2.56.11-5.6l-2.74-1.99-11.79,16.24h.01s-4.18,5.75-4.18,5.75c-3.46,4.76-2.86,11.1,1.34,14.15,2.91,2.11,6.76,2.05,10.01.26.17,2.53,1.31,4.9,3.4,6.42,3.97,2.88,9.76,1.67,12.94-2.71l7.41-10.21,1.1-1.52,2.09-2.88,4.05-5.58-3.58-2.6h0ZM596.91,675.79c-2.18-1.59-2.64-4.69-1.01-6.94l4.99-6.87c1.1-.03,2.33.31,3.65,1.26,1.26.91,3,2.17,4.92,3.57l-5.73,7.89c-1.65,2.15-4.67,2.65-6.81,1.09h0ZM616.22,682.1c-1.49,2.06-4.38,2.51-6.44,1.01-2.07-1.5-2.53-4.38-1.03-6.44l4.93-6.79c2.81,2.04,5.55,4.03,7.48,5.43l-4.93,6.79h0Z"/>
  <path class="st0" d="M406.16,287.53c-10.27,0-18.6,7.72-18.6,17.24s8.33,17.25,18.6,17.25,18.6-7.72,18.6-17.25-8.33-17.24-18.6-17.24h0ZM406.16,316.93c-3.16,0-7.62-5.96-7.62-12.15s4.46-12.15,7.62-12.15,7.62,5.96,7.62,12.15-4.46,12.15-7.62,12.15h0Z"/>
  <path class="st0" d="M456.59,317.68s-6.59.57-6.59-6.03v-6.08h5.61l9.52,15.31s6.22,1.32,10.74-3.96l-1.51-2.26s-4.14,2.82-6.03-.57c-1.41-2.54-3.88-6.66-5.03-8.57,5.07-.24,9.11-4.09,9.11-8.83s-4.3-8.88-9.61-8.88h-23.93v4.43s3.58-.94,3.58,3.58v18.46s-.75,3.2-4.15,3.2v3.39h18.09l.19-3.2h0ZM458.66,291.11c2.5,0,4.52,2.07,4.52,4.62s-2.02,4.62-4.52,4.62h-8.67v-9.24h8.67Z"/>
  <path class="st0" d="M310.01,454.93h18.47s3.2.75,3.2,4.15h3.39v-18.09l-3.2-.19s.57,6.59-6.03,6.59h-6.08v-5.61l15.31-9.52s1.32-6.22-3.96-10.74l-2.26,1.51s2.83,4.14-.56,6.03c-2.54,1.41-6.66,3.88-8.57,5.03-.24-5.07-4.09-9.11-8.83-9.11s-8.88,4.3-8.88,9.61v23.93h4.43s-.94-3.58,3.58-3.58h0ZM305.29,438.73c0-2.5,2.07-4.52,4.62-4.52s4.62,2.02,4.62,4.52v8.67h-9.24v-8.67h0Z"/>
  <path class="st0" d="M483.32,741.92s6.5,1.26,4.69,7.61c-.43,1.49-1.02,3.56-1.67,5.85l-5.39-1.54-4.96-17.34s-5.62-2.97-11.41.86l.83,2.59s4.76-1.58,5.64,2.2c.66,2.82,1.9,7.46,2.48,9.62-4.94-1.16-9.88,1.43-11.19,6-1.34,4.72,1.7,9.72,6.81,11.17l17.03,4.86,5.98,1.71,1.21-4.26s-3.7-.08-2.46-4.42c1.24-4.35,5.06-17.76,5.06-17.76,0,0,1.6-2.87,4.87-1.94l.93-3.26-17.39-4.96-1.06,3.02h0ZM470.95,761.22c.7-2.45,3.21-3.89,5.61-3.21l8.34,2.38c-.95,3.33-1.88,6.59-2.53,8.88l-8.33-2.38c-2.4-.68-3.78-3.23-3.08-5.68h0Z"/>
  <path class="st0" d="M678.98,328.05s.94,3.58-3.58,3.58h-18.46s-3.21-.75-3.21-4.15h-3.39v18.08l3.2.19s-.57-6.59,6.03-6.59h6.08v5.61l-15.31,9.52s-1.32,6.22,3.96,10.74l2.26-1.51s-2.83-4.14.57-6.03c2.54-1.41,6.66-3.88,8.57-5.03.24,5.07,4.09,9.11,8.83,9.11s8.88-4.3,8.88-9.61v-23.93h-4.43ZM680.11,347.84c0,2.5-2.07,4.52-4.62,4.52s-4.62-2.02-4.62-4.52v-8.67h9.24v8.67h0Z"/>
  <polygon class="st0" points="545.69 318.23 541.1 318.23 553.45 299.88 571.31 320.81 586.97 304.15 596.44 318.23 590.61 318.23 590.61 320.99 613.43 320.99 613.43 318.23 610.38 318.23 595.09 295.51 595.24 295.35 595.24 288.52 587.84 288.52 587.84 293.42 575.17 306.9 560.34 288.52 544.18 288.52 544.18 293.87 548.32 293.87 548.4 293.96 532.06 318.23 528.73 318.23 528.73 320.99 545.69 320.99 545.69 318.23 545.69 318.23"/>
  <polygon class="st0" points="642.29 315.83 639.64 315.83 639.64 293.75 642.29 293.75 642.29 288.68 626.86 288.68 626.86 293.75 629.5 293.75 629.5 315.83 626.86 315.83 626.86 320.91 642.29 320.91 642.29 315.83 642.29 315.83"/>
  <polygon class="st0" points="307.39 411.89 329.47 411.89 329.47 414.53 334.54 414.53 334.54 399.11 329.47 399.11 329.47 401.75 307.39 401.75 307.39 399.11 302.31 399.11 302.31 414.53 307.39 414.53 307.39 411.89 307.39 411.89"/>
  <polygon class="st0" points="307.27 349.73 335.68 331.59 307.27 309.45 307.27 303.44 302.59 303.44 302.59 319.55 307.27 319.55 307.27 314.86 323.14 327.22 307.27 337.36 307.27 336.26 302.59 336.26 302.59 354.38 307.27 354.38 307.27 349.73 307.27 349.73"/>
  <polygon class="st0" points="305.52 391.8 312.14 391.8 312.14 388.88 308.96 388.88 308.96 379.86 329.76 379.86 329.76 385.54 334.54 385.54 334.54 363.65 329.76 363.65 329.76 369.33 308.96 369.33 308.96 360.31 312.14 360.31 312.14 357.39 308.96 357.39 308.96 357.39 302.34 357.39 302.34 391.8 305.52 391.8 305.52 391.8 305.52 391.8"/>
  <polygon class="st0" points="307.39 482.56 329.47 482.56 329.47 485.2 334.54 485.2 334.54 469.77 329.47 469.77 329.47 472.42 307.39 472.42 307.39 469.77 302.31 469.77 302.31 485.2 307.39 485.2 307.39 482.56 307.39 482.56"/>
  <path class="st0" d="M594.6,704.98c-.36.17-1.66-.92-2.21-1.5l-13.57-14.42c-.53-.56-.72-1-.57-1.33.14-.32,1.02-1.25,2.63-2.76l-2.77-2.94-24.61,23.15,4.08,8.31,3.04-2.86c-.72-1.33-.07-4.78-.11-4.99-.06-.58.22-1.15.84-1.74l10.13-9.53,14.3,15.19c.54.58,1.63,1.89,1.58,2.15-.05.25-3.76,3.85-5.46,5.45l3,3.19,15.51-14.6-3-3.19c-1.53,1.43-2.47,2.23-2.84,2.41h0Z"/>
  <path class="st0" d="M363.89,665.51l16.74-10.57c.65-.41,1.12-.51,1.41-.31.29.21,1.03,1.24,2.2,3.11l3.42-2.16-18.04-28.57-8.94,2.42,2.23,3.53c1.45-.46,4.7.85,4.92.85.58.05,1.09.43,1.54,1.15l7.43,11.76-17.64,11.14c-.67.43-2.17,1.24-2.41,1.14-.24-.1-3.07-4.43-4.31-6.39l-3.7,2.34,11.38,18.01,3.7-2.34c-1.12-1.77-1.73-2.85-1.83-3.24-.1-.39,1.22-1.45,1.9-1.88h0Z"/>
  <path class="st0" d="M381.65,664.32l2.97,3.69c1.57-.69,2.46-1.07,2.67-1.15.75-.34,1.24-.51,1.47-.52.49-.03,2.31,1.92,2.75,2.46l6.09,7.56-8.44,6.73-7.94-9.86-3.65,2.94,7.97,9.9-6.62,5.33-6.85-8.5c-.17-.22-.29-.38-.35-.51-.17-.31-.14-.68.09-1.13.06-.17.27-.5.63-.98l1.59-2.2-2.91-3.62-5.49,7.28,18.11,22.49,3.01-2.42c-.76-.94-1.23-1.55-1.42-1.84-.41-.56-.59-.94-.56-1.17.03-.23.3-.54.8-.95l16.9-13.6c.6-.48,1.04-.65,1.33-.51.29.14,1.05.98,2.28,2.5l3.04-2.44-18.85-23.42-8.6,3.94h0Z"/>
  <path class="st0" d="M328.41,599.04l20.58-6.87c.73-.24,1.2-.25,1.42-.01.22.23.65,1.28,1.27,3.14l3.7-1.23-9.52-28.52-9.44.7,1.5,4.49c1.71-.1,2.68-.15,2.9-.15.82-.06,1.34-.05,1.55.02.47.14,1.5,2.61,1.72,3.26l3.08,9.21-10.25,3.37-4.01-12.01-4.44,1.49,4.03,12.06-8.06,2.69-3.46-10.35c-.09-.26-.14-.46-.15-.61-.05-.35.11-.69.48-1.03.11-.14.43-.37.94-.69l2.25-1.51-1.47-4.4-7.68,4.91,9.15,27.39,3.67-1.22c-.38-1.14-.61-1.88-.69-2.22-.19-.66-.23-1.09-.12-1.29.11-.2.47-.4,1.08-.61h0Z"/>
  <path class="st0" d="M318.19,564.42c3.89-.37,6.71-4.01,8.45-10.91.51-2.21,1-4.42,1.47-6.63.68-3.01,1.31-5.02,1.91-6.01.42-.78,1.95-1.29,2.69-1.36.83-.08,1.54.39,2.12,1.42.58,1.03.95,2.37,1.11,4.02.23,2.44.21,6.08-.42,7.32-.83,1.7-3.63,3.39-6.52,4.9l2.2,5.94c3.39-1.75,6.46-3.03,9.22-3.83.84-5.59,1.32-7.71.83-12.83-.67-7.01-2.12-9.98-4.81-13.66-2.26-3.13-4.83-4.55-7.7-4.28-2.35.22-4.28,1.27-5.75,3.52-1.17,1.73-2.08,5.45-2.93,8.92-.15.69-.48,2.14-1.43,6.55-.68,2.96-1.3,4.96-1.86,6-.31.62-.7.95-1.17,1-1.27.12-3.06-1.38-3.38-4.69-.21-2.24-.71-10.78-.18-11.67.65-1.04,3.33-2.26,6.06-3.46l-1.65-5.07c-3.62,1.48-6.65,2.53-9.08,3.15-.77,4.94-1.15,7.54-.68,12.46.56,5.9,1.8,10.53,3.71,13.88,2.17,3.82,4.77,5.59,7.8,5.3h0Z"/>
  <path class="st0" d="M674.11,428.49c1.66.5.76.58,1,.67.83.33,1.37.63,1.62.91.24.27.37.92.37,1.96v12.08l-23.37-20.66s-3.32-4.12-3.32,2.68v32.16l8.93,2.62v-6.27c-2.53-.79-1.6-1.45-2.19-2-.46-.41-.69-1.31-.69-2.68v-9.96l23.46,20.16s3.23,2.22,3.23-3.06v-32.33l-9.04-2.35v6.06h0Z"/>
  <path class="st0" d="M656.15,371.02c-.09-.34-.14-1.32-.14-2.92h-5.6v13.51h5.6v-2.86l5.56,2.85v14.38c-4.6,2.65-5.64,3.11-5.64,3.11,0,0,.09-5.57.09-5.78h-5.6v21.9h5.6c0-1.65.07-2.68.2-3.09.14-.41.6-.86,1.39-1.33l25.72-15.4v-9.42l-26.3-14.03c-.49-.26-.77-.57-.87-.92h0ZM666.19,385.24l7.19,3.62-7.19,4.19v-7.8h0Z"/>
  <path class="st0" d="M655.81,469.38c-.09-.34-.14-1.32-.14-2.92h-5.6v13.51h5.6v-2.86l5.56,2.85v14.38c-4.6,2.65-5.65,3.11-5.65,3.11,0,0,.09-5.57.09-5.78h-5.6v21.9h5.6c0-1.65.07-2.68.2-3.09.14-.41.6-.86,1.39-1.33l25.71-15.4v-9.42l-26.3-14.03c-.49-.26-.78-.57-.87-.92h0ZM665.85,483.6l7.2,3.62-7.2,4.19v-7.8h0Z"/>
  <path class="st0" d="M550.19,716.26l-2.98-4.74-11.43,7.2,2.98,4.74c1.32-.83,2.09-1.31,2.31-1.45.04-.02.07-.04.11-.07l.54,6.22-12.17,7.67c-4.7-2.48-5.64-3.12-5.64-3.12,0,0,4.76-2.89,4.94-3.01l-2.98-4.74-18.53,11.67,2.98,4.74c1.39-.88,2.3-1.37,2.72-1.47.42-.1,1.05.05,1.87.47l26.74,13.55,7.97-5.02-2.14-29.74c-.04-.55.07-.96.31-1.22.24-.26,1.04-.83,2.4-1.68h0ZM534.5,738.17l6.61-4.16.77,8.01-7.38-3.86h0Z"/>
  <path class="st0" d="M453.09,721.71l-3.26,4.55c1.27.91,2.01,1.43,2.22,1.59.04.03.07.05.11.08l-5.56,2.85-11.7-8.36c.52-5.29.76-6.4.76-6.4,0,0,4.47,3.31,4.65,3.43l3.25-4.55-17.81-12.74-3.26,4.55c1.34.96,2.14,1.61,2.39,1.96.25.35.35.99.27,1.91l-2.43,29.88,7.66,5.48,26.72-13.23c.49-.24.91-.3,1.25-.17.33.12,1.16.65,2.46,1.59l3.26-4.55-10.99-7.86h0ZM433.82,736.17l.78-8.29,6.35,4.54-7.13,3.75h0Z"/>
  <path class="st0" d="M633.13,603.17c.06-.35.41-1.26,1.06-2.72l-5.11-2.28-5.49,12.34,5.11,2.28c.64-1.43,1-2.26,1.11-2.5.02-.04.03-.08.05-.12l3.92,4.87-5.85,13.14c-5.28.55-6.42.54-6.42.54,0,0,2.34-5.05,2.43-5.24l-5.12-2.28-8.9,20.01,5.12,2.28c.67-1.51,1.15-2.42,1.44-2.74.29-.32.9-.54,1.81-.65l29.75-3.62,3.83-8.61-18.33-23.51c-.34-.44-.48-.83-.42-1.19h0ZM641.62,626.48l-8.28.9,3.17-7.13,5.1,6.23h0Z"/>
  <path class="st0" d="M671,556.68c-.21.65-.41,1.03-.59,1.14-.19.11-1.77-.23-2.43-.41l-19.3-5.12c-.78-.21-1.19-.46-1.24-.75-.05-.29.19-1.42.7-3.39l-3.97-1.05-4.33,16.3,3.97,1.05c.28-1.08.48-1.75.58-2.01.18-.55.35-.86.51-.94.17-.08.55-.04,1.14.12l8.14,2.15-3.78,14.34-8.14-2.15c-.68-.19-1.06-.41-1.12-.66-.06-.26.14-1.23.58-2.9l-3.97-1.05-4.34,16.3,3.97,1.05c.32-1.21.54-1.98.66-2.3.2-.65.4-1.02.59-1.13.18-.11.61-.07,1.26.1l19.3,5.12c.78.21,2.34.77,2.38,1.08.05.31-.19,1.43-.7,3.37l4.32,1.14,4.34-16.3-4.32-1.15c-.29,1.09-.48,1.75-.58,2.01-.18.55-.35.85-.54.94-.18.07-1.7-.27-2.28-.42l-6.49-1.71,3.78-14.35,6.49,1.72c.69.19,2.21.71,2.27.97.06.26-.13,1.23-.57,2.9l4.31,1.15,4.34-16.3-4.32-1.14c-.32,1.21-.54,1.98-.66,2.3h0Z"/>
  <metadata>
    <sfw xmlns="http://ns.adobe.com/SaveForWeb/1.0/">
      <slices/>
      <sliceSourceBounds x="53.62" y="0" width="892.75" height="1000" bottomLeftOrigin="true"/>
      <optimizationSettings>
        <targetSettings fileFormat="PNG24Format" targetSettingsID="0">
          <PNG24Format filtered="false" interlaced="false" matteColor="#FFFFFF" noMatteColor="false" transparency="true"/>
        </targetSettings>
      </optimizationSettings>
    </sfw>
  </metadata>
</svg>